<?xml version="1.0" standalone="no"?>
<!DOCTYPE svg PUBLIC "-//W3C//DTD SVG 1.1//EN" "http://www.w3.org/Graphics/SVG/1.1/DTD/svg11.dtd" >
<svg>
<metadata>
Created by FontForge 20110222 at Mon Mar  2 07:48:06 2015
 By deploy user
Part of the digitally encoded machine readable outline data for producing the Typefaces provided is copyrighted (c) 1995, 2003 Linotype Library GmbH, www.linotype.com. All rights reserved. This software is the property of Linotype Library GmbH, and may not be reproduced, used, displayed, modified, disclosed or transferred without the express written approval of Linotype Library GmbH. Copyright (c) 1995 Adobe Systems Incorporated. All rights reserved.
</metadata>
<defs>
<font id="FranklinGothicLT-DemiCmpr" horiz-adv-x="426" >
  <font-face 
    font-family="ITCFranklinGothic LT BookCp"
    font-weight="600"
    font-stretch="normal"
    units-per-em="1000"
    panose-1="2 0 7 6 5 0 0 2 0 4"
    ascent="800"
    descent="-200"
    x-height="493"
    cap-height="667"
    bbox="-104 -250 764 881"
    underline-thickness="50"
    underline-position="-75"
    unicode-range="U+0020-FB02"
  />
<missing-glyph horiz-adv-x="212" 
 />
    <glyph glyph-name=".notdef" horiz-adv-x="212" 
 />
    <glyph glyph-name=".null" horiz-adv-x="0" 
 />
    <glyph glyph-name="nonmarkingreturn" horiz-adv-x="212" 
 />
    <glyph glyph-name="space" unicode=" " horiz-adv-x="212" 
 />
    <glyph glyph-name="dollar" unicode="$" 
d="M125 211q3 -11 7.5 -25.5t14 -27.5t26 -22.5t42.5 -9.5q21 0 34 5.5t21 14.5q10 10 13 22t3 22q0 31 -17.5 49.5t-43.5 29.5q-32 12 -56 22t-42 19t-32 19.5t-26 24.5q-23 27 -31 59t-8 59q0 76 38 125t113 59v68h63v-69q19 -4 39 -11t39 -22t36.5 -40.5t32.5 -66.5
l-99 -46q-6 15 -12.5 29t-15.5 25.5t-22.5 18t-33.5 6.5q-30 0 -44 -18t-14 -41q0 -15 5 -26t16 -21t29 -19t44 -20q28 -12 50.5 -21.5t40 -20.5t31 -25t23.5 -34q20 -40 20 -90q0 -12 -2 -31.5t-9 -41t-19 -43t-33 -38.5q-29 -24 -56.5 -31.5t-45.5 -9.5v-89h-63v90
q-45 3 -74 20t-47 41t-27.5 50t-14.5 46z" />
    <glyph glyph-name="percent" unicode="%" horiz-adv-x="528" 
d="M401 263q-6 0 -13.5 -3.5t-10.5 -23.5q-2 -13 -2.5 -28t-0.5 -44q0 -30 0.5 -45t2.5 -28q2 -10 6 -18.5t15 -8.5q12 0 15 9q3 6 4 18t2 25.5t1 26.5v21q0 36 -1 53t-3 26q-1 7 -4 13.5t-11 6.5zM399 337q27 0 45 -11.5t29.5 -29.5t18 -39.5t9.5 -40.5t3.5 -34t0.5 -19
q0 -15 -2.5 -43.5t-13 -56.5t-32 -49t-59.5 -21q-21 0 -40.5 9t-34.5 28.5t-24 51.5t-9 78q0 15 2.5 44.5t13.5 59t32.5 51.5t60.5 22zM134 600q-6 0 -13.5 -3.5t-10.5 -23.5q-2 -12 -2.5 -26.5t-0.5 -45.5t0.5 -45.5t2.5 -27.5q2 -9 6 -18t15 -9q12 0 15 9q3 6 4 18t2 25.5
t1 26.5v21v14t-0.5 20t-1.5 23t-2 22q-1 4 -3.5 12t-11.5 8zM132 674q26 0 44.5 -11.5t30 -29.5t18 -39.5t9.5 -41t3.5 -34t0.5 -19.5q0 -16 -2.5 -44.5t-13.5 -56t-32.5 -48t-58.5 -20.5q-21 0 -40.5 9t-34.5 29t-24 52t-9 77q0 18 3 48t14 58.5t32.5 49.5t59.5 21z
M368 667h62l-269 -667h-61z" />
    <glyph glyph-name="ampersand" unicode="&#x26;" horiz-adv-x="545" 
d="M147 191q0 -37 21 -64.5t66 -27.5q33 0 49.5 12t24.5 22q-29 33 -58 73t-52 83q-19 -13 -29.5 -28t-15 -29t-5.5 -25t-1 -16zM317 526q0 5 -1 15.5t-5.5 20.5t-13.5 17.5t-25 7.5q-15 0 -24.5 -6t-15 -15t-7.5 -19t-2 -18q0 -14 4.5 -28.5t10.5 -27.5t12.5 -23.5
t10.5 -16.5q7 4 16.5 10t18.5 16.5t15 26.5t6 40zM522 365q-5 -112 -70 -217q11 -13 23 -24t34 -11q5 0 7.5 0.5t6.5 1.5v-110q-11 -4 -23 -7t-29 -3q-21 0 -36.5 5.5t-27.5 13.5t-20.5 17t-14.5 17q-15 -11 -30.5 -21t-34.5 -18.5t-43 -13.5t-55 -5q-54 0 -90 19t-57 48
t-30 63.5t-9 66.5q0 48 14 81.5t33.5 56t40 35t33.5 19.5q-19 32 -31.5 67t-12.5 72q0 25 8 53.5t26 51.5t47.5 38.5t71.5 15.5q41 0 70.5 -13.5t48 -35.5t27.5 -50.5t9 -59.5q0 -36 -10 -62t-25 -45.5t-33.5 -33.5t-35.5 -26q7 -13 17.5 -29t22 -32t23 -30.5t21.5 -24.5
q20 33 29 70t14 75z" />
    <glyph glyph-name="quoteright" unicode="&#x2019;" horiz-adv-x="221" 
d="M171 667v-146l-62 -132h-58l47 132h-47v146h120z" />
    <glyph glyph-name="parenleft" unicode="(" horiz-adv-x="255" 
d="M162 -167q-17 31 -35 75t-33 98t-24.5 116t-9.5 128q0 67 9.5 129.5t24.5 116.5t33 98t35 73h98q-13 -30 -27.5 -72.5t-27 -95.5t-20.5 -116t-8 -133q0 -74 8.5 -139t21.5 -118.5t27.5 -94t25.5 -65.5h-98z" />
    <glyph glyph-name="parenright" unicode=")" horiz-adv-x="255" 
d="M94 667q49 -98 75 -203t26 -214q0 -77 -11.5 -142t-27 -118t-33 -92.5t-29.5 -64.5h-99q11 25 25.5 65.5t27 94t21.5 118.5t9 139q0 67 -6.5 123.5t-17.5 106t-26 95t-32 92.5h98z" />
    <glyph glyph-name="asterisk" unicode="*" 
d="M256 667l-18 -111l82 63l41 -72l-93 -49l92 -47l-40 -70l-82 62l18 -108h-86l18 108l-82 -62l-40 70l92 47l-93 49l41 72l82 -63l-18 111h86z" />
    <glyph glyph-name="plus" unicode="+" 
d="M394 386v-106h-127v-129h-108v129h-127v106h127v129h108v-129h127z" />
    <glyph glyph-name="comma" unicode="," horiz-adv-x="221" 
d="M174 148v-133l-76 -172h-51l53 157h-53v148h127z" />
    <glyph glyph-name="hyphen" unicode="-" horiz-adv-x="239" 
d="M203 305v-106h-168v106h168z" />
    <glyph glyph-name="hyphen" unicode="&#xad;" horiz-adv-x="239" 
d="M203 305v-106h-168v106h168z" />
    <glyph glyph-name="period" unicode="." horiz-adv-x="221" 
d="M174 146v-146h-127v146h127z" />
    <glyph glyph-name="slash" unicode="/" horiz-adv-x="477" 
d="M437 667l-349 -834h-81l349 834h81z" />
    <glyph glyph-name="zero" unicode="0" 
d="M214 573q-17 0 -27 -9.5t-15 -36.5q-2 -14 -3.5 -39.5t-2 -53.5t-0.5 -55v-42v-45q0 -27 0.5 -56t1.5 -54.5t3 -39.5q4 -26 13 -37t28 -11q12 0 19.5 4.5t12 11.5t6.5 14.5t3 12.5q3 16 4 48t2 66t1 62v39v43q0 25 -1 49.5t-3 46.5t-5 38q-5 23 -13 33.5t-24 10.5z
M213 677q64 0 102 -32t57.5 -80.5t25.5 -107t6 -111.5q0 -8 -0.5 -35.5t-4 -64.5t-11.5 -77.5t-22 -74.5q-20 -48 -59 -76t-99 -28t-96.5 29.5t-56.5 78t-26.5 109.5t-6.5 124q0 77 8.5 140.5t30.5 109.5t59 71t93 25z" />
    <glyph glyph-name="one" unicode="1" 
d="M297 118h95v-118h-339v118h104v386q-15 -18 -25.5 -30t-21.5 -21.5t-24 -18t-32 -19.5v130q55 35 88 72t48 57h107v-556z" />
    <glyph glyph-name="two" unicode="2" 
d="M401 126l-8 -126h-367v130q55 56 98 102.5t72 89.5t44.5 85t15.5 90q0 6 -0.5 16.5t-5 21t-14 18.5t-27.5 8q-34 0 -48 -34t-16 -94l-119 28q2 20 8.5 56.5t26 72t56 61.5t99.5 26q33 0 65 -10t58 -32t42 -58t16 -87q0 -55 -18.5 -102.5t-50 -91t-73 -85.5t-87.5 -85h233
z" />
    <glyph glyph-name="three" unicode="3" 
d="M147 399h23q15 0 29 1.5t25.5 9.5t18.5 26.5t7 51.5q0 4 -1 16t-5.5 25t-14.5 23t-28 10q-17 0 -27 -8t-16 -20t-9 -26t-5 -26l-113 25q3 16 11 44.5t27.5 56.5t53.5 48.5t89 20.5q46 0 78.5 -14t53 -37.5t30 -55.5t9.5 -68q0 -42 -9 -69t-21.5 -43.5t-27 -25
t-26.5 -13.5q9 -3 26 -11t33.5 -25t28.5 -46.5t12 -76.5q0 -54 -15.5 -92t-41.5 -62.5t-60.5 -36t-72.5 -11.5q-14 0 -32.5 2t-37.5 8.5t-38 18t-35 29.5q-16 19 -25.5 38.5t-14.5 38.5t-6.5 35t-2.5 27l116 20q1 -14 3.5 -31t9 -31.5t19 -24.5t33.5 -10q64 0 64 89
q0 35 -10.5 54t-25.5 27.5t-30.5 10t-25.5 1.5h-23v107z" />
    <glyph glyph-name="four" unicode="4" 
d="M219 273v136q0 36 4 79t9 76q-5 -19 -15 -48.5t-30 -71.5l-81 -171h113zM16 160v113l197 401h128v-401h69v-113h-69v-160h-128v160h-197z" />
    <glyph glyph-name="five" unicode="5" 
d="M374 667l-12 -127h-196l-8 -144q11 13 31.5 29t59.5 16q31 0 59.5 -13.5t49.5 -40.5t33.5 -67.5t12.5 -95.5q0 -47 -10.5 -89t-33.5 -74.5t-60.5 -51.5t-91.5 -19q-51 0 -86 17.5t-56 44.5t-31 60.5t-12 65.5l117 23q1 -13 4 -29t9.5 -29.5t19 -23t33.5 -9.5
q40 0 51.5 29.5t11.5 77.5q0 60 -16.5 83.5t-47.5 23.5q-30 0 -42.5 -16t-17.5 -37l-95 23l19 373h305z" />
    <glyph glyph-name="six" unicode="6" 
d="M218 322q-31 0 -42 -27.5t-11 -88.5q0 -57 11.5 -84.5t44.5 -27.5q18 0 28.5 9t15.5 24t6.5 34t1.5 39q0 56 -10 89t-45 33zM299 475q-1 8 -3.5 24.5t-9 32.5t-19.5 28t-34 12q-25 0 -39 -12t-21.5 -37.5t-9.5 -64.5t-3 -94q4 6 10.5 16.5t18 20.5t27.5 17.5t38 7.5
q31 0 59 -14t49 -40.5t33 -65.5t12 -89q0 -26 -6 -64.5t-24.5 -74.5t-54.5 -62t-96 -26q-53 0 -90.5 23.5t-61 67.5t-34 107t-10.5 143q0 21 1.5 55t8 72t19 77.5t34.5 70.5t55 51t81 20q10 0 26 -1.5t33.5 -7.5t36 -16.5t34.5 -28.5q13 -15 21.5 -31t13.5 -31.5t7.5 -29
t4.5 -22.5z" />
    <glyph glyph-name="seven" unicode="7" 
d="M38 541l10 126h340v-112q-14 -22 -24.5 -39.5t-19.5 -36.5t-18.5 -41.5t-20.5 -53.5q-11 -30 -21 -62.5t-18.5 -72t-13.5 -86.5t-5 -105q0 -16 0.5 -29t1.5 -29h-146q-1 15 -1.5 24t-0.5 20q0 35 6 78t17 87.5t25.5 88t32.5 81.5q29 63 58 103t45 59h-247z" />
    <glyph glyph-name="eight" unicode="8" 
d="M191 279q-8 -6 -16.5 -14.5t-16 -19.5t-12.5 -26.5t-5 -36.5q0 -11 2 -26.5t9 -29.5t20 -24t36 -10q30 0 48.5 21t18.5 60q0 26 -8 43.5t-20 29.5t-27 19.5t-29 13.5zM228 415q6 5 13 12t13 17.5t10.5 25.5t4.5 36q0 9 -1.5 22t-6.5 25t-15 20.5t-27 8.5
q-16 0 -26.5 -7.5t-16.5 -19t-8.5 -24.5t-2.5 -23q0 -26 7.5 -43t17.5 -27.5t21 -15.5t17 -7zM305 368q15 -8 38 -25t43 -57q7 -14 14 -37.5t7 -61.5q0 -93 -52.5 -145t-149.5 -52q-12 0 -29.5 1.5t-36.5 6.5t-38.5 14.5t-35.5 25.5q-15 15 -24.5 32.5t-14 34.5t-6 31.5
t-1.5 24.5q0 38 10.5 66t25.5 47.5t32 32t30 21.5q-13 9 -30.5 25.5t-32.5 48.5q-6 14 -11.5 35.5t-5.5 53.5q0 46 14 81t38 58.5t56 35t69 11.5q45 0 78.5 -13.5t55.5 -36t32.5 -51.5t10.5 -61q0 -36 -10.5 -61.5t-24.5 -43t-28.5 -27.5t-22.5 -15z" />
    <glyph glyph-name="nine" unicode="9" 
d="M204 569q-12 0 -22.5 -4t-18.5 -15.5t-12.5 -32.5t-4.5 -55t4.5 -54.5t12.5 -32t18.5 -15t22.5 -3.5q21 0 33.5 11t18.5 27.5t7.5 35t1.5 33.5q0 7 -1 24t-6.5 35t-18 32t-35.5 14zM139 175q8 -40 20 -58.5t37 -18.5q32 0 47.5 26.5t20.5 67.5q5 35 5.5 66.5t-0.5 51.5
q-6 -9 -14 -20t-20 -20.5t-28.5 -16t-38.5 -6.5q-28 0 -55 11.5t-48 36t-33.5 63.5t-12.5 94q0 44 10 84.5t32 72t57 50t84 18.5q55 0 92.5 -25t60 -69t32 -104.5t9.5 -132.5q0 -73 -9.5 -138t-32.5 -113.5t-62 -76.5t-98 -28q-50 0 -81.5 17t-49.5 41.5t-26 53t-11 51.5z
" />
    <glyph glyph-name="colon" unicode=":" horiz-adv-x="221" 
d="M174 493v-147h-127v147h127zM174 146v-146h-127v146h127z" />
    <glyph glyph-name="semicolon" unicode=";" horiz-adv-x="221" 
d="M174 148v-133l-76 -172h-51l53 157h-53v148h127zM174 493v-147h-127v147h127z" />
    <glyph glyph-name="semicolon" unicode="&#x37e;" horiz-adv-x="221" 
d="M174 148v-133l-76 -172h-51l53 157h-53v148h127zM174 493v-147h-127v147h127z" />
    <glyph glyph-name="less" unicode="&#x3c;" 
d="M392 473l-246 -140l246 -140v-120l-358 209v103l358 209v-121z" />
    <glyph glyph-name="equal" unicode="=" 
d="M32 199v106h362v-106h-362zM32 362v106h362v-106h-362z" />
    <glyph glyph-name="greater" unicode="&#x3e;" 
d="M392 385v-103l-358 -209v120l246 140l-246 140v121z" />
    <glyph glyph-name="question" unicode="?" 
d="M282 144v-144h-123v144h123zM161 191v29q0 30 2 51t8 37t16 30t26 31q10 10 19 20.5t16 23.5t11 30t4 40q0 24 -4 39t-11 23t-15 10.5t-17 2.5q-20 0 -31 -7.5t-16.5 -21.5t-7.5 -34.5t-3 -46.5l-112 18q-3 69 17.5 111t50 64t61.5 29t52 7q27 0 57 -9t55 -30t41 -56.5
t16 -88.5q0 -38 -7 -66t-18.5 -50.5t-26.5 -40t-31 -33.5q-12 -12 -20 -20.5t-12.5 -17.5t-6.5 -21t-2 -30v-23h-111z" />
    <glyph glyph-name="at" unicode="@" horiz-adv-x="579" 
d="M298 424q-11 0 -19 -15t-13 -37t-7.5 -47t-2.5 -45q0 -32 5.5 -43.5t15.5 -11.5q11 0 18 8t10 16q8 21 13.5 56t5.5 66q0 32 -6.5 42.5t-19.5 10.5zM420 504l-28 -201q0 -3 -1 -10.5t-2 -16.5t-1.5 -17.5t-0.5 -14.5q0 -20 7 -27t20 -7q19 0 28 12.5t10 15.5
q6 13 10 30.5t7 37t4 38.5t1 35q0 18 -2 43t-8 51t-17.5 52t-30 46t-46.5 32.5t-66 12.5q-50 0 -87 -23.5t-61 -63t-35.5 -90.5t-11.5 -106q0 -21 2.5 -49.5t10 -58.5t21 -60t36.5 -55q31 -35 67 -46.5t74 -11.5q48 0 76.5 9t47.5 18l21 -64q-35 -17 -72.5 -25.5t-75.5 -8.5
q-75 0 -129.5 29t-90 77t-53 111.5t-17.5 132.5q0 72 18.5 136.5t53.5 113.5t87 78t118 29t113 -26t76.5 -68.5t43.5 -96.5t14 -109q0 -41 -8.5 -85t-26.5 -81t-46 -60.5t-68 -23.5q-20 0 -34 5t-23 13t-14 17.5t-9 18.5q-4 -9 -8.5 -18.5t-12 -17.5t-18 -13t-25.5 -5
q-38 0 -60.5 37.5t-22.5 108.5q0 40 7 80.5t22 73t37 53t52 20.5q26 0 37 -14.5t19 -32.5l6 40h65z" />
    <glyph glyph-name="A" unicode="A" 
d="M256 252l-37 178q-5 20 -8.5 43.5t-5.5 68.5q-3 -21 -6.5 -48t-9.5 -58l-36 -184h103zM285 667l151 -667h-138l-27 144h-132l-26 -144h-123l153 667h142z" />
    <glyph glyph-name="B" unicode="B" horiz-adv-x="477" 
d="M182 111h54q19 0 34 3.5t25.5 13.5t16.5 27.5t6 45.5q0 5 -1.5 24.5t-12.5 38.5t-27.5 23t-45.5 4h-49v-180zM182 398h50q27 0 42 8t22 20t8.5 25t1.5 24q0 37 -17 61t-57 24h-50v-162zM50 667h182q30 0 54.5 -0.5t44 -5t35.5 -14t31 -26.5q17 -19 29.5 -48.5t12.5 -78.5
q0 -41 -8.5 -67.5t-21.5 -42t-27 -23.5t-26 -13q9 -3 26.5 -11t34 -26.5t29 -49.5t12.5 -81q0 -28 -5 -50t-13 -39t-17 -29t-17 -20q-15 -15 -34.5 -23.5t-40.5 -12.5t-40.5 -5t-34.5 -1h-206v667z" />
    <glyph glyph-name="C" unicode="C" horiz-adv-x="460" 
d="M325 410q-1 25 -3.5 51.5t-10.5 48t-22.5 35t-38.5 13.5q-23 0 -35.5 -10t-21.5 -34q-7 -18 -10.5 -44.5t-5 -54t-2 -52t-0.5 -39.5v-43q0 -23 1.5 -47t5 -46t9.5 -38q8 -20 20.5 -30.5t34.5 -10.5q19 0 33 6t23 21.5t14.5 41t8.5 64.5l116 -9q-1 -15 -3.5 -38.5
t-9.5 -50.5t-19.5 -54.5t-34.5 -49.5t-54 -36t-77 -14q-112 0 -162.5 88.5t-50.5 251.5q0 33 3 72t11 77.5t23 74t39 63t58.5 44t82.5 16.5q45 0 77 -13t53.5 -34t34.5 -48.5t20 -56t9.5 -56l4.5 -49.5z" />
    <glyph glyph-name="D" unicode="D" horiz-adv-x="494" 
d="M185 117h40q5 0 15.5 0.5t22 5t22.5 13t17 25.5q5 15 8.5 38t5.5 47t2.5 46.5t0.5 36.5q0 76 -6.5 120t-18.5 66.5t-29.5 29t-39.5 6.5h-40v-434zM51 667h128q58 0 101.5 -6.5t83.5 -35.5q35 -26 55 -64t30 -79t12.5 -78.5t2.5 -61.5q0 -99 -22 -175t-76 -124
q-19 -16 -52 -29.5t-84 -13.5h-179v667z" />
    <glyph glyph-name="E" unicode="E" horiz-adv-x="409" 
d="M188 395h161v-111h-161v-167h210v-117h-347v667h347v-117h-210v-155z" />
    <glyph glyph-name="F" unicode="F" horiz-adv-x="375" 
d="M188 377h146v-111h-146v-266h-137v667h327v-117h-190v-173z" />
    <glyph glyph-name="G" unicode="G" horiz-adv-x="477" 
d="M442 0h-59l-16 80q-9 -18 -19 -34.5t-25 -28.5t-36.5 -19.5t-52.5 -7.5q-56 0 -95 24.5t-63 68.5t-35 106t-11 136q0 38 3.5 79.5t12.5 80.5t24.5 74t40 61t58 41.5t79.5 15.5q60 0 97 -25t57.5 -60t28 -74t10.5 -67l-113 -21q-4 28 -8.5 51.5t-12.5 40.5t-22 26.5
t-36 9.5q-26 0 -40 -12t-22 -35q-6 -17 -9 -41.5t-4.5 -51.5t-2 -53.5t-0.5 -46.5q0 -60 4 -100t13.5 -64.5t24.5 -34.5t37 -10q15 0 28 4.5t23 18.5t16 40t6 69h-83v111h202v-352z" />
    <glyph glyph-name="H" unicode="H" horiz-adv-x="477" 
d="M289 404v263h137v-667h-137v287h-101v-287h-137v667h137v-263h101z" />
    <glyph glyph-name="I" unicode="I" horiz-adv-x="239" 
d="M51 667h137v-667h-137v667z" />
    <glyph glyph-name="J" unicode="J" horiz-adv-x="307" 
d="M262 667v-439q0 -43 -2.5 -85.5t-17.5 -76.5t-48 -55t-93 -21q-41 0 -81 12v119q8 -1 21 -2.5t27 -1.5q37 0 47 23t10 79v448h137z" />
    <glyph glyph-name="K" unicode="K" horiz-adv-x="460" 
d="M51 667h137v-218q0 -3 -0.5 -12t-1.5 -20.5t-1.5 -24t-1.5 -22.5q1 6 4 15.5t6.5 20.5t7 21.5t7.5 18.5l100 221h134l-135 -247l155 -420h-141l-94 301l-39 -89v-212h-137v667z" />
    <glyph glyph-name="L" unicode="L" horiz-adv-x="358" 
d="M51 667h137v-544h169v-123h-306v667z" />
    <glyph glyph-name="M" unicode="M" horiz-adv-x="630" 
d="M51 667h188l51 -281q9 -47 13.5 -96.5t7.5 -94.5q2 27 5.5 57.5t7.5 59t8 51.5t7 37l57 267h184v-667h-131v380v31t1 37t2.5 53.5t3.5 80.5q-2 -16 -6 -44t-8 -57t-8 -55.5t-7 -39.5l-81 -386h-86l-78 392q-3 17 -6.5 40t-7 48.5t-6.5 51.5t-6 50q0 -20 1 -44t1.5 -49
t1 -49.5t0.5 -43.5v-396h-109v667z" />
    <glyph glyph-name="N" unicode="N" horiz-adv-x="477" 
d="M51 667h134l108 -306q8 -23 15.5 -56.5t16.5 -75.5q-2 25 -3.5 55.5t-3 59t-2.5 52.5t-1 36v235h111v-667h-111l-125 341q-13 35 -23 73t-16 64q2 -23 4 -52.5t3.5 -58t2.5 -52.5t1 -34v-281h-111v667z" />
    <glyph glyph-name="O" unicode="O" horiz-adv-x="477" 
d="M237 558q-16 0 -28 -9.5t-20 -32.5q-9 -25 -11.5 -75.5t-2.5 -113.5q0 -43 1.5 -88.5t10.5 -80.5q5 -20 16 -34.5t37 -14.5q28 0 38.5 16.5t15.5 42.5q3 17 4.5 45t2.5 55t1 48v24v39t-1.5 49t-4 48.5t-7.5 38.5q-8 25 -20 34t-32 9zM240 677q60 0 100 -26t64 -72.5
t33.5 -110t9.5 -139.5q0 -74 -9.5 -136t-33.5 -107t-64.5 -70.5t-102.5 -25.5q-39 0 -66.5 10t-45 23t-27 25.5t-12.5 17.5q-32 53 -44 123.5t-12 151.5q0 76 10.5 138.5t35.5 106t65 67.5t99 24z" />
    <glyph glyph-name="P" unicode="P" horiz-adv-x="443" 
d="M185 363h33q17 0 30.5 4t22.5 15t13.5 31t4.5 53q0 20 -3 37.5t-11 30.5t-22 20.5t-35 7.5h-33v-199zM51 667h167q24 0 47.5 -1t46 -7t42.5 -18.5t36 -36.5q23 -32 32 -70.5t9 -78.5q0 -56 -17.5 -103.5t-51.5 -73.5q-17 -12 -35.5 -18.5t-37 -9.5t-35 -3.5t-29.5 -0.5
h-40v-246h-134v667z" />
    <glyph glyph-name="Q" unicode="Q" horiz-adv-x="477" 
d="M237 558q-16 0 -28 -9.5t-20 -32.5q-9 -25 -11.5 -75.5t-2.5 -113.5q0 -43 1.5 -88.5t10.5 -80.5q5 -20 16 -34.5t37 -14.5q28 0 38.5 16.5t15.5 42.5q3 17 4.5 45t2.5 55t1 48v24v39t-1.5 49t-4 48.5t-7.5 38.5q-8 25 -20 34t-32 9zM433 -128q-7 -2 -21 -4.5t-35 -2.5
q-45 0 -70 14t-37 33.5t-14.5 41t-3.5 36.5h-32q-17 0 -37 5.5t-41.5 17t-42.5 34.5q-23 25 -37 62t-21 78.5t-9 82t-2 71.5q0 77 11 139.5t35.5 106t64.5 67t99 23.5q63 0 103.5 -28.5t63.5 -76.5t31.5 -111.5t8.5 -134.5q0 -42 -3.5 -86t-14 -84.5t-29.5 -75.5t-50 -59
q1 -20 9 -31t35 -11q9 0 19.5 1t19.5 3v-111z" />
    <glyph glyph-name="R" unicode="R" horiz-adv-x="460" 
d="M185 372h38q40 0 57 25t17 73q0 52 -20.5 72t-53.5 20h-38v-190zM51 667h172q54 0 88 -6t60 -30q23 -22 35.5 -46.5t18.5 -47t7 -41t1 -27.5q0 -47 -9 -78.5t-22.5 -51.5t-28.5 -31.5t-27 -18.5l101 -289h-144l-75 262h-43v-262h-134v667z" />
    <glyph glyph-name="S" unicode="S" horiz-adv-x="409" 
d="M286 479q-6 24 -14.5 39.5t-18.5 24t-21 11.5t-22 3q-21 0 -32.5 -8.5t-17 -20t-7 -22t-1.5 -14.5q0 -18 5 -30.5t18 -23t36 -22t60 -28.5q15 -8 37 -20t42 -33.5t34 -53.5t14 -80q0 -47 -13.5 -85.5t-39 -66.5t-63.5 -43.5t-86 -15.5q-57 0 -93 19t-57.5 46.5t-31.5 59
t-14 55.5l109 38q12 -54 31.5 -76t55.5 -22q23 0 36.5 8.5t20.5 20.5t9 23.5t2 17.5q0 17 -5 29t-13 21t-18 15t-20 11q-32 16 -55.5 28t-42 24t-32 25t-24.5 30q-14 21 -22 50t-8 61q0 38 12 74.5t35 65t57 46t78 17.5q51 0 84.5 -18.5t53.5 -43.5t30 -51t14 -40z" />
    <glyph glyph-name="T" unicode="T" horiz-adv-x="358" 
d="M246 0h-137v541h-109v126h358v-126h-112v-541z" />
    <glyph glyph-name="U" unicode="U" horiz-adv-x="477" 
d="M182 667v-425q0 -31 2 -55.5t9 -41t20.5 -25t36.5 -8.5q24 0 37.5 10.5t20 29t7.5 43.5t1 54v418h116v-418q0 -44 -4 -90t-22.5 -83.5t-57 -61.5t-107.5 -24q-57 0 -95 14.5t-60.5 45t-31.5 77.5t-9 111v429h137z" />
    <glyph glyph-name="V" unicode="V" horiz-adv-x="409" 
d="M-3 667h142l54 -324q1 -5 3.5 -22.5t5.5 -42.5t6.5 -55t6.5 -60q2 36 7.5 83.5t13.5 96.5l58 324h118l-140 -667h-139z" />
    <glyph glyph-name="W" unicode="W" horiz-adv-x="630" 
d="M0 667h145l37 -317q6 -51 8.5 -93t4.5 -80q2 27 5 56.5t6 56.5t5.5 48t4.5 32l49 297h123l53 -312l4 -28t3.5 -34t4 -48t5.5 -68q0 9 1.5 32.5t3.5 52t4.5 58t5.5 50.5l39 297h119l-121 -667h-120l-57 327q-3 17 -8.5 57t-7.5 93q-2 -18 -4 -39.5t-4.5 -42.5t-5 -39
t-4.5 -29l-57 -327h-120z" />
    <glyph glyph-name="X" unicode="X" 
d="M11 667h153l37 -117q11 -34 14.5 -66t4.5 -46q2 24 9 59.5t16 62.5l38 107h131l-134 -308l151 -359h-148l-58 162q-11 33 -14 60t-3 51q-1 -6 -2.5 -19t-3.5 -29t-6 -32.5t-9 -30.5l-63 -162h-129l148 349z" />
    <glyph glyph-name="Y" unicode="Y" horiz-adv-x="409" 
d="M127 274l-133 393h144l58 -212q8 -29 10 -57t2 -49q2 26 5.5 53t11.5 53l64 212h123l-148 -393v-274h-137v274z" />
    <glyph glyph-name="Z" unicode="Z" horiz-adv-x="409" 
d="M396 117v-117h-383v107l227 449h-209v111h359v-105l-227 -445h233z" />
    <glyph glyph-name="bracketleft" unicode="[" horiz-adv-x="273" 
d="M258 603h-64v-712h64v-58h-178v834h178v-64z" />
    <glyph glyph-name="backslash" unicode="\" horiz-adv-x="477" 
d="M472 -167h-82l-349 834h82z" />
    <glyph glyph-name="bracketright" unicode="]" horiz-adv-x="273" 
d="M192 667v-834h-178v58h64v712h-64v64h178z" />
    <glyph glyph-name="asciicircum" unicode="^" 
d="M305 309l-92 246l-93 -246h-120l162 358h103l161 -358h-121z" />
    <glyph glyph-name="underscore" unicode="_" horiz-adv-x="500" 
d="M500 -75v-50h-500v50h500z" />
    <glyph glyph-name="quoteleft" unicode="&#x2018;" horiz-adv-x="221" 
d="M51 389v146l62 132h58l-47 -132h47v-146h-120z" />
    <glyph glyph-name="a" unicode="a" horiz-adv-x="375" 
d="M217 237q-45 -8 -59.5 -33t-14.5 -64q0 -26 6.5 -43.5t25.5 -17.5q32 0 37.5 40t4.5 118zM233 0q-4 8 -6.5 18.5t-1.5 42.5q-17 -30 -44 -50.5t-61 -20.5q-7 0 -24.5 3t-35.5 16.5t-31.5 41t-13.5 76.5q0 9 1 24.5t6.5 33.5t16.5 37.5t32 37.5q30 26 66 34.5t80 11.5
q-1 57 -6 80.5t-28 23.5q-14 0 -21.5 -8t-12 -19t-6 -24t-2.5 -22l-112 13q8 71 46.5 112t112.5 41q11 0 27 -2t34 -7.5t35.5 -16.5t31.5 -29q17 -23 20.5 -61.5t3.5 -80.5v-200v-44q0 -16 0.5 -27t2 -18.5t3.5 -16.5h-113z" />
    <glyph glyph-name="b" unicode="b" horiz-adv-x="392" 
d="M163 148q0 -9 0.5 -20t3.5 -21t10 -16.5t19 -6.5t19.5 7.5t11.5 18.5q4 12 6.5 29.5t3.5 37t1 37.5v33q0 60 -3.5 92t-9.5 47t-13 17.5t-13 2.5q-14 0 -21 -6.5t-10.5 -16.5t-4 -22t-0.5 -24v-189zM38 667h125v-222q4 7 9.5 16.5t14.5 17.5t22.5 14t32.5 6
q24 0 46.5 -12.5t36.5 -31.5q9 -13 17.5 -29.5t14.5 -40.5t10 -56.5t4 -76.5q0 -16 -1 -42t-5 -54.5t-12.5 -57.5t-24 -52t-38 -37.5t-55.5 -14.5q-27 0 -44.5 8.5t-28.5 20t-16.5 23.5t-7.5 19l-33 -65h-67v667z" />
    <glyph glyph-name="c" unicode="c" horiz-adv-x="375" 
d="M249 308q-1 21 -3 39.5t-6.5 32.5t-13.5 22t-25 8q-21 0 -31.5 -17.5t-12.5 -47.5q-2 -26 -3 -53.5t-1 -44.5v-32t1.5 -37t4 -36.5t7.5 -29.5q6 -14 15 -18.5t20 -4.5t20 4t15.5 15.5t11 32t7.5 52.5l108 -9q-2 -25 -6 -58t-21 -62q-6 -11 -16.5 -23.5t-27 -24t-39.5 -19
t-54 -7.5q-48 0 -82 17.5t-55.5 50.5t-31.5 80t-10 106q0 25 2.5 53.5t9.5 57t20 55.5t33 48q23 25 53 35t63 10t62 -10.5t51 -33t35 -58t15 -86.5z" />
    <glyph glyph-name="d" unicode="d" horiz-adv-x="392" 
d="M229 351q0 7 -0.5 16.5t-3.5 18t-10 14.5t-20 6q-15 0 -23.5 -10t-12.5 -29t-5 -47t-1 -64v-24t0.5 -36.5t1.5 -39t3 -31.5q3 -18 10.5 -29.5t24.5 -11.5q23 0 29.5 25t6.5 72v170zM354 0h-112v72q-18 -45 -41.5 -61.5t-52.5 -16.5q-31 0 -53 14t-36 37t-22 50.5
t-11.5 55.5t-4.5 52t-1 39q0 84 13 131t32 76q14 21 36.5 35.5t51.5 14.5q33 0 50 -15t26 -27v210h125v-667z" />
    <glyph glyph-name="e" unicode="e" horiz-adv-x="375" 
d="M246 306q-1 58 -12 82.5t-34 24.5q-18 0 -28 -11t-15.5 -27t-7 -35t-2.5 -34h99zM148 225q-2 -66 8 -101t46 -35q28 0 38 22t15 59l105 -9q-2 -31 -11.5 -61.5t-28.5 -55t-49 -39.5t-73 -15q-49 0 -83 18t-55 51t-30.5 80t-9.5 104q0 45 7.5 91.5t27.5 84t54 61t88 23.5
q31 0 54.5 -8.5t41 -22.5t29.5 -32t20 -37q9 -20 13.5 -44t6.5 -48.5t2.5 -47t0.5 -38.5h-217z" />
    <glyph glyph-name="f" unicode="f" horiz-adv-x="239" 
d="M55 390h-53v103h53q0 30 2 65t15 65t41 50t81 20q20 0 32.5 -2t22.5 -4v-105q-9 1 -15 1.5t-12 0.5q-28 0 -33.5 -17.5t-5.5 -48.5v-25h60v-103h-60v-390h-128v390z" />
    <glyph glyph-name="g" unicode="g" horiz-adv-x="409" 
d="M143 15q-5 -7 -11 -17t-6 -27q0 -26 22.5 -37.5t67.5 -11.5q10 0 23.5 1.5t25.5 6t20 13.5t8 24q0 23 -16 30.5t-39 10.5q-5 0 -18.5 1t-28.5 2t-28.5 2t-19.5 2zM209 429q-15 0 -22.5 -9t-11.5 -21t-4.5 -24.5t-0.5 -20.5q0 -45 10 -63.5t31 -18.5q13 0 20.5 6.5
t11.5 17.5t5 25t1 29q0 46 -10 62.5t-30 16.5zM418 484q-5 2 -11 4.5t-14 2.5q-23 0 -32 -15.5t-14 -31.5q8 -11 19 -31.5t11 -62.5q0 -72 -41.5 -113t-110.5 -41q-5 0 -21.5 1t-34.5 5q-15 -8 -19.5 -20.5t-4.5 -20.5q0 -12 4.5 -19t15.5 -11t29.5 -6t45.5 -5
q31 -3 61.5 -8t55 -18.5t39.5 -39.5t15 -71q0 -43 -16.5 -72.5t-44.5 -48t-65 -26.5t-79 -8q-39 0 -72.5 5.5t-57.5 18.5t-38 34t-14 53q0 25 7 42t17 28.5t21.5 18t20.5 11.5q-16 10 -33 28t-17 52q0 7 1.5 20t8.5 28.5t20.5 31.5t36.5 28q-7 4 -18 11t-21.5 20.5t-18 34.5
t-7.5 52q0 86 55 126q26 18 55.5 25t57.5 7q25 0 50.5 -5t48.5 -17q0 9 1 25t8.5 32t23 27.5t44.5 11.5q9 0 16 -1.5t16 -3.5v-88z" />
    <glyph glyph-name="h" unicode="h" horiz-adv-x="409" 
d="M38 667h128v-238q4 12 10.5 25t18 24t28.5 18t43 7q39 0 61 -14t32.5 -36t12.5 -47.5t2 -49.5v-356h-128v342q0 11 -0.5 21t-4 17.5t-11.5 12t-22 4.5q-29 0 -35.5 -16.5t-6.5 -43.5v-337h-128v667z" />
    <glyph glyph-name="i" unicode="i" horiz-adv-x="204" 
d="M166 673v-136h-128v136h128zM38 493h128v-493h-128v493z" />
    <glyph glyph-name="j" unicode="j" horiz-adv-x="204" 
d="M166 673v-136h-128v136h128zM166 493v-477q0 -48 -2 -84t-14.5 -60.5t-38.5 -37t-74 -12.5q-17 0 -27 0.5t-29 2.5v104q18 -2 29 -0.5t17 9t8.5 22.5t2.5 41v492h128z" />
    <glyph glyph-name="k" unicode="k" horiz-adv-x="392" 
d="M38 667h128v-348l99 174h120l-116 -175l125 -318h-133l-67 214l-28 -47v-167h-128v667z" />
    <glyph glyph-name="l" unicode="l" horiz-adv-x="204" 
d="M38 667h128v-667h-128v667z" />
    <glyph glyph-name="m" unicode="m" horiz-adv-x="596" 
d="M38 493h115v-73q17 44 39.5 63.5t61.5 19.5q25 0 41.5 -6t28 -17t19.5 -25.5t14 -30.5q4 15 11 29t17.5 25t26.5 18t40 7q41 0 63 -15t32.5 -38t12 -51t1.5 -53v-346h-125v346q0 9 -0.5 18t-4 16.5t-11 12t-20.5 4.5q-14 0 -22 -6t-11.5 -15.5t-4 -23t-0.5 -28.5v-324
h-125v338q0 12 -0.5 22.5t-4 18.5t-10.5 13t-20 5q-28 0 -33.5 -18.5t-5.5 -46.5v-332h-125v493z" />
    <glyph glyph-name="n" unicode="n" horiz-adv-x="409" 
d="M38 493h114v-73q7 17 16 32t22 26.5t30.5 18t42.5 6.5q42 0 64.5 -14.5t33 -37.5t12 -51t1.5 -55v-345h-128v335q0 13 -0.5 24.5t-4.5 20t-11.5 13.5t-22.5 5q-14 0 -22.5 -5.5t-12.5 -14t-5 -20t-1 -23.5v-335h-128v493z" />
    <glyph glyph-name="o" unicode="o" horiz-adv-x="392" 
d="M194 413q-29 0 -35 -34t-6 -115q0 -45 1 -76.5t3 -54.5q2 -31 12 -42t26 -11q8 0 18 4t15 20q4 10 6 29.5t3 41t1 41.5v35q0 27 -1 51.5t-3 55.5q-1 19 -4.5 30t-9 16.5t-12.5 7t-14 1.5zM196 503q55 0 89 -24.5t53 -62t26 -82.5t7 -86q0 -51 -8 -97.5t-28 -82t-54 -57
t-86 -21.5q-30 0 -53 7t-40 19t-29 28t-21 34q-12 25 -18.5 53t-9.5 52.5t-3.5 42.5t-0.5 24q0 33 5.5 76.5t24 82.5t53 66.5t93.5 27.5z" />
    <glyph glyph-name="p" unicode="p" horiz-adv-x="392" 
d="M163 166q0 -35 4 -58.5t29 -23.5q8 0 17.5 5t14.5 23q4 14 6 33.5t3 39t1 36.5v27q0 24 -0.5 41t-1 30t-1.5 22.5t-2 17.5q-2 17 -10 31.5t-26 14.5q-13 0 -20 -6.5t-10 -16.5t-3.5 -20.5t-0.5 -17.5v-178zM38 493h111v-55q4 7 11.5 17.5t18.5 20.5t26 16.5t35 6.5
q44 0 70 -27.5t39.5 -65.5t17.5 -80t4 -70q0 -17 -1 -42t-5.5 -53.5t-12.5 -58t-21 -54.5q-3 -6 -10 -15.5t-18 -18t-26.5 -14.5t-36.5 -6q-33 0 -50 14t-27 26v-201h-125v660z" />
    <glyph glyph-name="q" unicode="q" horiz-adv-x="392" 
d="M229 349q0 6 -0.5 16t-4 19t-11.5 15.5t-22 6.5q-8 0 -15.5 -3.5t-12.5 -15.5q-5 -15 -7.5 -44t-2.5 -91v-31t1 -36.5t2 -36t4 -29.5q4 -20 10.5 -27.5t19.5 -7.5q14 0 21.5 6.5t11 21t4.5 38t2 56.5v143zM358 493q-3 -28 -3.5 -47t-0.5 -44v-569h-125v202
q-4 -5 -9.5 -12t-14.5 -13.5t-21.5 -11t-30.5 -4.5q-47 0 -74 27t-40 65t-16 79.5t-3 71.5q0 17 1 43.5t5 55.5t12.5 58t24 52.5t39.5 38t58 14.5q24 0 41 -7t29 -18t20.5 -24t14.5 -25l26 68h67z" />
    <glyph glyph-name="r" unicode="r" horiz-adv-x="290" 
d="M38 493h114v-119q4 16 11.5 38t19.5 42t29.5 34.5t42.5 14.5q19 0 34 -3v-135q-27 2 -49.5 -2t-39 -19t-25.5 -42.5t-9 -72.5v-229h-128v493z" />
    <glyph glyph-name="s" unicode="s" horiz-adv-x="358" 
d="M113 152q1 -9 4 -20t9.5 -21t19 -16.5t32.5 -6.5t34.5 9t14.5 29q0 12 -4 21t-13.5 16.5t-26 15.5t-40.5 20q-28 13 -50 27t-37 31.5t-23 39t-8 51.5q0 33 11.5 61.5t32 49t50 32.5t65.5 12q40 0 66 -13.5t42 -33.5t23.5 -42t11.5 -39l-91 -23q-1 6 -3 15.5t-8 18.5
t-16.5 15.5t-27.5 6.5q-26 0 -33.5 -12.5t-7.5 -22.5q0 -12 5.5 -20.5t18 -17t33 -18.5t50.5 -23q35 -16 55 -36t30 -40t12.5 -38.5t2.5 -30.5q0 -42 -14 -72.5t-37.5 -49.5t-53.5 -28t-62 -9q-54 0 -86 18t-49.5 42t-23 48.5t-7.5 37.5z" />
    <glyph glyph-name="t" unicode="t" horiz-adv-x="273" 
d="M72 644l111 8v-159h77v-103h-77v-208q0 -20 1.5 -34.5t6.5 -24t15.5 -14t27.5 -4.5q20 0 32 3v-102q-29 -8 -49.5 -10.5t-32.5 -2.5q-30 0 -59 10t-43 29q-9 13 -14.5 26.5t-8.5 31t-3.5 38.5t-0.5 49v213h-53v103h59z" />
    <glyph glyph-name="u" unicode="u" horiz-adv-x="409" 
d="M371 0h-114v70q-8 -16 -17 -30.5t-22 -25.5t-30.5 -17.5t-41.5 -6.5q-42 0 -64.5 14.5t-33 38t-12 52.5t-1.5 59v339h128v-339q0 -11 0.5 -21.5t4.5 -18.5t11 -13.5t21 -5.5q27 0 35 17.5t8 64.5v316h128v-493z" />
    <glyph glyph-name="v" unicode="v" horiz-adv-x="324" 
d="M-4 493h128l35 -202q3 -16 6 -53t5 -81q2 22 4.5 45.5t5.5 44.5t5 36t3 20l32 190h108l-113 -493h-103z" />
    <glyph glyph-name="w" unicode="w" horiz-adv-x="511" 
d="M-4 493h126l33 -188q2 -12 5.5 -49t5.5 -89q0 5 1.5 24.5t4 44t5 49.5t5.5 41l25 167h119l27 -175q3 -17 7 -60.5t7 -90.5q1 19 3.5 42t5 45t5 41t4.5 31l26 167h104l-107 -493h-99l-40 237q-10 57 -15 122q0 -2 -1 -15.5t-2.5 -31.5l-3 -36t-3.5 -28l-39 -248h-102z" />
    <glyph glyph-name="x" unicode="x" horiz-adv-x="341" 
d="M4 493h140l30 -82q1 -2 5.5 -20.5t6.5 -56.5q2 20 5.5 39.5t10.5 37.5l29 82h113l-106 -227l114 -266h-142l-36 106q-9 25 -10.5 47t-2.5 36q0 -3 -1.5 -13t-3.5 -22.5t-4.5 -25.5t-6.5 -22l-44 -106h-113l122 254z" />
    <glyph glyph-name="y" unicode="y" horiz-adv-x="324" 
d="M212 21q-12 -49 -20.5 -78t-16 -46.5t-17 -26.5t-22.5 -18q-20 -14 -39 -17.5t-33 -3.5t-25 2t-24 5v103q7 -2 16 -4t21 -2q14 0 25 5t18 17t10.5 33t3.5 54l-112 449h128l37 -178q3 -15 5.5 -34t4 -39t2.5 -39.5t2 -35.5q1 19 3.5 44t5.5 51t6.5 50t6.5 42l27 139h104z
" />
    <glyph glyph-name="z" unicode="z" horiz-adv-x="324" 
d="M302 493v-82l-147 -311h153v-100h-283v97l144 303h-129v93h262z" />
    <glyph glyph-name="braceleft" unicode="{" horiz-adv-x="256" 
d="M241 592q-15 0 -26 -2t-17.5 -9.5t-9.5 -22.5t-3 -42v-146q0 -32 -1.5 -51.5t-7.5 -32.5t-17 -20.5t-29 -15.5q18 -8 29 -15.5t17 -20.5t7.5 -32.5t1.5 -51.5v-146q0 -25 2 -40t8 -23t17 -10.5t29 -2.5v-75h-23q-38 0 -65 4t-44 19.5t-25.5 45.5t-8.5 82v146q0 18 -1 32
t-6 23.5t-14.5 14.5t-26.5 5v90q17 0 26.5 5t14.5 14.5t6 23.5t1 32v146q0 55 10 85.5t29 45t45 17.5t59 3h23v-75z" />
    <glyph glyph-name="bar" unicode="|" horiz-adv-x="500" 
d="M314 750v-1000h-128v1000h128z" />
    <glyph glyph-name="braceright" unicode="}" horiz-adv-x="256" 
d="M40 667q31 0 57 -3t45 -17.5t29 -45t10 -85.5v-146q0 -16 0.5 -30t5 -24t14 -15.5t27.5 -5.5l1 -90q-18 0 -28 -5.5t-14.5 -16t-5 -24t-0.5 -29.5v-146q0 -50 -8 -80t-25 -46t-43.5 -20.5t-64.5 -4.5h-25v75q17 0 28 2.5t17 10.5t8.5 22.5t2.5 40.5v146q0 33 2 52.5
t7.5 32t16 20t28.5 15.5q-18 7 -28.5 15t-16 20.5t-7.5 32.5t-2 52v146q0 26 -3 41t-9.5 22.5t-17 10t-26.5 2.5v75h25z" />
    <glyph glyph-name="asciitilde" unicode="~" 
d="M0 294q10 23 16.5 36t10.5 20.5t7.5 12.5t8.5 11q13 15 34 28.5t56 13.5q4 0 10 -0.5t16 -2.5t25.5 -6.5t38.5 -13.5q17 -6 28 -10t19.5 -6.5t14.5 -3.5t14 -1q27 0 40 14t23 31l64 -45q-8 -20 -19 -42t-27.5 -40t-39 -30t-53.5 -12q-5 0 -10 0.5t-14.5 2.5t-24.5 6.5
t-40 13.5q-32 12 -46 16t-26 4q-28 0 -40.5 -16t-23.5 -37z" />
    <glyph glyph-name="exclamdown" unicode="&#xa1;" horiz-adv-x="290" 
d="M80 342v151h131v-151h-131zM70 -174l31 466h86l34 -466h-151z" />
    <glyph glyph-name="cent" unicode="&#xa2;" 
d="M249 -7h-59v107q-11 2 -33.5 9.5t-41.5 27.5q-20 20 -31.5 46.5t-17.5 54t-7.5 53.5t-1.5 45q0 21 3 58t16.5 74.5t40 68t73.5 40.5v94h59v-92q9 -2 23.5 -5t30.5 -11.5t32 -24.5t28 -43q14 -30 15.5 -54t1.5 -41l-114 -7q-1 19 -2.5 36t-5 30t-10.5 20.5t-19 7.5
q-17 0 -24 -13t-9 -25q-2 -10 -3 -28t-2 -35.5t-1 -31.5v-13q0 -57 3 -84t9 -43q2 -5 7 -12t19 -7q20 0 30 20t15 76l108 -8q-1 -85 -35 -130.5t-97 -54.5v-105z" />
    <glyph glyph-name="sterling" unicode="&#xa3;" 
d="M326 309h-82q0 -43 -4 -74t-12.5 -54t-22 -40t-31.5 -31h61q13 0 28.5 1.5t30 10.5t25.5 28t17 55l100 -25q0 -17 -6 -49.5t-36 -73.5q-16 -21 -35 -33t-39 -17t-39.5 -6t-36.5 -1h-233v110h28q22 0 37 5.5t27 35.5q8 21 10.5 46.5t2.5 40.5q0 18 -1 35.5t-3 35.5h-61v96
h50q-2 17 -3.5 30t-1.5 33q0 66 18.5 107t45 63.5t55 30.5t48.5 8q58 0 91 -32t48 -94l-88 -49q-9 42 -19 54.5t-23 12.5q-14 0 -23 -7.5t-13.5 -18.5t-6 -23.5t-1.5 -22.5q0 -12 1.5 -32t6.5 -60h90v-96z" />
    <glyph glyph-name="yen" unicode="&#xa5;" 
d="M396 406v-62h-101l-21 -58h122v-62h-123v-224h-119v224h-132v62h131l-21 58h-110v62h87l-94 261h132l64 -212q8 -23 9.5 -43t3.5 -52q2 17 5.5 44t11.5 50l68 213h107l-97 -261h77z" />
    <glyph glyph-name="florin" unicode="&#x192;" 
d="M28 -32q9 -1 15.5 -1.5t11.5 -0.5q14 0 23 4t15 14t10 28t7 47l39 319h-55l13 106h56q5 45 13.5 81.5t28.5 65.5q15 23 43.5 38t62.5 15q12 0 32 -1.5t31 -8.5l-13 -105q-8 2 -16.5 3t-17.5 1q-23 0 -31 -17.5t-12 -71.5h62l-13 -106h-63l-39 -327q-5 -36 -12 -71
t-23.5 -63t-45.5 -45t-76 -17q-10 0 -26 1t-37 5z" />
    <glyph glyph-name="section" unicode="&#xa7;" 
d="M177 348q-5 -5 -15.5 -17.5t-10.5 -34.5q0 -35 26.5 -57t73.5 -46q7 8 15.5 21.5t8.5 33.5q0 10 -3.5 21t-14 23t-29.5 25.5t-50 30.5h-1zM287 522q-10 42 -25.5 54t-32.5 12q-20 0 -30.5 -7.5t-15 -17t-5.5 -18t-1 -10.5q0 -27 18 -46t38 -29q28 -14 47.5 -24.5
t33.5 -20.5t24.5 -21.5t19.5 -27.5q13 -23 17 -46t4 -42q0 -31 -6 -52.5t-15 -36t-19 -24t-18 -15.5q7 -5 18.5 -15t22 -27t18 -42t7.5 -60q0 -89 -47.5 -136.5t-122.5 -47.5q-58 0 -92.5 19t-52.5 44t-24 49.5t-7 35.5l95 25q3 -12 7 -25.5t13 -25t23 -19.5t36 -8
q21 0 32.5 8.5t17 19.5t6.5 21.5t1 15.5q0 20 -6 33.5t-19 25t-33.5 23t-50.5 26.5q-38 19 -61.5 40.5t-36.5 43.5t-17.5 44t-4.5 42q0 33 8 56.5t18.5 40t22 26.5t19.5 15l-14.5 14.5t-16 22t-12.5 33t-5 46.5q0 38 12 68.5t33 51.5t49.5 32t62.5 11q44 0 72.5 -14
t45.5 -33.5t25 -40.5t12 -35z" />
    <glyph glyph-name="currency" unicode="&#xa4;" 
d="M213 274q25 0 42.5 17t17.5 42q0 26 -17.5 43t-42.5 17q-24 0 -42 -17t-18 -43q0 -25 17.5 -42t42.5 -17zM346 529l63 -63l-58 -58q8 -14 13.5 -29.5t5.5 -44.5q0 -28 -5 -43t-13 -30l58 -59l-66 -65l-58 58q-14 -7 -30 -12.5t-44 -5.5q-27 0 -45 7t-29 12l-58 -58
l-63 63l58 58q-5 11 -12 28.5t-7 46.5q0 28 5.5 43t12.5 29l-58 59l65 65l59 -58q8 4 26 11t47 7t46 -6.5t29 -12.5z" />
    <glyph glyph-name="quotesingle" unicode="'" horiz-adv-x="221" 
d="M58 667h105l-16 -289h-74z" />
    <glyph glyph-name="quotedblleft" unicode="&#x201c;" horiz-adv-x="375" 
d="M213 389v146l62 132h58l-47 -132h47v-146h-120zM42 389v146l62 132h58l-47 -132h47v-146h-120z" />
    <glyph glyph-name="guillemotleft" unicode="&#xab;" horiz-adv-x="375" 
d="M290 259l49 -169h-62l-88 169l88 172h62zM136 259l50 -169h-62l-88 169l88 172h62z" />
    <glyph glyph-name="guilsinglleft" unicode="&#x2039;" horiz-adv-x="222" 
d="M136 259l50 -169h-62l-88 169l88 172h62z" />
    <glyph glyph-name="guilsinglright" unicode="&#x203a;" horiz-adv-x="222" 
d="M97 431l89 -172l-89 -169h-61l49 169l-49 172h61z" />
    <glyph glyph-name="fi" unicode="&#xfb01;" horiz-adv-x="443" 
d="M55 393h-53v100h53q0 29 2 64t15 65t41 50.5t80 20.5q17 0 28.5 -2t20.5 -4v-106q-5 1 -10 1.5t-11 0.5q-14 0 -22 -5t-11.5 -14t-4 -21t-0.5 -25v-25h58v-100h-58v-393h-128v393zM405 673v-136h-128v136h128zM277 493h128v-493h-128v493z" />
    <glyph glyph-name="fl" unicode="&#xfb02;" horiz-adv-x="443" 
d="M55 393h-53v100h53q0 29 2 64t15 65t41 50.5t80 20.5q17 0 28.5 -2t20.5 -4v-106q-5 1 -10 1.5t-11 0.5q-14 0 -22 -5t-11.5 -14t-4 -21t-0.5 -25v-25h58v-100h-58v-393h-128v393zM277 667h128v-667h-128v667z" />
    <glyph glyph-name="endash" unicode="&#x2013;" horiz-adv-x="392" 
d="M356 305v-106h-321v106h321z" />
    <glyph glyph-name="dagger" unicode="&#x2020;" 
d="M275 667v-179h118v-109h-118v-546h-124v546h-118v109h118v179h124z" />
    <glyph glyph-name="daggerdbl" unicode="&#x2021;" 
d="M275 667v-179h118v-109h-118v-258h118v-109h-118v-179h-124v179h-118v109h118v258h-118v109h118v179h124z" />
    <glyph glyph-name="periodcentered" unicode="&#xb7;" horiz-adv-x="222" 
d="M174 405v-146h-127v146h127z" />
    <glyph glyph-name="periodcentered" unicode="&#x22c5;" horiz-adv-x="222" 
d="M174 405v-146h-127v146h127z" />
    <glyph glyph-name="paragraph" unicode="&#xb6;" 
d="M385 -167h-70v755h-49v-755h-70v425q-29 0 -62.5 6t-62.5 27t-48 62.5t-19 112.5q0 23 3.5 47.5t12 47.5t23 43.5t35.5 35.5q29 20 68.5 23.5t72.5 3.5h166v-834z" />
    <glyph glyph-name="bullet" unicode="&#x2022;" horiz-adv-x="134" 
d="M134 420v-153h-134v153h134z" />
    <glyph glyph-name="quotesinglbase" unicode="&#x201a;" horiz-adv-x="221" 
d="M171 146v-146l-62 -132h-58l47 132h-47v146h120z" />
    <glyph glyph-name="quotedblbase" unicode="&#x201e;" horiz-adv-x="375" 
d="M333 146v-146l-62 -132h-58l47 132h-47v146h120zM162 146v-146l-62 -132h-58l47 132h-47v146h120z" />
    <glyph glyph-name="quotedblright" unicode="&#x201d;" horiz-adv-x="375" 
d="M333 667v-146l-62 -132h-58l47 132h-47v146h120zM162 667v-146l-62 -132h-58l47 132h-47v146h120z" />
    <glyph glyph-name="guillemotright" unicode="&#xbb;" horiz-adv-x="375" 
d="M251 431l88 -172l-88 -169h-62l50 169l-50 172h62zM97 431l89 -172l-89 -169h-61l49 169l-49 172h61z" />
    <glyph glyph-name="ellipsis" unicode="&#x2026;" horiz-adv-x="665" 
d="M618 146v-146h-127v146h127zM396 146v-146h-127v146h127zM174 146v-146h-127v146h127z" />
    <glyph glyph-name="perthousand" unicode="&#x2030;" horiz-adv-x="767" 
d="M640 263q-6 0 -13.5 -3.5t-10.5 -23.5q-2 -14 -2.5 -28.5t-0.5 -43.5t0.5 -44t2.5 -29q2 -9 6 -18t15 -9q12 0 15 9q3 6 4 18t2 25.5t1 26.5v21v15t-0.5 20t-1 22.5t-1.5 21.5q-2 6 -5 13t-11 7zM638 337q39 0 60.5 -24t31.5 -55t12 -59t2 -37q0 -15 -2.5 -43.5t-13 -56
t-32 -48.5t-59.5 -21q-21 0 -40.5 9t-34.5 29t-24 51.5t-9 77.5q0 16 2.5 45.5t13.5 59t33 51t60 21.5zM401 263q-6 0 -13.5 -3.5t-10.5 -23.5q-2 -13 -2.5 -28t-0.5 -44q0 -30 0.5 -45t2.5 -28q2 -10 6 -18.5t15 -8.5q12 0 15 9q3 6 4 18t2 25.5t1 26.5v21q0 36 -1 53
t-3 26q-1 7 -4 13.5t-11 6.5zM399 337q27 0 45 -11.5t29.5 -29.5t18 -39.5t9.5 -40.5t3.5 -34t0.5 -19q0 -15 -2.5 -43.5t-13 -56.5t-32 -49t-59.5 -21q-21 0 -40.5 9t-34.5 28.5t-24 51.5t-9 78q0 15 2.5 44.5t13.5 59t32.5 51.5t60.5 22zM134 600q-6 0 -13.5 -3.5
t-10.5 -23.5q-2 -12 -2.5 -26.5t-0.5 -45.5t0.5 -45.5t2.5 -27.5q2 -9 6 -18t15 -9q12 0 15 9q3 6 4 18t2 25.5t1 26.5v21v14t-0.5 20t-1.5 23t-2 22q-1 4 -3.5 12t-11.5 8zM132 674q26 0 44.5 -11.5t30 -29.5t18 -39.5t9.5 -41t3.5 -34t0.5 -19.5q0 -16 -2.5 -44.5
t-13.5 -56t-32.5 -48t-58.5 -20.5q-21 0 -40.5 9t-34.5 29t-24 52t-9 77q0 18 3 48t14 58.5t32.5 49.5t59.5 21zM369 667h61l-269 -667h-61z" />
    <glyph glyph-name="questiondown" unicode="&#xbf;" 
d="M151 349v144h123v-144h-123zM272 302v-29q0 -31 -2 -51.5t-8 -36.5t-16 -30t-26 -31q-20 -20 -35 -44t-15 -70q0 -27 5 -42t12 -22.5t15.5 -9t14.5 -1.5q20 0 31 7.5t16.5 21.5t7.5 34.5t3 46.5l112 -18q2 -46 -7 -79.5t-24 -56.5t-35 -38t-40.5 -23t-40 -11t-33.5 -3
q-29 0 -59 9t-55 30.5t-40.5 57t-15.5 87.5q0 38 7 66.5t18.5 50.5t26.5 39.5t31 33.5q12 12 20 21t12.5 18t6.5 20.5t2 29.5v23h111z" />
    <glyph glyph-name="grave" unicode="`" horiz-adv-x="460" 
d="M165 714l137 -131l-40 -43l-154 108z" />
    <glyph glyph-name="acute" unicode="&#xb4;" horiz-adv-x="460" 
d="M205 540l-40 43l137 131l57 -66z" />
    <glyph glyph-name="circumflex" unicode="&#x2c6;" horiz-adv-x="460" 
d="M168 555h-86l149 143l147 -143h-87l-60 47z" />
    <glyph glyph-name="tilde" unicode="&#x2dc;" horiz-adv-x="460" 
d="M362 640q-4 -8 -11 -21t-17.5 -25t-24.5 -21t-32 -9q-15 0 -31 7t-21 11q-17 10 -26 15t-14 7.5t-7.5 3t-6.5 0.5q-11 0 -19.5 -8t-17.5 -22l-33 30q5 8 12.5 19.5t17.5 22.5t23 19t28 8q6 0 10.5 -1t11.5 -4t18.5 -9t30.5 -16q8 -5 17.5 -9.5t19.5 -4.5q8 0 16 7t21 30z
" />
    <glyph glyph-name="macron" unicode="&#xaf;" horiz-adv-x="460" 
d="M342 651v-69h-212v69h212z" />
    <glyph glyph-name="macron" unicode="&#x2c9;" horiz-adv-x="460" 
d="M342 651v-69h-212v69h212z" />
    <glyph glyph-name="breve" unicode="&#x2d8;" horiz-adv-x="460" 
d="M165 674q4 -11 17.5 -24.5t47.5 -14.5q17 0 28 3.5t18.5 8.5t11.5 12t8 15h61q-3 -11 -9.5 -29t-20 -35.5t-37 -30t-59.5 -12.5q-37 0 -60.5 12.5t-37.5 30t-20 35.5t-9 29h61z" />
    <glyph glyph-name="dotaccent" unicode="&#x2d9;" horiz-adv-x="460" 
d="M230 561q-23 0 -41 16.5t-18 42.5q0 25 17 42t42 17t42 -17t17 -42q0 -26 -18 -42.5t-41 -16.5z" />
    <glyph glyph-name="dieresis" unicode="&#xa8;" horiz-adv-x="460" 
d="M298 569q-20 0 -36 14.5t-16 37.5q0 21 15 36t37 15q20 0 35.5 -14.5t15.5 -36.5q0 -23 -15.5 -37.5t-35.5 -14.5zM162 569q-20 0 -36 14.5t-16 37.5q0 22 15 36.5t37 14.5q21 0 36 -15t15 -36q0 -23 -15.5 -37.5t-35.5 -14.5z" />
    <glyph glyph-name="ring" unicode="&#x2da;" horiz-adv-x="460" 
d="M230 594q12 0 24.5 9.5t12.5 26.5q0 16 -11 26.5t-26 10.5t-26 -11t-11 -25q0 -17 12.5 -27t24.5 -10zM230 535q-18 0 -35.5 7t-31 19.5t-21.5 30.5t-8 39q0 40 28 67.5t68 27.5t68 -27.5t28 -67.5q0 -21 -8 -39t-21.5 -30.5t-30.5 -19.5t-36 -7z" />
    <glyph glyph-name="cedilla" unicode="&#xb8;" horiz-adv-x="460" 
d="M242 -48q25 3 42 -2t27.5 -15t15.5 -24t5 -28q0 -23 -9 -39t-23 -26t-30 -14t-31 -4q-14 0 -38 5.5t-45 19.5l13 40q19 -9 32.5 -12.5t24.5 -3.5q14 0 25 7.5t11 24.5q0 14 -10 25.5t-36 11.5h-11q-5 0 -15 -2l27 84h39z" />
    <glyph glyph-name="hungarumlaut" unicode="&#x2dd;" horiz-adv-x="460" 
d="M304 545l-44 38l99 125l52 -59zM162 545l-44 38l99 125l52 -59z" />
    <glyph glyph-name="ogonek" unicode="&#x2db;" horiz-adv-x="460" 
d="M358 -167q-19 -8 -37 -9.5t-25 -1.5q-51 0 -80.5 23.5t-29.5 59.5q0 20 8.5 35.5t20 27.5t23.5 19.5l20 12.5h44q-14 -14 -28.5 -33.5t-14.5 -47.5t16 -39.5t39 -11.5q10 0 18.5 1t16.5 3z" />
    <glyph glyph-name="caron" unicode="&#x2c7;" horiz-adv-x="460" 
d="M291 692h87l-147 -144l-149 144h86l63 -48z" />
    <glyph glyph-name="emdash" unicode="&#x2014;" horiz-adv-x="562" 
d="M527 305v-106h-492v106h492z" />
    <glyph glyph-name="AE" unicode="&#xc6;" horiz-adv-x="630" 
d="M278 262v212q0 8 0.5 24.5t1.5 35l2 37t2 30.5q-7 -32 -14 -63.5t-16 -63.5l-64 -212h88zM619 667v-117h-213v-155h165v-111h-165v-167h213v-117h-341v153h-121l-49 -153h-115l216 667h410z" />
    <glyph glyph-name="ordfeminine" unicode="&#xaa;" horiz-adv-x="409" 
d="M191 403q23 0 27.5 24t3.5 67q-33 -5 -43.5 -21t-10.5 -36q0 -13 4.5 -23.5t18.5 -10.5zM319 414v-29t0.5 -18t1.5 -12t3 -11h-83q-2 5 -4 12t-1 28q-12 -20 -33 -33.5t-52 -13.5q-8 0 -22 2t-28 11t-24 27t-10 51q0 6 1 16t4.5 22t12 25t23.5 25q22 17 48 22.5t58 7.5
q-1 38 -4.5 50t-20.5 12q-10 0 -15.5 -4t-8.5 -10.5t-4.5 -13.5t-1.5 -13l-82 8q6 48 35 75t89 27q22 0 51.5 -6.5t49.5 -30.5q13 -15 15 -40.5t2 -53.5v-132z" />
    <glyph glyph-name="Oslash" unicode="&#xd8;" horiz-adv-x="477" 
d="M194 120q9 -11 21.5 -14t25.5 -3q17 0 28 5t18.5 13.5t11.5 19.5t6 23q3 16 5 39.5t2.5 48.5t1 49.5t0.5 41.5q0 53 -1.5 79t-2.5 40zM285 545q-5 7 -14 13t-32 6q-24 0 -39 -12.5t-23 -40t-11 -71.5t-3 -108q0 -38 1.5 -68.5t4.5 -58.5zM349 705h61l-33 -86
q23 -28 36.5 -61.5t19.5 -68.5q8 -44 11 -84.5t3 -75.5q0 -69 -8.5 -130.5t-32 -108t-64.5 -73.5t-105 -27q-36 0 -56.5 6.5t-33.5 12.5l-19 -50h-61l33 87q-15 19 -28 43.5t-22.5 59t-14.5 80.5t-5 106q0 64 8 125.5t30.5 109.5t63.5 77.5t107 29.5q38 0 58 -7t34 -13z" />
    <glyph glyph-name="OE" unicode="&#x152;" horiz-adv-x="681" 
d="M324 552q-14 7 -27.5 12t-36.5 5q-18 0 -34 -7.5t-28 -33.5q-8 -18 -12.5 -44.5t-7 -55.5t-3 -57t-0.5 -48q0 -9 0.5 -30t2 -46.5t5 -51.5t9.5 -45q7 -22 20 -37t45 -15q26 0 41.5 7t25.5 13v434zM461 396h161v-111h-161v-168h209v-117h-270q-43 0 -80.5 -5t-84.5 -5
q-46 0 -90.5 23t-73.5 82q-15 32 -23.5 70t-12.5 73t-4.5 61t-0.5 34q0 45 4.5 89.5t14.5 89.5q13 57 38 90t53.5 49.5t57.5 21t50 4.5q42 0 82 -5t92 -5h248v-117h-209v-154z" />
    <glyph glyph-name="ordmasculine" unicode="&#xba;" 
d="M212 610q-11 0 -14.5 -6t-5.5 -14q-1 -6 -1.5 -16t-1 -19.5t-0.5 -18.5v-11q0 -38 0.5 -58t1.5 -33q2 -21 9 -25t14 -4q2 0 7 1.5t9 9.5q2 7 3.5 20t2 27.5t0.5 28.5v22v16t-0.5 23t-1.5 22.5t-2 16.5q-2 12 -7 15t-13 3zM213 677q36 0 60.5 -14t39.5 -37.5t21 -54
t6 -63.5q0 -35 -6 -66t-21 -54t-39.5 -36.5t-61.5 -13.5q-44 0 -67 16.5t-37 42.5q-9 16 -13.5 34.5t-6.5 34.5t-2.5 27.5t-0.5 15.5q0 19 3.5 48t17 55.5t38.5 45.5t69 19z" />
    <glyph glyph-name="ae" unicode="&#xe6;" horiz-adv-x="579" 
d="M143 141q0 -9 1 -19.5t4.5 -19.5t11 -15.5t19.5 -6.5q17 0 25.5 10t10.5 20q6 23 6.5 54.5t0.5 73.5q-25 -4 -40.5 -12.5t-24 -21.5t-11.5 -29t-3 -34zM450 306q-1 54 -10.5 80.5t-35.5 26.5q-17 0 -27 -10.5t-15 -26.5t-7 -35t-3 -35h98zM353 225q0 -45 4 -72t11 -41
t17 -18.5t22 -4.5q11 0 19.5 3.5t14.5 12.5t10.5 24.5t7.5 40.5l106 -9q-2 -32 -11.5 -62.5t-29 -54.5t-49.5 -39t-73 -15q-52 0 -79 20.5t-46 58.5q-29 -48 -64.5 -63.5t-77.5 -15.5q-35 0 -58 11t-36.5 30t-19.5 44t-6 53q0 37 10 64t24 44.5t28.5 27.5t22.5 15
q26 14 55 19.5t67 8.5q-1 55 -6 79t-29 24q-14 0 -22.5 -8t-13 -19.5t-6 -24t-2.5 -21.5l-113 13q3 43 19 72.5t39.5 47.5t49.5 25.5t49 7.5q27 0 45.5 -6.5t31 -15.5t19.5 -18.5t10 -15.5q11 12 21.5 22.5t23.5 18t29 11.5t39 4q54 0 88.5 -29t52.5 -71q8 -19 12.5 -43
t7 -48t3 -47t0.5 -40h-217z" />
    <glyph glyph-name="dotlessi" unicode="&#x131;" horiz-adv-x="204" 
d="M38 493h128v-493h-128v493z" />
    <glyph glyph-name="oslash" unicode="&#xf8;" horiz-adv-x="392" 
d="M162 85q5 -4 11.5 -7.5t22.5 -3.5q3 0 8 0.5t11 2.5t11.5 7t9.5 14q4 11 6.5 31.5t4 43.5t1.5 45v38q0 28 -0.5 43t-1.5 29zM231 405q-5 5 -12 9.5t-24 4.5q-36 0 -44 -34.5t-8 -110.5v-58t2 -57zM284 544h55l-32 -83q35 -37 49.5 -92.5t14.5 -121.5q0 -45 -7 -91
t-26.5 -82.5t-53.5 -60t-88 -23.5q-16 0 -33 2t-34 9l-22 -58h-55l33 86q-20 21 -32.5 47.5t-18.5 54.5q-8 32 -11 62t-3 56q0 36 6 80t25 83t53.5 65t91.5 26q35 0 67 -13z" />
    <glyph glyph-name="oe" unicode="&#x153;" horiz-adv-x="596" 
d="M467 306q0 52 -10 79.5t-36 27.5q-16 0 -25.5 -9.5t-15.5 -24.5t-8 -34.5t-3 -38.5h98zM198 413q-33 0 -39 -36.5t-6 -112.5q0 -56 1 -85t3 -46q2 -29 13 -41t28 -12q6 0 17 3t17 20q4 11 6 30t3 40.5t1 41.5v35q0 49 -3 108q-2 19 -6 30.5t-9.5 16.5t-12.5 6.5t-13 1.5z
M370 225q0 -45 4 -72t11 -41.5t17 -18.5t22 -4q23 0 34.5 16t17.5 65l106 -9q-5 -78 -47 -124.5t-112 -46.5q-25 0 -44.5 6t-34 14t-24.5 17.5t-16 15.5q-18 -21 -42 -37t-70 -16q-57 0 -91 28t-52 68.5t-23.5 85t-5.5 77.5q0 25 4.5 67.5t22 84t53 72t97.5 30.5
q25 0 43.5 -6.5t32.5 -16t24 -21t18 -21.5q20 32 46.5 48.5t64.5 16.5q10 0 27.5 -3t37 -13t39 -29.5t34.5 -53.5q8 -20 12.5 -43.5t7 -47.5t3 -47t0.5 -41h-217z" />
    <glyph glyph-name="germandbls" unicode="&#xdf;" horiz-adv-x="460" 
d="M48 -57v399h-52v106h52v39q0 51 14 92.5t40 70t63 44t83 15.5q51 0 82.5 -18.5t49 -44t23.5 -53t6 -45.5q0 -22 -8 -50.5t-31 -51.5q-20 -20 -39 -26.5t-36 -11.5q1 -8 3 -14t8.5 -13.5t18 -16.5t30.5 -22q19 -14 36.5 -28.5t31 -33t21 -43t7.5 -58.5q0 -32 -7.5 -65
t-26 -61t-49.5 -45.5t-79 -17.5q-8 0 -32.5 2.5t-53.5 17.5l27 94q28 -13 55 -13q17 0 26.5 8.5t14 19.5t5.5 22.5t1 16.5q0 35 -14 54.5t-46 41.5q-13 9 -25 18.5t-21.5 22t-15 30.5t-5.5 44q0 22 5.5 50t21.5 54q23 4 40 16.5t17 53.5q0 9 -2 21t-7.5 22.5t-16.5 17.5
t-29 7q-23 0 -35.5 -11t-18.5 -30t-7 -43t-1 -51v-533h-124z" />
    <glyph glyph-name="degree" unicode="&#xb0;" 
d="M214 602q-17 0 -29.5 -7t-20.5 -17.5t-12 -24t-4 -25.5q0 -29 18 -52t47 -23q30 0 47.5 23t17.5 52t-17.5 51.5t-46.5 22.5zM212 677q31 0 58.5 -12t47.5 -32.5t31.5 -47.5t11.5 -57q0 -32 -12.5 -59.5t-33 -47.5t-47 -31.5t-55.5 -11.5t-55.5 11t-47 31t-33 47.5
t-12.5 60.5q0 32 12.5 59.5t33 47.5t47 31t54.5 11z" />
    <glyph glyph-name="oacute" unicode="&#xf3;" horiz-adv-x="392" 
d="M171 540l-40 43l137 131l57 -66zM194 413q-29 0 -35 -34t-6 -115q0 -45 1 -76.5t3 -54.5q2 -31 12 -42t26 -11q8 0 18 4t15 20q4 10 6 29.5t3 41t1 41.5v35q0 27 -1 51.5t-3 55.5q-1 19 -4.5 30t-9 16.5t-12.5 7t-14 1.5zM196 503q55 0 89 -24.5t53 -62t26 -82.5t7 -86
q0 -51 -8 -97.5t-28 -82t-54 -57t-86 -21.5q-30 0 -53 7t-40 19t-29 28t-21 34q-12 25 -18.5 53t-9.5 52.5t-3.5 42.5t-0.5 24q0 33 5.5 76.5t24 82.5t53 66.5t93.5 27.5z" />
    <glyph glyph-name="Odieresis" unicode="&#xd6;" horiz-adv-x="477" 
d="M302 720q-22 0 -39 15t-17 40q0 24 16.5 40t39.5 16t39 -16t16 -39q0 -25 -16.5 -40.5t-38.5 -15.5zM158 720q-21 0 -38 15t-17 40q0 24 16 40t39 16t39.5 -16t16.5 -39q0 -25 -16.5 -40.5t-39.5 -15.5zM237 558q-16 0 -28 -9.5t-20 -32.5q-9 -25 -11.5 -75.5
t-2.5 -113.5q0 -43 1.5 -88.5t10.5 -80.5q5 -20 16 -34.5t37 -14.5q28 0 38.5 16.5t15.5 42.5q3 17 4.5 45t2.5 55t1 48v24v39t-1.5 49t-4 48.5t-7.5 38.5q-8 25 -20 34t-32 9zM240 677q60 0 100 -26t64 -72.5t33.5 -110t9.5 -139.5q0 -74 -9.5 -136t-33.5 -107t-64.5 -70.5
t-102.5 -25.5q-39 0 -66.5 10t-45 23t-27 25.5t-12.5 17.5q-32 53 -44 123.5t-12 151.5q0 76 10.5 138.5t35.5 106t65 67.5t99 24z" />
    <glyph glyph-name="odieresis" unicode="&#xf6;" horiz-adv-x="392" 
d="M264 569q-20 0 -36 14.5t-16 37.5q0 21 15 36t37 15q20 0 35.5 -14.5t15.5 -36.5q0 -23 -15.5 -37.5t-35.5 -14.5zM128 569q-20 0 -36 14.5t-16 37.5q0 22 15 36.5t37 14.5q21 0 36 -15t15 -36q0 -23 -15.5 -37.5t-35.5 -14.5zM194 413q-29 0 -35 -34t-6 -115
q0 -45 1 -76.5t3 -54.5q2 -31 12 -42t26 -11q8 0 18 4t15 20q4 10 6 29.5t3 41t1 41.5v35q0 27 -1 51.5t-3 55.5q-1 19 -4.5 30t-9 16.5t-12.5 7t-14 1.5zM196 503q55 0 89 -24.5t53 -62t26 -82.5t7 -86q0 -51 -8 -97.5t-28 -82t-54 -57t-86 -21.5q-30 0 -53 7t-40 19
t-29 28t-21 34q-12 25 -18.5 53t-9.5 52.5t-3.5 42.5t-0.5 24q0 33 5.5 76.5t24 82.5t53 66.5t93.5 27.5z" />
    <glyph glyph-name="Eacute" unicode="&#xc9;" horiz-adv-x="409" 
d="M183 708l-29 57l180 97l40 -84zM188 395h161v-111h-161v-167h210v-117h-347v667h347v-117h-210v-155z" />
    <glyph glyph-name="ucircumflex" unicode="&#xfb;" horiz-adv-x="409" 
d="M143 555h-86l149 143l147 -143h-87l-60 47zM371 0h-114v70q-8 -16 -17 -30.5t-22 -25.5t-30.5 -17.5t-41.5 -6.5q-42 0 -64.5 14.5t-33 38t-12 52.5t-1.5 59v339h128v-339q0 -11 0.5 -21.5t4.5 -18.5t11 -13.5t21 -5.5q27 0 35 17.5t8 64.5v316h128v-493z" />
    <glyph glyph-name="logicalnot" unicode="&#xac;" 
d="M288 362h-255v106h361v-269h-106v163z" />
    <glyph glyph-name="Ecircumflex" unicode="&#xca;" horiz-adv-x="409" 
d="M136 709h-93l173 153l171 -153h-93l-78 51zM188 395h161v-111h-161v-167h210v-117h-347v667h347v-117h-210v-155z" />
    <glyph glyph-name="Otilde" unicode="&#xd5;" horiz-adv-x="477" 
d="M373 803q-4 -9 -11.5 -23.5t-19 -28t-27 -23.5t-34.5 -10q-9 0 -18 2.5t-17 6t-13.5 7t-7.5 5.5q-18 11 -28 17t-15.5 8.5t-8.5 3t-7 0.5q-13 0 -22 -10t-18 -24l-35 32q11 24 23.5 39.5t24.5 24.5t22 12.5t16 3.5t11.5 -1t13.5 -4.5t20 -10t33 -18.5q8 -5 18.5 -9.5
t21.5 -4.5q9 0 17.5 7t21.5 32zM237 558q-16 0 -28 -9.5t-20 -32.5q-9 -25 -11.5 -75.5t-2.5 -113.5q0 -43 1.5 -88.5t10.5 -80.5q5 -20 16 -34.5t37 -14.5q28 0 38.5 16.5t15.5 42.5q3 17 4.5 45t2.5 55t1 48v24v39t-1.5 49t-4 48.5t-7.5 38.5q-8 25 -20 34t-32 9zM240 677
q60 0 100 -26t64 -72.5t33.5 -110t9.5 -139.5q0 -74 -9.5 -136t-33.5 -107t-64.5 -70.5t-102.5 -25.5q-39 0 -66.5 10t-45 23t-27 25.5t-12.5 17.5q-32 53 -44 123.5t-12 151.5q0 76 10.5 138.5t35.5 106t65 67.5t99 24z" />
    <glyph glyph-name="uacute" unicode="&#xfa;" horiz-adv-x="409" 
d="M180 540l-40 43l137 131l57 -66zM371 0h-114v70q-8 -16 -17 -30.5t-22 -25.5t-30.5 -17.5t-41.5 -6.5q-42 0 -64.5 14.5t-33 38t-12 52.5t-1.5 59v339h128v-339q0 -11 0.5 -21.5t4.5 -18.5t11 -13.5t21 -5.5q27 0 35 17.5t8 64.5v316h128v-493z" />
    <glyph glyph-name="eacute" unicode="&#xe9;" horiz-adv-x="375" 
d="M163 540l-40 43l137 131l57 -66zM246 306q-1 58 -12 82.5t-34 24.5q-18 0 -28 -11t-15.5 -27t-7 -35t-2.5 -34h99zM148 225q-2 -66 8 -101t46 -35q28 0 38 22t15 59l105 -9q-2 -31 -11.5 -61.5t-28.5 -55t-49 -39.5t-73 -15q-49 0 -83 18t-55 51t-30.5 80t-9.5 104
q0 45 7.5 91.5t27.5 84t54 61t88 23.5q31 0 54.5 -8.5t41 -22.5t29.5 -32t20 -37q9 -20 13.5 -44t6.5 -48.5t2.5 -47t0.5 -38.5h-217z" />
    <glyph glyph-name="iacute" unicode="&#xed;" horiz-adv-x="204" 
d="M77 540l-40 43l137 131l57 -66zM38 493h128v-493h-128v493z" />
    <glyph glyph-name="Egrave" unicode="&#xc8;" horiz-adv-x="409" 
d="M127 862l179 -97l-29 -57l-191 70zM188 395h161v-111h-161v-167h210v-117h-347v667h347v-117h-210v-155z" />
    <glyph glyph-name="icircumflex" unicode="&#xee;" horiz-adv-x="204" 
d="M40 555h-86l149 143l147 -143h-87l-60 47zM38 493h128v-493h-128v493z" />
    <glyph glyph-name="mu" unicode="&#xb5;" horiz-adv-x="409" 
d="M371 0h-114v69q-2 -14 -5 -28t-8.5 -24.5t-15.5 -17t-25 -6.5t-24.5 6.5t-15.5 17t-9 24t-5 28.5v-236h-114v660h128v-316q0 -42 8 -62t32 -20q23 0 31.5 18.5t8.5 63.5v316h128v-493z" />
    <glyph glyph-name="mu" unicode="&#x3bc;" horiz-adv-x="409" 
d="M371 0h-114v69q-2 -14 -5 -28t-8.5 -24.5t-15.5 -17t-25 -6.5t-24.5 6.5t-15.5 17t-9 24t-5 28.5v-236h-114v660h128v-316q0 -42 8 -62t32 -20q23 0 31.5 18.5t8.5 63.5v316h128v-493z" />
    <glyph glyph-name="Aring" unicode="&#xc5;" 
d="M215 750q12 0 24 9t12 26q0 15 -11 25.5t-25 10.5q-15 0 -25.5 -10.5t-10.5 -25.5q0 -16 11.5 -25.5t24.5 -9.5zM215 690q-19 0 -36 7t-30.5 19.5t-21.5 30t-8 38.5q0 41 28 68.5t68 27.5q41 0 68.5 -27.5t27.5 -67.5q0 -21 -8 -39t-21.5 -30.5t-30.5 -19.5t-36 -7z
M256 252l-37 178q-5 20 -8.5 43.5t-5.5 68.5q-3 -21 -6.5 -48t-9.5 -58l-36 -184h103zM285 667l151 -667h-138l-27 144h-132l-26 -144h-123l153 667h142z" />
    <glyph glyph-name="Ydieresis" unicode="&#x178;" horiz-adv-x="409" 
d="M287 720q-22 0 -39 15t-17 40q0 24 16.5 40t39.5 16t39 -16t16 -39q0 -25 -16.5 -40.5t-38.5 -15.5zM143 720q-21 0 -38 15t-17 40q0 24 16 40t39 16t39.5 -16t16.5 -39q0 -25 -16.5 -40.5t-39.5 -15.5zM127 274l-133 393h144l58 -212q8 -29 10 -57t2 -49q2 26 5.5 53
t11.5 53l64 212h123l-148 -393v-274h-137v274z" />
    <glyph glyph-name="trademark" unicode="&#x2122;" horiz-adv-x="630" 
d="M261 667h118l31 -160q3 -17 5 -35t4 -28q2 13 5.5 35t6.5 36l35 152h115v-380h-85v216q0 4 0.5 12.5t1 17.5t1 16t0.5 9q0 -3 -1.5 -10.5t-3 -16t-2.5 -15.5t-2 -10l-48 -219h-57l-46 222q-3 16 -4.5 23.5t-4.5 25.5q0 -3 0.5 -9.5t1 -14t1 -14t0.5 -8.5v-225h-72v380z
M168 287h-89v304h-64v76h219v-76h-66v-304z" />
    <glyph glyph-name="registered" unicode="&#xae;" horiz-adv-x="460" 
d="M230 623q-30 0 -56.5 -11.5t-46.5 -32t-31.5 -48t-11.5 -58.5q0 -32 12 -59t32 -46.5t46.5 -31t55.5 -11.5t55.5 11.5t46.5 31.5t32 47t12 58t-11.5 58.5t-31.5 47.5t-46.5 32t-56.5 12zM230 674q41 0 77.5 -15.5t63.5 -43t43 -64t16 -78.5t-16 -78.5t-43.5 -63t-64 -42
t-76.5 -15.5q-41 0 -77.5 15.5t-63.5 42t-43 63t-16 78.5t16 78.5t43 64t63.5 43t77.5 15.5zM216 492q18 0 28.5 3.5t10.5 23.5t-10.5 23.5t-28.5 3.5v-54zM162 586h66q9 0 22 -1t26 -7t22 -19.5t9 -38.5q0 -29 -10 -41.5t-20 -17.5l37 -94h-57l-27 83h-14v-83h-54v219z" />
    <glyph glyph-name="ocircumflex" unicode="&#xf4;" horiz-adv-x="392" 
d="M134 555h-86l149 143l147 -143h-87l-60 47zM194 413q-29 0 -35 -34t-6 -115q0 -45 1 -76.5t3 -54.5q2 -31 12 -42t26 -11q8 0 18 4t15 20q4 10 6 29.5t3 41t1 41.5v35q0 27 -1 51.5t-3 55.5q-1 19 -4.5 30t-9 16.5t-12.5 7t-14 1.5zM196 503q55 0 89 -24.5t53 -62
t26 -82.5t7 -86q0 -51 -8 -97.5t-28 -82t-54 -57t-86 -21.5q-30 0 -53 7t-40 19t-29 28t-21 34q-12 25 -18.5 53t-9.5 52.5t-3.5 42.5t-0.5 24q0 33 5.5 76.5t24 82.5t53 66.5t93.5 27.5z" />
    <glyph glyph-name="Agrave" unicode="&#xc0;" 
d="M97 862l179 -97l-29 -57l-191 70zM256 252l-37 178q-5 20 -8.5 43.5t-5.5 68.5q-3 -21 -6.5 -48t-9.5 -58l-36 -184h103zM285 667l151 -667h-138l-27 144h-132l-26 -144h-123l153 667h142z" />
    <glyph glyph-name="Ugrave" unicode="&#xd9;" horiz-adv-x="477" 
d="M127 862l179 -97l-29 -57l-191 70zM182 667v-425q0 -31 2 -55.5t9 -41t20.5 -25t36.5 -8.5q24 0 37.5 10.5t20 29t7.5 43.5t1 54v418h116v-418q0 -44 -4 -90t-22.5 -83.5t-57 -61.5t-107.5 -24q-57 0 -95 14.5t-60.5 45t-31.5 77.5t-9 111v429h137z" />
    <glyph glyph-name="Edieresis" unicode="&#xcb;" horiz-adv-x="409" 
d="M287 720q-22 0 -39 15t-17 40q0 24 16.5 40t39.5 16t39 -16t16 -39q0 -25 -16.5 -40.5t-38.5 -15.5zM143 720q-21 0 -38 15t-17 40q0 24 16 40t39 16t39.5 -16t16.5 -39q0 -25 -16.5 -40.5t-39.5 -15.5zM188 395h161v-111h-161v-167h210v-117h-347v667h347v-117h-210
v-155z" />
    <glyph glyph-name="Uacute" unicode="&#xda;" horiz-adv-x="477" 
d="M223 708l-29 57l180 97l40 -84zM182 667v-425q0 -31 2 -55.5t9 -41t20.5 -25t36.5 -8.5q24 0 37.5 10.5t20 29t7.5 43.5t1 54v418h116v-418q0 -44 -4 -90t-22.5 -83.5t-57 -61.5t-107.5 -24q-57 0 -95 14.5t-60.5 45t-31.5 77.5t-9 111v429h137z" />
    <glyph glyph-name="otilde" unicode="&#xf5;" horiz-adv-x="392" 
d="M328 640q-4 -8 -11 -21t-17.5 -25t-24.5 -21t-32 -9q-15 0 -31 7t-21 11q-17 10 -26 15t-14 7.5t-7.5 3t-6.5 0.5q-11 0 -19.5 -8t-17.5 -22l-33 30q5 8 12.5 19.5t17.5 22.5t23 19t28 8q6 0 10.5 -1t11.5 -4t18.5 -9t30.5 -16q8 -5 17.5 -9.5t19.5 -4.5q8 0 16 7t21 30z
M194 413q-29 0 -35 -34t-6 -115q0 -45 1 -76.5t3 -54.5q2 -31 12 -42t26 -11q8 0 18 4t15 20q4 10 6 29.5t3 41t1 41.5v35q0 27 -1 51.5t-3 55.5q-1 19 -4.5 30t-9 16.5t-12.5 7t-14 1.5zM196 503q55 0 89 -24.5t53 -62t26 -82.5t7 -86q0 -51 -8 -97.5t-28 -82t-54 -57
t-86 -21.5q-30 0 -53 7t-40 19t-29 28t-21 34q-12 25 -18.5 53t-9.5 52.5t-3.5 42.5t-0.5 24q0 33 5.5 76.5t24 82.5t53 66.5t93.5 27.5z" />
    <glyph glyph-name="ntilde" unicode="&#xf1;" horiz-adv-x="409" 
d="M337 640q-4 -8 -11 -21t-17.5 -25t-24.5 -21t-32 -9q-15 0 -31 7t-21 11q-17 10 -26 15t-14 7.5t-7.5 3t-6.5 0.5q-11 0 -19.5 -8t-17.5 -22l-33 30q5 8 12.5 19.5t17.5 22.5t23 19t28 8q6 0 10.5 -1t11.5 -4t18.5 -9t30.5 -16q8 -5 17.5 -9.5t19.5 -4.5q8 0 16 7t21 30z
M38 493h114v-73q7 17 16 32t22 26.5t30.5 18t42.5 6.5q42 0 64.5 -14.5t33 -37.5t12 -51t1.5 -55v-345h-128v335q0 13 -0.5 24.5t-4.5 20t-11.5 13.5t-22.5 5q-14 0 -22.5 -5.5t-12.5 -14t-5 -20t-1 -23.5v-335h-128v493z" />
    <glyph glyph-name="ydieresis" unicode="&#xff;" horiz-adv-x="324" 
d="M230 569q-20 0 -36 14.5t-16 37.5q0 21 15 36t37 15q20 0 35.5 -14.5t15.5 -36.5q0 -23 -15.5 -37.5t-35.5 -14.5zM94 569q-20 0 -36 14.5t-16 37.5q0 22 15 36.5t37 14.5q21 0 36 -15t15 -36q0 -23 -15.5 -37.5t-35.5 -14.5zM212 21q-12 -49 -20.5 -78t-16 -46.5
t-17 -26.5t-22.5 -18q-20 -14 -39 -17.5t-33 -3.5t-25 2t-24 5v103q7 -2 16 -4t21 -2q14 0 25 5t18 17t10.5 33t3.5 54l-112 449h128l37 -178q3 -15 5.5 -34t4 -39t2.5 -39.5t2 -35.5q1 19 3.5 44t5.5 51t6.5 50t6.5 42l27 139h104z" />
    <glyph glyph-name="Aacute" unicode="&#xc1;" 
d="M148 708l-29 57l180 97l40 -84zM256 252l-37 178q-5 20 -8.5 43.5t-5.5 68.5q-3 -21 -6.5 -48t-9.5 -58l-36 -184h103zM285 667l151 -667h-138l-27 144h-132l-26 -144h-123l153 667h142z" />
    <glyph glyph-name="acircumflex" unicode="&#xe2;" horiz-adv-x="375" 
d="M126 555h-86l149 143l147 -143h-87l-60 47zM217 237q-45 -8 -59.5 -33t-14.5 -64q0 -26 6.5 -43.5t25.5 -17.5q32 0 37.5 40t4.5 118zM233 0q-4 8 -6.5 18.5t-1.5 42.5q-17 -30 -44 -50.5t-61 -20.5q-7 0 -24.5 3t-35.5 16.5t-31.5 41t-13.5 76.5q0 9 1 24.5t6.5 33.5
t16.5 37.5t32 37.5q30 26 66 34.5t80 11.5q-1 57 -6 80.5t-28 23.5q-14 0 -21.5 -8t-12 -19t-6 -24t-2.5 -22l-112 13q8 71 46.5 112t112.5 41q11 0 27 -2t34 -7.5t35.5 -16.5t31.5 -29q17 -23 20.5 -61.5t3.5 -80.5v-200v-44q0 -16 0.5 -27t2 -18.5t3.5 -16.5h-113z" />
    <glyph glyph-name="aring" unicode="&#xe5;" horiz-adv-x="375" 
d="M188 594q12 0 24.5 9.5t12.5 26.5q0 16 -11 26.5t-26 10.5t-26 -11t-11 -25q0 -17 12.5 -27t24.5 -10zM188 535q-18 0 -35.5 7t-31 19.5t-21.5 30.5t-8 39q0 40 28 67.5t68 27.5t68 -27.5t28 -67.5q0 -21 -8 -39t-21.5 -30.5t-30.5 -19.5t-36 -7zM217 237
q-45 -8 -59.5 -33t-14.5 -64q0 -26 6.5 -43.5t25.5 -17.5q32 0 37.5 40t4.5 118zM233 0q-4 8 -6.5 18.5t-1.5 42.5q-17 -30 -44 -50.5t-61 -20.5q-7 0 -24.5 3t-35.5 16.5t-31.5 41t-13.5 76.5q0 9 1 24.5t6.5 33.5t16.5 37.5t32 37.5q30 26 66 34.5t80 11.5q-1 57 -6 80.5
t-28 23.5q-14 0 -21.5 -8t-12 -19t-6 -24t-2.5 -22l-112 13q8 71 46.5 112t112.5 41q11 0 27 -2t34 -7.5t35.5 -16.5t31.5 -29q17 -23 20.5 -61.5t3.5 -80.5v-200v-44q0 -16 0.5 -27t2 -18.5t3.5 -16.5h-113z" />
    <glyph glyph-name="Ograve" unicode="&#xd2;" horiz-adv-x="477" 
d="M127 862l179 -97l-29 -57l-191 70zM237 558q-16 0 -28 -9.5t-20 -32.5q-9 -25 -11.5 -75.5t-2.5 -113.5q0 -43 1.5 -88.5t10.5 -80.5q5 -20 16 -34.5t37 -14.5q28 0 38.5 16.5t15.5 42.5q3 17 4.5 45t2.5 55t1 48v24v39t-1.5 49t-4 48.5t-7.5 38.5q-8 25 -20 34t-32 9z
M240 677q60 0 100 -26t64 -72.5t33.5 -110t9.5 -139.5q0 -74 -9.5 -136t-33.5 -107t-64.5 -70.5t-102.5 -25.5q-39 0 -66.5 10t-45 23t-27 25.5t-12.5 17.5q-32 53 -44 123.5t-12 151.5q0 76 10.5 138.5t35.5 106t65 67.5t99 24z" />
    <glyph glyph-name="ccedilla" unicode="&#xe7;" horiz-adv-x="375" 
d="M192 -48q25 3 42 -2.5t27.5 -15.5t15.5 -24t5 -28q0 -23 -9 -38.5t-23 -25.5t-30 -14t-31 -4t-39 5.5t-44 19.5l13 40q7 -3 23 -9.5t34 -6.5q13 0 24.5 7.5t11.5 24.5q0 14 -10 25.5t-36 11.5q-5 0 -10.5 -0.5t-15.5 -1.5l24 76q-17 4 -40 11.5t-42 28.5q-20 21 -32 48.5
t-19 56t-9 56t-2 50.5q0 25 2.5 54t9.5 57.5t20 55.5t33 48q23 25 53 35t63 10t62 -10.5t51 -33t35 -58t15 -86.5l-115 -7q-1 20 -3 38.5t-6.5 32.5t-13.5 22.5t-25 8.5q-21 0 -31.5 -17.5t-12.5 -47.5q-2 -26 -3 -53.5t-1 -44.5v-32t1.5 -37t4 -36.5t7.5 -29.5
q6 -15 15 -19.5t20 -4.5t20 4t15.5 15.5t11 32t7.5 52.5l108 -8q-2 -22 -6 -54t-20 -62.5t-47.5 -53t-86.5 -24.5z" />
    <glyph glyph-name="divide" unicode="&#xf7;" 
d="M155 103v132h116v-132h-116zM155 433v132h116v-132h-116zM32 281v106h362v-106h-362z" />
    <glyph glyph-name="Ntilde" unicode="&#xd1;" horiz-adv-x="477" 
d="M398 803q-4 -9 -11.5 -23.5t-19 -28t-27 -23.5t-34.5 -10q-9 0 -18 2.5t-17 6t-13.5 7t-7.5 5.5q-18 11 -28 17t-15.5 8.5t-8.5 3t-7 0.5q-13 0 -22 -10t-18 -24l-35 32q11 24 23.5 39.5t24.5 24.5t22 12.5t16 3.5t11.5 -1t13.5 -4.5t20 -10t33 -18.5q8 -5 18.5 -9.5
t21.5 -4.5q9 0 17.5 7t21.5 32zM51 667h134l108 -306q8 -23 15.5 -56.5t16.5 -75.5q-2 25 -3.5 55.5t-3 59t-2.5 52.5t-1 36v235h111v-667h-111l-125 341q-13 35 -23 73t-16 64q2 -23 4 -52.5t3.5 -58t2.5 -52.5t1 -34v-281h-111v667z" />
    <glyph glyph-name="ugrave" unicode="&#xf9;" horiz-adv-x="409" 
d="M140 714l137 -131l-40 -43l-154 108zM371 0h-114v70q-8 -16 -17 -30.5t-22 -25.5t-30.5 -17.5t-41.5 -6.5q-42 0 -64.5 14.5t-33 38t-12 52.5t-1.5 59v339h128v-339q0 -11 0.5 -21.5t4.5 -18.5t11 -13.5t21 -5.5q27 0 35 17.5t8 64.5v316h128v-493z" />
    <glyph glyph-name="Ucircumflex" unicode="&#xdb;" horiz-adv-x="477" 
d="M151 709h-93l173 153l171 -153h-93l-78 51zM182 667v-425q0 -31 2 -55.5t9 -41t20.5 -25t36.5 -8.5q24 0 37.5 10.5t20 29t7.5 43.5t1 54v418h116v-418q0 -44 -4 -90t-22.5 -83.5t-57 -61.5t-107.5 -24q-57 0 -95 14.5t-60.5 45t-31.5 77.5t-9 111v429h137z" />
    <glyph glyph-name="Atilde" unicode="&#xc3;" 
d="M348 803q-4 -9 -11.5 -23.5t-19 -28t-27 -23.5t-34.5 -10q-9 0 -18 2.5t-17 6t-13.5 7t-7.5 5.5q-18 11 -28 17t-15.5 8.5t-8.5 3t-7 0.5q-13 0 -22 -10t-18 -24l-35 32q11 24 23.5 39.5t24.5 24.5t22 12.5t16 3.5t11.5 -1t13.5 -4.5t20 -10t33 -18.5q8 -5 18.5 -9.5
t21.5 -4.5q9 0 17.5 7t21.5 32zM256 252l-37 178q-5 20 -8.5 43.5t-5.5 68.5q-3 -21 -6.5 -48t-9.5 -58l-36 -184h103zM285 667l151 -667h-138l-27 144h-132l-26 -144h-123l153 667h142z" />
    <glyph glyph-name="idieresis" unicode="&#xef;" horiz-adv-x="204" 
d="M170 569q-20 0 -36 14.5t-16 37.5q0 21 15 36t37 15q20 0 35.5 -14.5t15.5 -36.5q0 -23 -15.5 -37.5t-35.5 -14.5zM34 569q-20 0 -36 14.5t-16 37.5q0 22 15 36.5t37 14.5q21 0 36 -15t15 -36q0 -23 -15.5 -37.5t-35.5 -14.5zM38 493h128v-493h-128v493z" />
    <glyph glyph-name="Acircumflex" unicode="&#xc2;" 
d="M136 709h-93l173 153l171 -153h-93l-78 51zM256 252l-37 178q-5 20 -8.5 43.5t-5.5 68.5q-3 -21 -6.5 -48t-9.5 -58l-36 -184h103zM285 667l151 -667h-138l-27 144h-132l-26 -144h-123l153 667h142z" />
    <glyph glyph-name="Icircumflex" unicode="&#xce;" horiz-adv-x="239" 
d="M36 709h-93l173 153l171 -153h-93l-78 51zM51 667h137v-667h-137v667z" />
    <glyph glyph-name="Oacute" unicode="&#xd3;" horiz-adv-x="477" 
d="M183 708l-29 57l180 97l40 -84zM237 558q-16 0 -28 -9.5t-20 -32.5q-9 -25 -11.5 -75.5t-2.5 -113.5q0 -43 1.5 -88.5t10.5 -80.5q5 -20 16 -34.5t37 -14.5q28 0 38.5 16.5t15.5 42.5q3 17 4.5 45t2.5 55t1 48v24v39t-1.5 49t-4 48.5t-7.5 38.5q-8 25 -20 34t-32 9z
M240 677q60 0 100 -26t64 -72.5t33.5 -110t9.5 -139.5q0 -74 -9.5 -136t-33.5 -107t-64.5 -70.5t-102.5 -25.5q-39 0 -66.5 10t-45 23t-27 25.5t-12.5 17.5q-32 53 -44 123.5t-12 151.5q0 76 10.5 138.5t35.5 106t65 67.5t99 24z" />
    <glyph glyph-name="Adieresis" unicode="&#xc4;" 
d="M302 720q-22 0 -39 15t-17 40q0 24 16.5 40t39.5 16t39 -16t16 -39q0 -25 -16.5 -40.5t-38.5 -15.5zM158 720q-21 0 -38 15t-17 40q0 24 16 40t39 16t39.5 -16t16.5 -39q0 -25 -16.5 -40.5t-39.5 -15.5zM256 252l-37 178q-5 20 -8.5 43.5t-5.5 68.5q-3 -21 -6.5 -48
t-9.5 -58l-36 -184h103zM285 667l151 -667h-138l-27 144h-132l-26 -144h-123l153 667h142z" />
    <glyph glyph-name="agrave" unicode="&#xe0;" horiz-adv-x="375" 
d="M123 714l137 -131l-40 -43l-154 108zM217 237q-45 -8 -59.5 -33t-14.5 -64q0 -26 6.5 -43.5t25.5 -17.5q32 0 37.5 40t4.5 118zM233 0q-4 8 -6.5 18.5t-1.5 42.5q-17 -30 -44 -50.5t-61 -20.5q-7 0 -24.5 3t-35.5 16.5t-31.5 41t-13.5 76.5q0 9 1 24.5t6.5 33.5
t16.5 37.5t32 37.5q30 26 66 34.5t80 11.5q-1 57 -6 80.5t-28 23.5q-14 0 -21.5 -8t-12 -19t-6 -24t-2.5 -22l-112 13q8 71 46.5 112t112.5 41q11 0 27 -2t34 -7.5t35.5 -16.5t31.5 -29q17 -23 20.5 -61.5t3.5 -80.5v-200v-44q0 -16 0.5 -27t2 -18.5t3.5 -16.5h-113z" />
    <glyph glyph-name="ograve" unicode="&#xf2;" horiz-adv-x="392" 
d="M131 714l137 -131l-40 -43l-154 108zM194 413q-29 0 -35 -34t-6 -115q0 -45 1 -76.5t3 -54.5q2 -31 12 -42t26 -11q8 0 18 4t15 20q4 10 6 29.5t3 41t1 41.5v35q0 27 -1 51.5t-3 55.5q-1 19 -4.5 30t-9 16.5t-12.5 7t-14 1.5zM196 503q55 0 89 -24.5t53 -62t26 -82.5
t7 -86q0 -51 -8 -97.5t-28 -82t-54 -57t-86 -21.5q-30 0 -53 7t-40 19t-29 28t-21 34q-12 25 -18.5 53t-9.5 52.5t-3.5 42.5t-0.5 24q0 33 5.5 76.5t24 82.5t53 66.5t93.5 27.5z" />
    <glyph glyph-name="plusminus" unicode="&#xb1;" 
d="M32 0v106h362v-106h-362zM394 386v-106h-127v-128h-108v128h-127v106h127v129h108v-129h127z" />
    <glyph glyph-name="udieresis" unicode="&#xfc;" horiz-adv-x="409" 
d="M273 569q-20 0 -36 14.5t-16 37.5q0 21 15 36t37 15q20 0 35.5 -14.5t15.5 -36.5q0 -23 -15.5 -37.5t-35.5 -14.5zM137 569q-20 0 -36 14.5t-16 37.5q0 22 15 36.5t37 14.5q21 0 36 -15t15 -36q0 -23 -15.5 -37.5t-35.5 -14.5zM371 0h-114v70q-8 -16 -17 -30.5t-22 -25.5
t-30.5 -17.5t-41.5 -6.5q-42 0 -64.5 14.5t-33 38t-12 52.5t-1.5 59v339h128v-339q0 -11 0.5 -21.5t4.5 -18.5t11 -13.5t21 -5.5q27 0 35 17.5t8 64.5v316h128v-493z" />
    <glyph glyph-name="edieresis" unicode="&#xeb;" horiz-adv-x="375" 
d="M256 569q-20 0 -36 14.5t-16 37.5q0 21 15 36t37 15q20 0 35.5 -14.5t15.5 -36.5q0 -23 -15.5 -37.5t-35.5 -14.5zM120 569q-20 0 -36 14.5t-16 37.5q0 22 15 36.5t37 14.5q21 0 36 -15t15 -36q0 -23 -15.5 -37.5t-35.5 -14.5zM246 306q-1 58 -12 82.5t-34 24.5
q-18 0 -28 -11t-15.5 -27t-7 -35t-2.5 -34h99zM148 225q-2 -66 8 -101t46 -35q28 0 38 22t15 59l105 -9q-2 -31 -11.5 -61.5t-28.5 -55t-49 -39.5t-73 -15q-49 0 -83 18t-55 51t-30.5 80t-9.5 104q0 45 7.5 91.5t27.5 84t54 61t88 23.5q31 0 54.5 -8.5t41 -22.5t29.5 -32
t20 -37q9 -20 13.5 -44t6.5 -48.5t2.5 -47t0.5 -38.5h-217z" />
    <glyph glyph-name="aacute" unicode="&#xe1;" horiz-adv-x="375" 
d="M163 540l-40 43l137 131l57 -66zM217 237q-45 -8 -59.5 -33t-14.5 -64q0 -26 6.5 -43.5t25.5 -17.5q32 0 37.5 40t4.5 118zM233 0q-4 8 -6.5 18.5t-1.5 42.5q-17 -30 -44 -50.5t-61 -20.5q-7 0 -24.5 3t-35.5 16.5t-31.5 41t-13.5 76.5q0 9 1 24.5t6.5 33.5t16.5 37.5
t32 37.5q30 26 66 34.5t80 11.5q-1 57 -6 80.5t-28 23.5q-14 0 -21.5 -8t-12 -19t-6 -24t-2.5 -22l-112 13q8 71 46.5 112t112.5 41q11 0 27 -2t34 -7.5t35.5 -16.5t31.5 -29q17 -23 20.5 -61.5t3.5 -80.5v-200v-44q0 -16 0.5 -27t2 -18.5t3.5 -16.5h-113z" />
    <glyph glyph-name="igrave" unicode="&#xec;" horiz-adv-x="204" 
d="M37 714l137 -131l-40 -43l-154 108zM38 493h128v-493h-128v493z" />
    <glyph glyph-name="Idieresis" unicode="&#xcf;" horiz-adv-x="239" 
d="M192 720q-22 0 -39 15t-17 40q0 24 16.5 40t39.5 16t39 -16t16 -39q0 -25 -16.5 -40.5t-38.5 -15.5zM48 720q-21 0 -38 15t-17 40q0 24 16 40t39 16t39.5 -16t16.5 -39q0 -25 -16.5 -40.5t-39.5 -15.5zM51 667h137v-667h-137v667z" />
    <glyph glyph-name="adieresis" unicode="&#xe4;" horiz-adv-x="375" 
d="M256 569q-20 0 -36 14.5t-16 37.5q0 21 15 36t37 15q20 0 35.5 -14.5t15.5 -36.5q0 -23 -15.5 -37.5t-35.5 -14.5zM120 569q-20 0 -36 14.5t-16 37.5q0 22 15 36.5t37 14.5q21 0 36 -15t15 -36q0 -23 -15.5 -37.5t-35.5 -14.5zM217 237q-45 -8 -59.5 -33t-14.5 -64
q0 -26 6.5 -43.5t25.5 -17.5q32 0 37.5 40t4.5 118zM233 0q-4 8 -6.5 18.5t-1.5 42.5q-17 -30 -44 -50.5t-61 -20.5q-7 0 -24.5 3t-35.5 16.5t-31.5 41t-13.5 76.5q0 9 1 24.5t6.5 33.5t16.5 37.5t32 37.5q30 26 66 34.5t80 11.5q-1 57 -6 80.5t-28 23.5q-14 0 -21.5 -8
t-12 -19t-6 -24t-2.5 -22l-112 13q8 71 46.5 112t112.5 41q11 0 27 -2t34 -7.5t35.5 -16.5t31.5 -29q17 -23 20.5 -61.5t3.5 -80.5v-200v-44q0 -16 0.5 -27t2 -18.5t3.5 -16.5h-113z" />
    <glyph glyph-name="Iacute" unicode="&#xcd;" horiz-adv-x="239" 
d="M63 708l-29 57l180 97l40 -84zM51 667h137v-667h-137v667z" />
    <glyph glyph-name="copyright" unicode="&#xa9;" horiz-adv-x="759" 
d="M379 65q54 0 102 21t84 57t57 85t21 105q0 55 -21 104t-57 86t-84 58t-102 21t-102 -21t-84 -58t-57 -86t-21 -104q0 -56 21 -105t57 -85t84 -57t102 -21zM379 -12q-72 0 -135.5 27t-111 73.5t-75 109.5t-27.5 135q0 71 27.5 134t74.5 110t111 74.5t136 27.5t136 -27.5
t111 -74.5t74.5 -110t27.5 -134q0 -72 -27.5 -135t-75 -109.5t-111 -73.5t-135.5 -27zM428 372q0 15 -1.5 30.5t-5.5 28t-12 20.5t-22 8q-11 0 -18.5 -4.5t-12.5 -18.5q-4 -10 -6 -25.5t-3 -31t-1 -29.5v-22q0 -32 1.5 -58t8.5 -42q8 -21 28 -21q10 0 17.5 3t12.5 11.5
t8.5 24t5.5 39.5l85 -6q-1 -15 -5 -40.5t-16.5 -50t-38 -43t-70.5 -18.5q-75 0 -108 54.5t-33 148.5q0 28 4.5 64.5t19.5 68.5t43 54t76 22q45 0 70.5 -17t38.5 -41.5t16.5 -52.5t5.5 -49z" />
    <glyph glyph-name="Igrave" unicode="&#xcc;" horiz-adv-x="239" 
d="M7 862l179 -97l-29 -57l-191 70zM51 667h137v-667h-137v667z" />
    <glyph glyph-name="Ccedilla" unicode="&#xc7;" horiz-adv-x="460" 
d="M239 -50q37 3 57.5 -7t31 -24t13 -28.5t2.5 -20.5q0 -23 -9 -40.5t-24 -29t-34.5 -17.5t-40.5 -6q-15 0 -42 6t-52 23l15 45q16 -8 32 -13.5t34 -5.5q21 0 29.5 12t8.5 25q0 15 -10.5 28.5t-39.5 13.5q-8 0 -14.5 -0.5t-15.5 -1.5l26 83q-19 4 -49 15t-54 40
q-23 27 -37 61t-22 71t-11 75.5t-3 74.5q0 33 3 72t11 77.5t23 74.5t39 63.5t58.5 44t82.5 16.5q45 0 77 -13t53.5 -34t34.5 -48.5t20 -56t9.5 -56l4.5 -49.5l-121 -10q-1 25 -3.5 51.5t-10.5 48t-22.5 35t-38.5 13.5q-23 0 -35.5 -10t-21.5 -34q-7 -18 -10.5 -44.5t-5 -54
t-2 -52t-0.5 -39.5v-43q0 -23 1.5 -47t5 -46t9.5 -38q8 -20 20.5 -30.5t34.5 -10.5q19 0 33 6t23 21.5t14.5 41t8.5 64.5l116 -9q-1 -13 -3.5 -36.5t-9 -50t-19 -54.5t-33 -50.5t-51.5 -37t-75 -14.5z" />
    <glyph glyph-name="egrave" unicode="&#xe8;" horiz-adv-x="375" 
d="M123 714l137 -131l-40 -43l-154 108zM246 306q-1 58 -12 82.5t-34 24.5q-18 0 -28 -11t-15.5 -27t-7 -35t-2.5 -34h99zM148 225q-2 -66 8 -101t46 -35q28 0 38 22t15 59l105 -9q-2 -31 -11.5 -61.5t-28.5 -55t-49 -39.5t-73 -15q-49 0 -83 18t-55 51t-30.5 80t-9.5 104
q0 45 7.5 91.5t27.5 84t54 61t88 23.5q31 0 54.5 -8.5t41 -22.5t29.5 -32t20 -37q9 -20 13.5 -44t6.5 -48.5t2.5 -47t0.5 -38.5h-217z" />
    <glyph glyph-name="Ocircumflex" unicode="&#xd4;" horiz-adv-x="477" 
d="M151 709h-93l173 153l171 -153h-93l-78 51zM237 558q-16 0 -28 -9.5t-20 -32.5q-9 -25 -11.5 -75.5t-2.5 -113.5q0 -43 1.5 -88.5t10.5 -80.5q5 -20 16 -34.5t37 -14.5q28 0 38.5 16.5t15.5 42.5q3 17 4.5 45t2.5 55t1 48v24v39t-1.5 49t-4 48.5t-7.5 38.5q-8 25 -20 34
t-32 9zM240 677q60 0 100 -26t64 -72.5t33.5 -110t9.5 -139.5q0 -74 -9.5 -136t-33.5 -107t-64.5 -70.5t-102.5 -25.5q-39 0 -66.5 10t-45 23t-27 25.5t-12.5 17.5q-32 53 -44 123.5t-12 151.5q0 76 10.5 138.5t35.5 106t65 67.5t99 24z" />
    <glyph glyph-name="atilde" unicode="&#xe3;" horiz-adv-x="375" 
d="M320 640q-4 -8 -11 -21t-17.5 -25t-24.5 -21t-32 -9q-15 0 -31 7t-21 11q-17 10 -26 15t-14 7.5t-7.5 3t-6.5 0.5q-11 0 -19.5 -8t-17.5 -22l-33 30q5 8 12.5 19.5t17.5 22.5t23 19t28 8q6 0 10.5 -1t11.5 -4t18.5 -9t30.5 -16q8 -5 17.5 -9.5t19.5 -4.5q8 0 16 7t21 30z
M217 237q-45 -8 -59.5 -33t-14.5 -64q0 -26 6.5 -43.5t25.5 -17.5q32 0 37.5 40t4.5 118zM233 0q-4 8 -6.5 18.5t-1.5 42.5q-17 -30 -44 -50.5t-61 -20.5q-7 0 -24.5 3t-35.5 16.5t-31.5 41t-13.5 76.5q0 9 1 24.5t6.5 33.5t16.5 37.5t32 37.5q30 26 66 34.5t80 11.5
q-1 57 -6 80.5t-28 23.5q-14 0 -21.5 -8t-12 -19t-6 -24t-2.5 -22l-112 13q8 71 46.5 112t112.5 41q11 0 27 -2t34 -7.5t35.5 -16.5t31.5 -29q17 -23 20.5 -61.5t3.5 -80.5v-200v-44q0 -16 0.5 -27t2 -18.5t3.5 -16.5h-113z" />
    <glyph glyph-name="Udieresis" unicode="&#xdc;" horiz-adv-x="477" 
d="M332 720q-22 0 -39 15t-17 40q0 24 16.5 40t39.5 16t39 -16t16 -39q0 -25 -16.5 -40.5t-38.5 -15.5zM188 720q-21 0 -38 15t-17 40q0 24 16 40t39 16t39.5 -16t16.5 -39q0 -25 -16.5 -40.5t-39.5 -15.5zM182 667v-425q0 -31 2 -55.5t9 -41t20.5 -25t36.5 -8.5
q24 0 37.5 10.5t20 29t7.5 43.5t1 54v418h116v-418q0 -44 -4 -90t-22.5 -83.5t-57 -61.5t-107.5 -24q-57 0 -95 14.5t-60.5 45t-31.5 77.5t-9 111v429h137z" />
    <glyph glyph-name="ecircumflex" unicode="&#xea;" horiz-adv-x="375" 
d="M126 555h-86l149 143l147 -143h-87l-60 47zM246 306q-1 58 -12 82.5t-34 24.5q-18 0 -28 -11t-15.5 -27t-7 -35t-2.5 -34h99zM148 225q-2 -66 8 -101t46 -35q28 0 38 22t15 59l105 -9q-2 -31 -11.5 -61.5t-28.5 -55t-49 -39.5t-73 -15q-49 0 -83 18t-55 51t-30.5 80
t-9.5 104q0 45 7.5 91.5t27.5 84t54 61t88 23.5q31 0 54.5 -8.5t41 -22.5t29.5 -32t20 -37q9 -20 13.5 -44t6.5 -48.5t2.5 -47t0.5 -38.5h-217z" />
    <glyph glyph-name="nonbreakingspace" unicode="&#xa0;" horiz-adv-x="212" 
 />
    <glyph glyph-name="notequal" unicode="&#x2260;" horiz-adv-x="540" 
d="M231 123l-76 -143l-43 24l64 119h-156v50h183l73 139h-256v50h283l78 146l42 -23l-65 -123h162v-50h-189l-74 -139h263v-50h-289z" />
    <glyph glyph-name="infinity" unicode="&#x221e;" horiz-adv-x="700" 
d="M307 312q-12 15 -25 30.5t-28.5 27.5t-33 20t-38.5 8t-40 -8.5t-33.5 -23t-22.5 -34t-8 -41.5q0 -21 8 -40t21.5 -33t32 -22t39.5 -8q28 0 48 9.5t35.5 25.5t28.5 35t28 39zM623 292q0 21 -8 39.5t-21.5 33t-31.5 22.5t-39 8t-41 -11.5t-38 -28.5t-33.5 -35.5
t-27.5 -33.5q12 -17 26 -35t31 -32.5t36.5 -24t42.5 -9.5q21 0 40 8.5t33 23t22.5 34t8.5 41.5zM670 293q0 -33 -11.5 -61.5t-31.5 -49.5t-47.5 -33t-59.5 -12q-31 0 -54.5 9t-42.5 24.5t-35.5 36.5t-32.5 44q-17 -22 -34.5 -42t-38 -35.5t-44.5 -25t-53 -9.5
q-33 0 -61 11.5t-48.5 31.5t-32.5 47.5t-12 59.5q0 33 11.5 61.5t31.5 49.5t48 32.5t60 11.5q28 0 53.5 -10t47.5 -26t40 -36.5t33 -42.5q35 50 72.5 82.5t85.5 32.5q34 0 62.5 -11.5t49.5 -31.5t32.5 -47.5t11.5 -60.5z" />
    <glyph glyph-name="lessequal" unicode="&#x2264;" horiz-adv-x="540" 
d="M20 -26v42h499v-42h-499zM20 267v51l499 191v-47l-448 -170l448 -168v-48z" />
    <glyph glyph-name="greaterequal" unicode="&#x2265;" horiz-adv-x="540" 
d="M21 -26v42h499v-42h-499zM21 76v48l447 168l-447 170v47l499 -191v-51z" />
    <glyph glyph-name="partialdiff" unicode="&#x2202;" horiz-adv-x="530" 
d="M389 257q0 32 -11 60.5t-28 50.5t-38 34.5t-41 12.5q-34 0 -57.5 -11t-38.5 -35.5t-22 -63.5t-7 -95q0 -102 33 -154.5t94 -52.5q30 0 51.5 19.5t36 53.5t21.5 80.5t7 100.5zM475 357q0 -108 -11.5 -180.5t-36 -116t-62.5 -62t-91 -18.5q-46 0 -87 15t-72 44.5t-49 74
t-18 103.5q0 46 13 86.5t39.5 71.5t66.5 49t93 18q42 0 76 -21.5t54 -52.5q0 49 -1 85t-6 62q-7 40 -24.5 68t-41 45t-49.5 24.5t-50 7.5q-35 0 -68.5 -15t-56.5 -34l-19 25q33 26 66.5 41.5t71.5 15.5q56 0 104 -21.5t83.5 -64t55.5 -105.5t20 -145z" />
    <glyph glyph-name="summation" unicode="&#x2211;" horiz-adv-x="720" 
d="M668 68q-1 -7 -2 -19.5t-1.5 -27t-1.5 -28t-2 -23.5q-2 -21 -2.5 -42.5t-0.5 -38.5q0 -11 -9 -11h-595v10l265 419l-256 433v10h532q11 0 11 -8t1 -22.5t2 -31.5t2 -33t2 -26q2 -20 5.5 -38.5t5.5 -32.5h-25q-3 23 -7 38t-10 26q-11 23 -38.5 35t-65.5 12h-246
q-10 0 -11 -5.5t1 -9.5l176 -296l-252 -399h377q29 0 50 3.5t32 8.5q29 14 39 97h24v0z" />
    <glyph glyph-name="product" unicode="&#x220f;" horiz-adv-x="810" 
d="M516 -122v18l35 1q28 1 35.5 6t7.5 22v744q0 44 -40 44h-305q-33 0 -33 -35v-753q0 -17 8.5 -22t36.5 -6l35 -1v-18h-250v18l35 1q28 1 35.5 6t7.5 22v778q0 17 -7.5 22t-35.5 6l-35 1v18h718v-18l-35 -1q-28 -1 -35.5 -6t-7.5 -22v-778q0 -17 7.5 -22t35.5 -6l35 -1v-18
h-248z" />
    <glyph glyph-name="pi" unicode="&#x3c0;" horiz-adv-x="540" 
d="M533 491q-1 -23 -7.5 -55t-23.5 -51q-16 -17 -60 -17h-22q-11 0 -11 -14v-264q0 -26 2 -43t6 -27t11 -14t16 -4q11 0 22 11.5t17 38.5h25q-6 -31 -24.5 -51.5t-56.5 -20.5q-54 0 -77 29t-23 88v262q0 9 -9 9h-123q-10 0 -10 -11v-230q0 -28 -4.5 -54.5t-15.5 -47
t-30.5 -33t-49.5 -12.5q-35 0 -54 19.5t-24 52.5h27q6 -25 20 -37.5t32 -12.5q29 0 48 30t19 84v242q0 10 -9 10h-37q-20 0 -33 -1.5t-20.5 -6t-11 -11.5t-5.5 -17h-23q4 64 33 91q22 21 62 21h324q21 0 35 3t22 9t12.5 14.5t6.5 20.5h24z" />
    <glyph glyph-name="integral" unicode="&#x222b;" horiz-adv-x="540" 
d="M463 690q0 -18 -8.5 -32t-30.5 -14q-17 0 -30.5 10t-13.5 27q0 9 2 14t5 8t5 5.5t2 7.5q0 7 -5.5 12.5t-27.5 5.5q-32 0 -46 -32.5t-14 -79.5v-564q0 -33 -4 -65t-17 -57.5t-38 -41.5t-68 -16q-23 0 -41 6.5t-30.5 15.5t-19.5 20t-7 20q0 14 9.5 27.5t31.5 13.5
q19 0 29 -9.5t10 -25.5q0 -18 -4.5 -21.5t-4.5 -12.5q0 -7 10.5 -11.5t28.5 -4.5q31 0 42.5 26t11.5 84v564q0 33 4 65t17 58t38 42t68 16q22 0 40 -6t30.5 -15.5t19 -20t6.5 -19.5z" />
    <glyph glyph-name="radical" unicode="&#x221a;" horiz-adv-x="540" 
d="M305 -122h-51l-159 330l-46 -20l-19 34l93 39l154 -322l153 811h43z" />
    <glyph glyph-name="approxequal" unicode="&#x2248;" horiz-adv-x="540" 
d="M532 230q-7 -63 -39 -98t-83 -35q-35 0 -72 11.5t-73.5 25.5t-71 25.5t-63.5 11.5q-31 0 -53 -22.5t-27 -59.5h-41q4 25 6 35t7 24q14 35 43.5 55.5t66.5 20.5q35 0 71.5 -11.5t72.5 -25t70 -25t65 -11.5q38 0 55.5 23.5t25.5 55.5h40zM532 396q-3 -25 -11 -49
t-22.5 -42.5t-36 -30t-51.5 -11.5q-35 0 -72.5 11.5t-74 25.5t-71 25.5t-62.5 11.5q-31 0 -53.5 -22.5t-27.5 -59.5h-41q2 13 3 21t2.5 14t3 11t4.5 12q14 35 43.5 56t66.5 21q34 0 70.5 -11.5t72.5 -25t71 -25t66 -11.5q36 0 55 23.5t25 55.5h40z" />
    <glyph glyph-name="lozenge" unicode="&#x25ca;" horiz-adv-x="540" 
d="M270 635l-138 -286l138 -308l139 308zM299 -20h-59l-167 369l167 344h59l169 -344z" />
    <glyph glyph-name="numbersign" unicode="#" 
d="M178 286h57l13 108h-56zM143 667h84l-25 -192h57l25 192h84l-25 -192h68l-10 -81h-68l-14 -108h68l-11 -81h-68l-26 -205h-84l26 205h-57l-26 -205h-84l26 205h-68l10 81h69l13 108h-68l11 81h68z" />
    <glyph glyph-name="exclam" unicode="!" horiz-adv-x="290" 
d="M210 151v-151h-131v151h131zM220 667l-31 -466h-86l-34 466h151z" />
    <glyph glyph-name="quotedbl" unicode="&#x22;" horiz-adv-x="375" 
d="M317 667l-17 -290h-73l-15 290h105zM164 667l-17 -290h-74l-14 290h105z" />
    <glyph glyph-name="fraction" unicode="&#x2215;" horiz-adv-x="136" 
d="M165 667h75l-269 -667h-75z" />
    <glyph glyph-name="Lslash" unicode="&#x141;" horiz-adv-x="358" 
d="M4 182v109l47 47v329h137v-245l87 85v-109l-87 -85v-190h169v-123h-306v229z" />
    <glyph glyph-name="lslash" unicode="&#x142;" horiz-adv-x="255" 
d="M14 228v90l50 48v301h128v-224l50 47v-90l-50 -47v-353h-128v276z" />
    <glyph glyph-name="onesuperior" unicode="&#xb9;" horiz-adv-x="290" 
d="M202 347h62v-80h-227v80h67v204q-16 -17 -36 -29t-31 -17v88q14 8 36 24t54 54h75v-324z" />
    <glyph glyph-name="minus" unicode="&#x2212;" 
d="M32 280v106h362v-106h-362z" />
    <glyph glyph-name="onequarter" unicode="&#xbc;" horiz-adv-x="716" 
d="M550 165v84q0 17 1.5 39.5t3.5 39.5q-7 -25 -13.5 -40t-9.5 -20l-52 -103h70zM417 94v72l128 238h90v-234h44v-76h-44v-94h-92v94h-126zM455 667h75l-270 -667h-75zM202 347h62v-80h-227v80h67v204q-16 -17 -36 -29t-31 -17v88q25 14 45.5 31.5t44.5 46.5h75v-324z" />
    <glyph glyph-name="onehalf" unicode="&#xbd;" horiz-adv-x="715" 
d="M690 85l-6 -85h-243v84q34 32 60.5 58.5t45.5 51.5t29 49.5t10 51.5q0 9 -4 20.5t-20 11.5q-21 0 -27.5 -21.5t-7.5 -54.5l-87 19q1 13 5.5 36t17 45t37.5 38.5t67 16.5q22 0 43.5 -6.5t38.5 -20t27.5 -35.5t10.5 -53q0 -57 -39 -105t-105 -101h147zM455 667h75
l-270 -667h-75zM202 347h62v-80h-227v80h67v204q-16 -17 -36 -29t-31 -17v88q25 14 45.5 31.5t44.5 46.5h75v-324z" />
    <glyph glyph-name="brokenbar" unicode="&#xa6;" horiz-adv-x="500" 
d="M314 175v-350h-128v350h128zM314 675v-350h-128v350h128z" />
    <glyph glyph-name="thorn" unicode="&#xfe;" horiz-adv-x="392" 
d="M163 167q0 -18 0.5 -33t3.5 -26.5t10 -17.5t20 -6q14 0 22 10.5t12 34.5q4 20 5.5 52t1.5 67v32q0 19 -1 37t-3 34t-5 26q-3 11 -10 20t-22 9q-13 0 -20 -7t-10 -16.5t-3.5 -20t-0.5 -17.5v-178zM38 667h125v-221q4 7 10 16t15 17t22 14t31 6q34 0 58 -19t35 -39
q22 -40 29.5 -88.5t7.5 -96.5q0 -17 -1 -42t-5.5 -53.5t-12.5 -58t-21 -54.5q-3 -6 -10 -15t-18 -18t-26.5 -15t-36.5 -6q-33 0 -50 14t-27 26v-201h-125v834z" />
    <glyph glyph-name="yacute" unicode="&#xfd;" horiz-adv-x="324" 
d="M137 540l-40 43l137 131l57 -66zM212 21q-12 -49 -20.5 -78t-16 -46.5t-17 -26.5t-22.5 -18q-20 -14 -39 -17.5t-33 -3.5t-25 2t-24 5v103q7 -2 16 -4t21 -2q14 0 25 5t18 17t10.5 33t3.5 54l-112 449h128l37 -178q3 -15 5.5 -34t4 -39t2.5 -39.5t2 -35.5q1 19 3.5 44
t5.5 51t6.5 50t6.5 42l27 139h104z" />
    <glyph glyph-name="Scaron" unicode="&#x160;" horiz-adv-x="409" 
d="M279 855h93l-171 -153l-173 153h93l80 -51zM286 479q-6 24 -14.5 39.5t-18.5 24t-21 11.5t-22 3q-21 0 -32.5 -8.5t-17 -20t-7 -22t-1.5 -14.5q0 -18 5 -30.5t18 -23t36 -22t60 -28.5q15 -8 37 -20t42 -33.5t34 -53.5t14 -80q0 -47 -13.5 -85.5t-39 -66.5t-63.5 -43.5
t-86 -15.5q-57 0 -93 19t-57.5 46.5t-31.5 59t-14 55.5l109 38q12 -54 31.5 -76t55.5 -22q23 0 36.5 8.5t20.5 20.5t9 23.5t2 17.5q0 17 -5 29t-13 21t-18 15t-20 11q-32 16 -55.5 28t-42 24t-32 25t-24.5 30q-14 21 -22 50t-8 61q0 38 12 74.5t35 65t57 46t78 17.5
q51 0 84.5 -18.5t53.5 -43.5t30 -51t14 -40z" />
    <glyph glyph-name="eth" unicode="&#xf0;" horiz-adv-x="392" 
d="M257 617q55 -95 84.5 -185t29.5 -191q0 -57 -11 -105t-35 -83q-14 -20 -30.5 -32.5t-34 -19.5t-34.5 -9t-31 -2q-30 0 -53 7t-40 19t-29 28t-21 34q-12 25 -18.5 53t-9.5 53t-3.5 43t-0.5 24q0 64 12 111.5t32.5 78.5t48.5 46.5t60 15.5q2 0 15.5 -1t27.5 -6
q-3 12 -11 33t-19 47l-95 -55l-34 57l102 59q-11 27 -24 49l56 35q8 -13 16 -25t15 -23l95 55l34 -57zM194 413q-29 0 -35 -34t-6 -115q0 -45 1 -76.5t3 -54.5q2 -31 12 -42t26 -11q8 0 18 4t15 20q4 10 6 29.5t3 41t1 41.5v35q0 27 -1 51.5t-3 55.5q-1 19 -4.5 30t-9 16.5
t-12.5 7t-14 1.5z" />
    <glyph glyph-name="multiply" unicode="&#xd7;" 
d="M313 507l73 -75l-98 -97l99 -99l-78 -78l-99 99l-95 -97l-75 74l98 98l-99 99l78 78l99 -99z" />
    <glyph glyph-name="twosuperior" unicode="&#xb2;" horiz-adv-x="290" 
d="M270 352l-6 -85h-243v84q35 33 62 60t45.5 52t28 48.5t9.5 50.5q0 2 -0.5 7.5t-2.5 11t-7 9.5t-14 4q-21 0 -27 -22t-8 -54l-87 19q1 13 5.5 36t17 45t37.5 38.5t67 16.5q22 0 44 -6.5t38.5 -20.5t27 -35.5t10.5 -52.5q0 -30 -11.5 -57t-31 -52t-45.5 -49t-56 -48h147z
" />
    <glyph glyph-name="zcaron" unicode="&#x17e;" horiz-adv-x="324" 
d="M223 692h87l-147 -144l-149 144h86l63 -48zM302 493v-82l-147 -311h153v-100h-283v97l144 303h-129v93h262z" />
    <glyph glyph-name="Yacute" unicode="&#xdd;" horiz-adv-x="409" 
d="M153 708l-29 57l180 97l40 -84zM127 274l-133 393h144l58 -212q8 -29 10 -57t2 -49q2 26 5.5 53t11.5 53l64 212h123l-148 -393v-274h-137v274z" />
    <glyph glyph-name="Zcaron" unicode="&#x17d;" horiz-adv-x="409" 
d="M269 855h93l-171 -153l-173 153h93l80 -51zM396 117v-117h-383v107l227 449h-209v111h359v-105l-227 -445h233z" />
    <glyph glyph-name="threesuperior" unicode="&#xb3;" horiz-adv-x="290" 
d="M101 508h17q10 0 18 1t14 5.5t9.5 14.5t3.5 27q0 13 -4.5 26t-21.5 13t-22.5 -13.5t-7.5 -26.5l-83 17q2 9 7.5 26t18.5 33.5t36 29t59 12.5q13 0 32.5 -3.5t37.5 -14.5t31 -32.5t13 -58.5q0 -22 -5 -36t-13 -24t-19.5 -16t-23.5 -11q9 -3 21.5 -7.5t23.5 -14t18.5 -26.5
t7.5 -44q0 -40 -13.5 -64.5t-33.5 -38t-42 -18t-38 -4.5t-36.5 4t-39.5 16t-33.5 35.5t-17.5 62.5l85 13q2 -20 9 -34.5t27 -14.5q17 0 25.5 9.5t8.5 36.5q0 19 -6 29.5t-14.5 15t-17.5 5.5t-15 1h-16v69z" />
    <glyph glyph-name="threequarters" unicode="&#xbe;" horiz-adv-x="716" 
d="M123 508h17q10 0 18 1t14 5.5t9.5 14.5t3.5 27q0 13 -4.5 26t-21.5 13t-22.5 -13.5t-7.5 -26.5l-83 17q2 9 7.5 26t18.5 33.5t36 29t59 12.5q13 0 32.5 -3.5t37.5 -14.5t31 -32.5t13 -58.5q0 -22 -5 -36t-13 -24t-19.5 -16t-23.5 -11q9 -3 21.5 -7.5t23.5 -14t18.5 -26.5
t7.5 -44q0 -40 -13.5 -64.5t-33.5 -38t-42 -18t-38 -4.5t-36.5 4t-39.5 16t-33.5 35.5t-17.5 62.5l85 13q2 -20 9 -34.5t27 -14.5q17 0 25.5 9.5t8.5 36.5q0 19 -6 29.5t-14.5 15t-17.5 5.5t-15 1h-16v69zM561 165v83q0 6 0.5 16.5t1 22t1.5 22t2 18.5q-7 -24 -13.5 -39
t-9.5 -21l-52 -102h70zM428 94v72l128 238h90v-234h44v-76h-44v-94h-92v94h-126zM477 667h75l-269 -667h-75z" />
    <glyph glyph-name="Eth" unicode="&#xd0;" horiz-adv-x="494" 
d="M185 298v-181h40q5 0 15.5 0.5t22 5t22.5 13t17 25.5q5 15 8.5 38t5.5 47t2.5 46.5t0.5 36.5q0 76 -6.5 120t-18.5 66.5t-29.5 29t-39.5 6.5h-40v-160h78v-93h-78zM4 298v93h47v276h128q57 0 101 -6.5t85 -35.5q34 -26 54 -64.5t30 -79t12.5 -78t2.5 -61.5
q0 -100 -22.5 -175.5t-75.5 -122.5q-19 -17 -51.5 -30.5t-84.5 -13.5h-179v298h-47z" />
    <glyph glyph-name="scaron" unicode="&#x161;" horiz-adv-x="358" 
d="M240 692h87l-147 -144l-149 144h86l63 -48zM113 152q1 -9 4 -20t9.5 -21t19 -16.5t32.5 -6.5t34.5 9t14.5 29q0 12 -4 21t-13.5 16.5t-26 15.5t-40.5 20q-28 13 -50 27t-37 31.5t-23 39t-8 51.5q0 33 11.5 61.5t32 49t50 32.5t65.5 12q40 0 66 -13.5t42 -33.5t23.5 -42
t11.5 -39l-91 -23q-1 6 -3 15.5t-8 18.5t-16.5 15.5t-27.5 6.5q-26 0 -33.5 -12.5t-7.5 -22.5q0 -12 5.5 -20.5t18 -17t33 -18.5t50.5 -23q35 -16 55 -36t30 -40t12.5 -38.5t2.5 -30.5q0 -42 -14 -72.5t-37.5 -49.5t-53.5 -28t-62 -9q-54 0 -86 18t-49.5 42t-23 48.5
t-7.5 37.5z" />
    <glyph glyph-name="Thorn" unicode="&#xde;" horiz-adv-x="443" 
d="M185 267h33q18 0 31 4t22 15t13.5 31.5t4.5 52.5q0 41 -14.5 68.5t-56.5 27.5h-33v-199zM51 667h134v-91h33q24 0 48 -1t46 -7t42 -18.5t36 -35.5q23 -32 32 -70.5t9 -78.5q0 -55 -17.5 -103t-51.5 -74q-17 -12 -35.5 -18.5t-37 -9.5t-35.5 -3.5t-29 -0.5h-40v-156h-134
v667z" />
    <glyph glyph-name="Euro" unicode="&#x20ac;" 
d="M416 199q-4 -41 -15 -78.5t-32 -66.5t-53.5 -46.5t-79.5 -17.5q-56 0 -92 22t-57.5 58t-31 82t-12.5 93h-54l10 62h41v58h-51l10 62h44q4 46 14 91t32 80.5t58 57t92 21.5q46 0 77.5 -15.5t52 -42.5t31 -62.5t15.5 -75.5l-122 -13l-2.5 30t-7 34.5t-15.5 28t-28 11.5
q-22 0 -32 -10.5t-15 -30.5q-7 -25 -7.5 -52t-1.5 -52h103l-10 -62h-93v-58h85l-10 -62h-75q0 -26 0.5 -56.5t6.5 -55.5q5 -20 15.5 -29t31.5 -9q15 0 24.5 6t15 15.5t8 21.5t4.5 24q2 13 3 25t2 25l121 -13v0z" />
    <glyph glyph-name="Omega" unicode="&#x3a9;" horiz-adv-x="750" 
d="M688 170q-2 -17 -3.5 -38t-3.5 -43q-2 -26 -2.5 -50t0.5 -41q-23 2 -55 2h-66q-36 0 -70.5 -0.5t-57.5 -1.5q-7 0 -9 2t-2 10v162q76 8 111 68.5t35 181.5q0 130 -46.5 189t-143.5 59t-140 -59t-43 -189q0 -230 137 -250v-163q0 -7 -1.5 -9t-9.5 -2q-24 1 -59.5 1.5
t-70.5 0.5q-38 0 -69.5 -0.5t-47.5 -1.5q1 22 0.5 45.5t-1.5 47.5q-1 21 -2.5 41t-4.5 38h23q4 -29 8 -50.5t14 -35.5t29 -21t53 -7h99q8 0 8 8v83q-48 7 -88.5 33.5t-70 65.5t-46 85.5t-16.5 92.5q0 60 22 109.5t62 85t95 55t121 19.5q65 0 120.5 -18.5t96.5 -53.5
t64.5 -85t23.5 -113q0 -51 -16.5 -98t-47 -84t-73 -62t-93.5 -32v-82q0 -9 8 -9h101q58 0 80.5 27t22.5 87h25z" />
    <glyph glyph-name="Delta" unicode="&#x394;" horiz-adv-x="540" 
d="M270 614l-244 -547q-5 -11 -3.5 -14t9.5 -3h454q12 0 13.5 4t-1.5 12zM-48 0l314 693h34l289 -693h-637z" />
    </font>
</defs>
</svg>
