<?xml version="1.0" standalone="no"?>
<!DOCTYPE svg PUBLIC "-//W3C//DTD SVG 1.1//EN" "http://www.w3.org/Graphics/SVG/1.1/DTD/svg11.dtd" >
<svg xmlns="http://www.w3.org/2000/svg" xmlns:xlink="http://www.w3.org/1999/xlink" version="1.1">
<metadata></metadata>
<defs>
<font id="algol_rgregular" horiz-adv-x="983" >
<font-face units-per-em="2048" ascent="1638" descent="-410" />
<missing-glyph horiz-adv-x="491" />
<glyph horiz-adv-x="1024" />
<glyph horiz-adv-x="1024" />
<glyph horiz-adv-x="682" />
<glyph unicode="&#xd;" horiz-adv-x="491" />
<glyph unicode=" "  horiz-adv-x="491" />
<glyph unicode="&#x09;" horiz-adv-x="491" />
<glyph unicode="&#xa0;" horiz-adv-x="491" />
<glyph unicode="!" horiz-adv-x="327" d="M68 16v160q0 17 16 17h160q16 0 16 -17v-160q0 -16 -16 -16h-160q-16 0 -16 16zM68 336v962q0 15 16 15h160q16 0 16 -15v-962q0 -17 -16 -17h-160q-16 0 -16 17z" />
<glyph unicode="&#x22;" horiz-adv-x="655" d="M72 977v321q0 15 16 15h160q16 0 16 -15v-321q0 -16 -16 -16h-160q-16 0 -16 16zM391 977v321q0 15 17 15h159q17 0 17 -15v-321q0 -16 -17 -16h-159q-17 0 -17 16z" />
<glyph unicode="#" d="M76 336v160q0 16 14 16h146v129h-146q-14 0 -14 16v160q0 17 14 17h146v143q0 16 16 16h160q16 0 16 -16v-143h127v143q0 16 16 16h160q17 0 17 -16v-143h145q14 0 14 -17v-160q0 -16 -14 -16h-145v-129h145q14 0 14 -16v-160q0 -17 -14 -17h-145v-143q0 -16 -17 -16 h-160q-16 0 -16 16v143h-127v-143q0 -16 -16 -16h-160q-16 0 -16 16v143h-146q-14 0 -14 17zM428 512h127v129h-127v-129z" />
<glyph unicode="$" d="M76 176v160q0 16 14 16h162q16 0 16 -16v-143h447v288h-463q-16 0 -16 15v145h-146q-14 0 -14 16v320q0 16 14 16h146v144q0 16 16 16h143v145q0 15 17 15h159q17 0 17 -15v-145h143q17 0 17 -16v-144h145q14 0 14 -16v-160q0 -16 -14 -16h-162q-16 0 -16 16v144h-447 v-289h463q17 0 17 -15v-145h145q14 0 14 -16v-320q0 -16 -14 -16h-145v-144q0 -16 -17 -16h-143v-143q0 -17 -17 -17h-159q-17 0 -17 17v143h-143q-16 0 -16 16v144h-146q-14 0 -14 16z" />
<glyph unicode="%" horiz-adv-x="1146" d="M78 16v320q0 16 14 16h146v144q0 16 16 16h143v145q0 15 17 15h143v145q0 17 16 17h144v143q0 16 16 16h146v305q0 15 14 15h162q14 0 14 -15v-321q0 -16 -14 -16h-146v-144q0 -16 -16 -16h-143v-144q0 -16 -17 -16h-143v-145q0 -15 -17 -15h-143v-145q0 -17 -16 -17 h-146v-303q0 -16 -14 -16h-162q-14 0 -14 16zM78 977v321q0 15 14 15h322q16 0 16 -15v-321q0 -16 -16 -16h-322q-14 0 -14 16zM717 16v320q0 16 16 16h322q14 0 14 -16v-320q0 -16 -14 -16h-322q-16 0 -16 16z" />
<glyph unicode="&#x26;" horiz-adv-x="1146" d="M78 176v320q0 16 14 16h146v145q0 15 16 15h143v129h-143q-16 0 -16 16v320q0 16 16 16h143v145q0 15 17 15h159q17 0 17 -15v-145h143q17 0 17 -16v-320q0 -16 -17 -16h-143v-144q0 -16 -17 -16h-143v-129h303q17 0 17 -16v-144h129v144q0 16 14 16h162q14 0 14 -16 v-160q0 -17 -14 -17h-146v-126h146q14 0 14 -17v-160q0 -16 -14 -16h-162q-14 0 -14 16v144h-129v-144q0 -16 -17 -16h-459q-14 0 -14 16v144h-168q-14 0 -14 16zM268 190q3 3 6 3h443v126h-303q-17 0 -17 17v145h-129v-291zM430 834h127v286h-127v-286z" />
<glyph unicode="'" horiz-adv-x="327" d="M68 977v321q0 15 16 15h160q16 0 16 -15v-321q0 -16 -16 -16h-160q-16 0 -16 16z" />
<glyph unicode="(" horiz-adv-x="655" d="M72 336v641q0 16 16 16h143v305q0 15 17 15h143v145q0 17 17 17h159q17 0 17 -17v-160q0 -16 -17 -16h-143v-305q0 -16 -16 -16h-144v-609h144q16 0 16 -16v-303h143q17 0 17 -17v-159q0 -17 -17 -17h-159q-17 0 -17 17v143h-143q-17 0 -17 16v303h-143q-16 0 -16 17z " />
<glyph unicode=")" horiz-adv-x="655" d="M72 16q0 17 16 17h143v303q0 16 17 16h143v609h-143q-17 0 -17 16v305h-143q-16 0 -16 16v160q0 17 16 17h160q16 0 16 -17v-145h144q16 0 16 -15v-305h143q17 0 17 -16v-641q0 -17 -17 -17h-143v-303q0 -16 -16 -16h-144v-143q0 -17 -16 -17h-160q-16 0 -16 17v159z" />
<glyph unicode="*" d="M76 496v161q0 15 14 15h146v129h-146q-14 0 -14 16v160q0 16 14 16h162q16 0 16 -16v-143h127v303q0 16 17 16h159q17 0 17 -16v-303h127v143q0 16 16 16h162q14 0 14 -16v-160q0 -16 -14 -16h-145v-129h145q14 0 14 -15v-161q0 -15 -14 -15h-162q-16 0 -16 15v145h-127 v-305q0 -17 -17 -17h-159q-17 0 -17 17v305h-127v-145q0 -15 -16 -15h-162q-14 0 -14 15z" />
<glyph unicode="+" d="M76 496v161q0 15 14 15h305v305q0 16 17 16h159q17 0 17 -16v-305h305q14 0 14 -15v-161q0 -15 -14 -15h-305v-305q0 -16 -17 -16h-159q-17 0 -17 16v305h-305q-14 0 -14 15z" />
<glyph unicode="," horiz-adv-x="327" d="M68 -143v319q0 17 16 17h160q16 0 16 -17v-319q0 -17 -16 -17h-160q-16 0 -16 17z" />
<glyph unicode="-" horiz-adv-x="819" d="M74 496v161q0 15 16 15h639q16 0 16 -15v-161q0 -15 -16 -15h-639q-16 0 -16 15z" />
<glyph unicode="." horiz-adv-x="327" d="M68 16v160q0 17 16 17h160q16 0 16 -17v-160q0 -16 -16 -16h-160q-16 0 -16 16z" />
<glyph unicode="/" horiz-adv-x="1146" d="M78 16v320q0 16 14 16h146v144q0 16 16 16h143v145q0 15 17 15h143v145q0 17 16 17h144v143q0 16 16 16h146v305q0 15 14 15h162q14 0 14 -15v-321q0 -16 -14 -16h-146v-144q0 -16 -16 -16h-143v-144q0 -16 -17 -16h-143v-145q0 -15 -17 -15h-143v-145q0 -17 -16 -17 h-146v-303q0 -16 -14 -16h-162q-14 0 -14 16z" />
<glyph unicode="0" d="M76 176v961q0 16 14 16h146v145q0 15 16 15h479q17 0 17 -15v-145h145q14 0 14 -16v-961q0 -16 -14 -16h-145v-144q0 -16 -17 -16h-479q-16 0 -16 16v144h-146q-14 0 -14 16zM268 193h447v608h-127v-305q0 -15 -17 -15h-143v-145q0 -17 -16 -17h-144v-126zM268 512h127 v305q0 17 17 17h143v143q0 16 16 16h144v127h-447v-608z" />
<glyph unicode="1" horiz-adv-x="491" d="M70 1137v161q0 15 16 15h320q16 0 16 -15v-1282q0 -16 -16 -16h-160q-17 0 -17 16v1104h-143q-16 0 -16 17z" />
<glyph unicode="2" d="M76 16v320q0 16 14 16h146v144q0 16 16 16h143v145q0 15 17 15h143v145q0 17 16 17h144v286h-447v-143q0 -16 -16 -16h-162q-14 0 -14 16v160q0 16 14 16h146v145q0 15 16 15h479q17 0 17 -15v-145h145q14 0 14 -16v-320q0 -16 -14 -16h-145v-144q0 -16 -17 -16h-143 v-145q0 -15 -17 -15h-143v-145q0 -17 -16 -17h-144v-126h625q14 0 14 -17v-160q0 -16 -14 -16h-803q-14 0 -14 16z" />
<glyph unicode="3" d="M76 176v160q0 16 14 16h162q16 0 16 -16v-143h447v288h-463q-16 0 -16 15v161q0 15 16 15h143v145q0 17 17 17h143v143q0 16 16 16h144v127h-447v-143q0 -16 -16 -16h-162q-14 0 -14 16v321q0 15 14 15h803q14 0 14 -15v-321q0 -16 -14 -16h-145v-144q0 -16 -17 -16h-143 v-129h143q17 0 17 -15v-145h145q14 0 14 -16v-320q0 -16 -14 -16h-145v-144q0 -16 -17 -16h-479q-16 0 -16 16v144h-146q-14 0 -14 16z" />
<glyph unicode="4" d="M76 336v321q0 15 14 15h146v305q0 16 16 16h143v144q0 16 17 16h143v145q0 15 16 15h160q17 0 17 -15v-786h145q14 0 14 -16v-160q0 -17 -14 -17h-145v-303q0 -16 -17 -16h-160q-16 0 -16 16v303h-465q-14 0 -14 17zM268 512h287v449h-127v-304q0 -16 -16 -16h-144v-129z " />
<glyph unicode="5" d="M76 176v160q0 16 14 16h162q16 0 16 -16v-143h447v448h-625q-14 0 -14 16v641q0 15 14 15h803q14 0 14 -15v-321q0 -16 -14 -16h-162q-16 0 -16 16v143h-447v-286h463q17 0 17 -17v-145h145q14 0 14 -15v-481q0 -16 -14 -16h-145v-144q0 -16 -17 -16h-479q-16 0 -16 16 v144h-146q-14 0 -14 16z" />
<glyph unicode="6" horiz-adv-x="964" d="M76 176v641q0 17 14 17h146v143q0 16 16 16h143v144q0 16 17 16h143v145q0 15 16 15h160q17 0 17 -15v-161q0 -17 -17 -17h-143v-143q0 -16 -17 -16h-143v-144q0 -16 -16 -16h-146v-129h465q17 0 17 -15v-145h126q15 0 15 -16v-320q0 -16 -15 -16h-126v-144 q0 -16 -17 -16h-479q-16 0 -16 16v144h-146q-14 0 -14 16zM266 193h449v288h-449v-288z" />
<glyph unicode="7" d="M76 977v321q0 15 14 15h803q14 0 14 -15v-321q0 -16 -14 -16h-145v-304q0 -16 -17 -16h-143v-305q0 -17 -17 -17h-125v-303q0 -16 -16 -16h-178q-16 0 -16 16v320q0 16 16 16h143v305q0 15 17 15h143v305q0 16 16 16h144v127h-447v-143q0 -16 -16 -16h-162q-14 0 -14 16z " />
<glyph unicode="8" d="M76 176v481q0 15 14 15h146v129h-146q-14 0 -14 16v320q0 16 14 16h146v145q0 15 16 15h479q17 0 17 -15v-145h145q14 0 14 -16v-320q0 -16 -14 -16h-145v-129h145q14 0 14 -15v-481q0 -16 -14 -16h-145v-144q0 -16 -17 -16h-479q-16 0 -16 16v144h-146q-14 0 -14 16z M268 193h447v448h-447v-448zM268 834h447v286h-447v-286z" />
<glyph unicode="9" horiz-adv-x="964" d="M76 817v320q0 16 14 16h127v145q0 15 16 15h480q16 0 16 -15v-145h145q15 0 15 -16v-641q0 -15 -15 -15h-145v-145q0 -17 -16 -17h-144v-143q0 -16 -16 -16h-143v-144q0 -16 -17 -16h-160q-16 0 -16 16v160q0 17 16 17h144v143q0 16 16 16h144v144q0 16 16 16h145v129 h-465q-16 0 -16 16v144h-127q-14 0 -14 16zM250 834h448v286h-448v-286z" />
<glyph unicode=":" horiz-adv-x="327" d="M68 16v160q0 17 16 17h160q16 0 16 -17v-160q0 -16 -16 -16h-160q-16 0 -16 16zM68 496v161q0 15 16 15h160q16 0 16 -15v-161q0 -15 -16 -15h-160q-16 0 -16 15z" />
<glyph unicode=";" horiz-adv-x="327" d="M68 -143v319q0 17 16 17h160q16 0 16 -17v-319q0 -17 -16 -17h-160q-16 0 -16 17zM68 496v161q0 15 16 15h160q16 0 16 -15v-161q0 -15 -16 -15h-160q-16 0 -16 15z" />
<glyph unicode="&#x3c;" horiz-adv-x="655" d="M72 496v161q0 15 16 15h143v145q0 17 17 17h143v143q0 16 17 16h159q17 0 17 -16v-160q0 -16 -17 -16h-143v-144q0 -16 -16 -16h-144v-129h144q16 0 16 -16v-144h143q17 0 17 -16v-160q0 -16 -17 -16h-159q-17 0 -17 16v143h-143q-17 0 -17 17v145h-143q-16 0 -16 15z " />
<glyph unicode="=" horiz-adv-x="819" d="M74 336v160q0 16 16 16h639q16 0 16 -16v-160q0 -17 -16 -17h-639q-16 0 -16 17zM74 657v160q0 17 16 17h639q16 0 16 -17v-160q0 -16 -16 -16h-639q-16 0 -16 16z" />
<glyph unicode="&#x3e;" horiz-adv-x="655" d="M72 176v160q0 16 16 16h143v144q0 16 17 16h143v129h-143q-17 0 -17 16v144h-143q-16 0 -16 16v160q0 16 16 16h160q16 0 16 -16v-143h144q16 0 16 -17v-145h143q17 0 17 -15v-161q0 -15 -17 -15h-143v-145q0 -17 -16 -17h-144v-143q0 -16 -16 -16h-160q-16 0 -16 16z " />
<glyph unicode="?" d="M76 977v160q0 16 14 16h146v145q0 15 16 15h479q17 0 17 -15v-145h145q14 0 14 -16v-320q0 -16 -14 -16h-145v-144q0 -16 -17 -16h-143v-305q0 -17 -17 -17h-159q-17 0 -17 17v321q0 15 17 15h143v145q0 17 16 17h144v286h-447v-143q0 -16 -16 -16h-162q-14 0 -14 16z M395 16v160q0 17 17 17h159q17 0 17 -17v-160q0 -16 -17 -16h-159q-17 0 -17 16z" />
<glyph unicode="@" horiz-adv-x="1146" d="M78 176v961q0 16 14 16h146v145q0 15 16 15h639q16 0 16 -15v-145h146q14 0 14 -16v-641q0 -15 -14 -15h-146v-145q0 -17 -16 -17h-479q-17 0 -17 17v641q0 16 17 16h319q17 0 17 -16v-465h129v608h-611v-927h625q16 0 16 -17v-160q0 -16 -16 -16h-639q-16 0 -16 16v144 h-146q-14 0 -14 16z" />
<glyph unicode="A" d="M76 16v1121q0 16 14 16h146v145q0 15 16 15h479q17 0 17 -15v-145h145q14 0 14 -16v-1121q0 -16 -14 -16h-162q-16 0 -16 16v465h-447v-465q0 -16 -16 -16h-162q-14 0 -14 16zM268 672h447v448h-447v-448z" />
<glyph unicode="B" d="M76 16v1282q0 15 14 15h641q17 0 17 -15v-145h145q14 0 14 -16v-320q0 -16 -14 -16h-145v-129h145q14 0 14 -15v-481q0 -16 -14 -16h-145v-144q0 -16 -17 -16h-641q-14 0 -14 16zM268 193h447v448h-447v-448zM268 834h447v286h-447v-286z" />
<glyph unicode="C" d="M76 176v961q0 16 14 16h146v145q0 15 16 15h479q17 0 17 -15v-145h145q14 0 14 -16v-160q0 -16 -14 -16h-162q-16 0 -16 16v143h-447v-927h447v143q0 16 16 16h162q14 0 14 -16v-160q0 -16 -14 -16h-145v-144q0 -16 -17 -16h-479q-16 0 -16 16v144h-146q-14 0 -14 16z " />
<glyph unicode="D" d="M76 16v1282q0 15 14 15h641q17 0 17 -15v-145h145q14 0 14 -16v-961q0 -16 -14 -16h-145v-144q0 -16 -17 -16h-641q-14 0 -14 16zM268 193h447v927h-447v-927z" />
<glyph unicode="E" d="M76 16v1282q0 15 14 15h803q14 0 14 -15v-161q0 -17 -14 -17h-625v-286h463q17 0 17 -17v-160q0 -16 -17 -16h-463v-448h625q14 0 14 -17v-160q0 -16 -14 -16h-803q-14 0 -14 16z" />
<glyph unicode="F" d="M76 16v1282q0 15 14 15h803q14 0 14 -15v-161q0 -17 -14 -17h-625v-448h463q17 0 17 -15v-161q0 -15 -17 -15h-463v-465q0 -16 -16 -16h-162q-14 0 -14 16z" />
<glyph unicode="G" d="M76 176v961q0 16 14 16h146v145q0 15 16 15h479q17 0 17 -15v-145h145q14 0 14 -16v-160q0 -16 -14 -16h-162q-16 0 -16 16v143h-447v-927h447v286h-303q-17 0 -17 15v161q0 17 17 17h481q14 0 14 -17v-639q0 -16 -14 -16h-641q-16 0 -16 16v144h-146q-14 0 -14 16z" />
<glyph unicode="H" d="M76 16v1282q0 15 14 15h162q16 0 16 -15v-464h447v464q0 15 16 15h162q14 0 14 -15v-1282q0 -16 -14 -16h-162q-16 0 -16 16v625h-447v-625q0 -16 -16 -16h-162q-14 0 -14 16z" />
<glyph unicode="I" horiz-adv-x="327" d="M68 16v1282q0 15 16 15h160q16 0 16 -15v-1282q0 -16 -16 -16h-160q-16 0 -16 16z" />
<glyph unicode="J" d="M76 176v160q0 16 14 16h162q16 0 16 -16v-143h447v1105q0 15 16 15h162q14 0 14 -15v-1122q0 -16 -14 -16h-145v-144q0 -16 -17 -16h-479q-16 0 -16 16v144h-146q-14 0 -14 16z" />
<glyph unicode="K" d="M76 16v1282q0 15 14 15h162q16 0 16 -15v-464h127v143q0 16 17 16h143v144q0 16 16 16h144v145q0 15 16 15h162q14 0 14 -15v-161q0 -17 -14 -17h-145v-143q0 -16 -17 -16h-143v-144q0 -16 -17 -16h-143v-129h143q17 0 17 -15v-145h143q17 0 17 -16v-144h145q14 0 14 -16 v-320q0 -16 -14 -16h-162q-16 0 -16 16v303h-144q-16 0 -16 17v145h-143q-17 0 -17 15v145h-127v-625q0 -16 -16 -16h-162q-14 0 -14 16z" />
<glyph unicode="L" horiz-adv-x="819" d="M74 16v1282q0 15 16 15h160q16 0 16 -15v-1105h463q16 0 16 -17v-160q0 -16 -16 -16h-639q-16 0 -16 16z" />
<glyph unicode="M" horiz-adv-x="1310" d="M78 16v1282q0 15 16 15h160q16 0 16 -15v-145h146q16 0 16 -16v-144h143q17 0 17 -16v-305h127v305q0 16 16 16h144v144q0 16 16 16h145v145q0 15 17 15h160q16 0 16 -15v-1282q0 -16 -16 -16h-160q-17 0 -17 16v945h-129v-304q0 -16 -16 -16h-143v-145q0 -15 -17 -15 h-160q-16 0 -16 15v145h-143q-17 0 -17 16v304h-129v-945q0 -16 -16 -16h-160q-16 0 -16 16z" />
<glyph unicode="N" horiz-adv-x="1146" d="M78 16v1282q0 15 14 15h162q14 0 14 -15v-145h146q16 0 16 -16v-144h143q17 0 17 -16v-305h143q17 0 17 -15v-305h129v946q0 15 14 15h162q14 0 14 -15v-1282q0 -16 -14 -16h-162q-14 0 -14 16v144h-146q-16 0 -16 16v143h-144q-16 0 -16 17v305h-143q-17 0 -17 16v304 h-129v-945q0 -16 -14 -16h-162q-14 0 -14 16z" />
<glyph unicode="O" d="M76 176v961q0 16 14 16h146v145q0 15 16 15h479q17 0 17 -15v-145h145q14 0 14 -16v-961q0 -16 -14 -16h-145v-144q0 -16 -17 -16h-479q-16 0 -16 16v144h-146q-14 0 -14 16zM268 193h447v927h-447v-927z" />
<glyph unicode="P" d="M76 16v1282q0 15 14 15h641q17 0 17 -15v-145h145q14 0 14 -16v-480q0 -16 -14 -16h-145v-145q0 -15 -17 -15h-463v-465q0 -16 -16 -16h-162q-14 0 -14 16zM268 672h447v448h-447v-448z" />
<glyph unicode="Q" d="M76 176v961q0 16 14 16h146v145q0 15 16 15h479q17 0 17 -15v-145h145q14 0 14 -16v-801q0 -17 -14 -17h-145v-126h145q14 0 14 -17v-160q0 -16 -14 -16h-162q-16 0 -16 16v144h-127v-144q0 -16 -17 -16h-319q-16 0 -16 16v144h-146q-14 0 -14 16zM268 193h287v126h-143 q-17 0 -17 17v160q0 16 17 16h159q17 0 17 -16v-144h127v768h-447v-927z" />
<glyph unicode="R" d="M76 16v1282q0 15 14 15h641q17 0 17 -15v-145h145q14 0 14 -16v-320q0 -16 -14 -16h-145v-144q0 -16 -17 -16h-143v-129h143q17 0 17 -16v-144h145q14 0 14 -16v-320q0 -16 -14 -16h-162q-16 0 -16 16v303h-144q-16 0 -16 17v145h-143q-17 0 -17 15v145h-127v-625 q0 -16 -16 -16h-162q-14 0 -14 16zM268 834h447v286h-447v-286z" />
<glyph unicode="S" d="M76 176v160q0 16 14 16h162q16 0 16 -16v-143h447v448h-463q-16 0 -16 16v144h-146q-14 0 -14 16v320q0 16 14 16h146v145q0 15 16 15h479q17 0 17 -15v-145h145q14 0 14 -16v-160q0 -16 -14 -16h-162q-16 0 -16 16v143h-447v-286h463q17 0 17 -17v-145h145q14 0 14 -15 v-481q0 -16 -14 -16h-145v-144q0 -16 -17 -16h-479q-16 0 -16 16v144h-146q-14 0 -14 16z" />
<glyph unicode="T" d="M76 1137v161q0 15 14 15h803q14 0 14 -15v-161q0 -17 -14 -17h-305v-1104q0 -16 -17 -16h-159q-17 0 -17 16v1104h-305q-14 0 -14 17z" />
<glyph unicode="U" d="M76 176v1122q0 15 14 15h162q16 0 16 -15v-1105h447v1105q0 15 16 15h162q14 0 14 -15v-1122q0 -16 -14 -16h-145v-144q0 -16 -17 -16h-479q-16 0 -16 16v144h-146q-14 0 -14 16z" />
<glyph unicode="V" d="M76 336v962q0 15 14 15h162q16 0 16 -15v-946h144q16 0 16 -16v-143h127v143q0 16 16 16h144v946q0 15 16 15h162q14 0 14 -15v-962q0 -17 -14 -17h-145v-143q0 -16 -17 -16h-143v-144q0 -16 -17 -16h-159q-17 0 -17 16v144h-143q-16 0 -16 16v143h-146q-14 0 -14 17z " />
<glyph unicode="W" horiz-adv-x="1638" d="M82 817v481q0 15 16 15h160q16 0 16 -15v-464h144q16 0 16 -17v-465h129v465q0 17 17 17h143v464q0 15 16 15h160q16 0 16 -15v-464h144q16 0 16 -17v-465h129v465q0 17 17 17h143v464q0 15 16 15h160q16 0 16 -15v-481q0 -16 -16 -16h-143v-465q0 -17 -17 -17h-145v-303 q0 -16 -14 -16h-162q-17 0 -17 16v303h-143q-16 0 -16 17v465h-127v-465q0 -17 -17 -17h-143v-303q0 -16 -16 -16h-162q-15 0 -15 16v303h-145q-16 0 -16 17v465h-144q-16 0 -16 16z" />
<glyph unicode="X" d="M76 16v480q0 16 14 16h146v145q0 15 16 15h143v129h-143q-16 0 -16 16v144h-146q-14 0 -14 16v321q0 15 14 15h162q16 0 16 -15v-305h144q16 0 16 -16v-143h127v143q0 16 16 16h144v305q0 15 16 15h162q14 0 14 -15v-321q0 -16 -14 -16h-145v-144q0 -16 -17 -16h-143 v-129h143q17 0 17 -15v-145h145q14 0 14 -16v-480q0 -16 -14 -16h-162q-16 0 -16 16v465h-144q-16 0 -16 15v145h-127v-145q0 -15 -16 -15h-144v-465q0 -16 -16 -16h-162q-14 0 -14 16z" />
<glyph unicode="Y" d="M76 817v481q0 15 14 15h162q16 0 16 -15v-464h144q16 0 16 -17v-145h127v145q0 17 16 17h144v464q0 15 16 15h162q14 0 14 -15v-481q0 -16 -14 -16h-145v-144q0 -16 -17 -16h-143v-625q0 -16 -17 -16h-159q-17 0 -17 16v625h-143q-16 0 -16 16v144h-146q-14 0 -14 16z " />
<glyph unicode="Z" d="M76 16v320q0 16 14 16h146v144q0 16 16 16h143v305q0 17 17 17h143v143q0 16 16 16h144v127h-625q-14 0 -14 17v161q0 15 14 15h803q14 0 14 -15v-321q0 -16 -14 -16h-145v-144q0 -16 -17 -16h-143v-305q0 -15 -17 -15h-143v-145q0 -17 -16 -17h-144v-126h625 q14 0 14 -17v-160q0 -16 -14 -16h-803q-14 0 -14 16z" />
<glyph unicode="[" horiz-adv-x="491" d="M70 -143v1601q0 17 16 17h320q16 0 16 -17v-160q0 -16 -16 -16h-144v-1249h144q16 0 16 -17v-159q0 -17 -16 -17h-320q-16 0 -16 17z" />
<glyph unicode="\" horiz-adv-x="1146" d="M78 977v321q0 15 14 15h162q14 0 14 -15v-305h146q16 0 16 -16v-143h143q17 0 17 -17v-145h143q17 0 17 -15v-145h143q16 0 16 -16v-144h146q14 0 14 -16v-320q0 -16 -14 -16h-162q-14 0 -14 16v303h-146q-16 0 -16 17v145h-144q-16 0 -16 15v145h-143q-17 0 -17 16v144 h-143q-16 0 -16 16v144h-146q-14 0 -14 16z" />
<glyph unicode="]" horiz-adv-x="491" d="M70 16q0 17 16 17h143v1249h-143q-16 0 -16 16v160q0 17 16 17h320q16 0 16 -17v-1601q0 -17 -16 -17h-320q-16 0 -16 17v159z" />
<glyph unicode="^" d="M76 496v161q0 15 14 15h146v145q0 17 16 17h143v143q0 16 17 16h159q17 0 17 -16v-143h143q17 0 17 -17v-145h145q14 0 14 -15v-161q0 -15 -14 -15h-162q-16 0 -16 15v145h-144q-16 0 -16 16v144h-127v-144q0 -16 -16 -16h-144v-145q0 -15 -16 -15h-162q-14 0 -14 15z " />
<glyph unicode="_" horiz-adv-x="1146" d="M78 16q0 17 14 17h963q14 0 14 -17v-159q0 -17 -14 -17h-963q-14 0 -14 17v159z" />
<glyph unicode="`" horiz-adv-x="491" d="M70 1298v160q0 17 16 17h160q16 0 16 -17v-145h144q16 0 16 -15v-161q0 -17 -16 -17h-160q-17 0 -17 17v145h-143q-16 0 -16 16z" />
<glyph unicode="a" d="M76 176v320q0 16 14 16h146v145q0 15 16 15h463v129h-463q-16 0 -16 16v160q0 16 16 16h479q17 0 17 -16v-143h145q14 0 14 -17v-801q0 -16 -14 -16h-641q-16 0 -16 16v144h-146q-14 0 -14 16zM268 193h447v288h-447v-288z" />
<glyph unicode="b" d="M76 176v1122q0 15 14 15h162q16 0 16 -15v-305h463q17 0 17 -16v-143h145q14 0 14 -17v-641q0 -16 -14 -16h-145v-144q0 -16 -17 -16h-479q-16 0 -16 16v144h-146q-14 0 -14 16zM268 193h447v608h-447v-608z" />
<glyph unicode="c" d="M76 176v641q0 17 14 17h146v143q0 16 16 16h479q17 0 17 -16v-143h145q14 0 14 -17v-160q0 -16 -14 -16h-162q-16 0 -16 16v144h-447v-608h447v143q0 16 16 16h162q14 0 14 -16v-160q0 -16 -14 -16h-145v-144q0 -16 -17 -16h-479q-16 0 -16 16v144h-146q-14 0 -14 16z " />
<glyph unicode="d" d="M76 176v641q0 17 14 17h146v143q0 16 16 16h463v305q0 15 16 15h162q14 0 14 -15v-1282q0 -16 -14 -16h-641q-16 0 -16 16v144h-146q-14 0 -14 16zM268 193h447v608h-447v-608z" />
<glyph unicode="e" d="M76 176v641q0 17 14 17h146v143q0 16 16 16h479q17 0 17 -16v-143h145q14 0 14 -17v-321q0 -15 -14 -15h-625v-288h463q17 0 17 -17v-160q0 -16 -17 -16h-479q-16 0 -16 16v144h-146q-14 0 -14 16zM268 672h447v129h-447v-129z" />
<glyph unicode="f" horiz-adv-x="655" d="M-8 657v160q0 17 16 17h144v303q0 16 16 16h143v145q0 15 17 15h319q17 0 17 -15v-161q0 -17 -17 -17h-303v-286h143q17 0 17 -17v-160q0 -16 -17 -16h-143v-625q0 -16 -16 -16h-160q-16 0 -16 16v625h-144q-16 0 -16 16z" />
<glyph unicode="g" d="M76 16q0 17 14 17h146v143q0 17 16 17h143v126h-143q-16 0 -16 17v145h-146q-14 0 -14 15v321q0 17 14 17h146v143q0 16 16 16h463v144q0 16 16 16h162q14 0 14 -16v-160q0 -16 -14 -16h-145v-127h145q14 0 14 -17v-321q0 -15 -14 -15h-145v-145q0 -17 -17 -17h-143v-126 h143q17 0 17 -17v-143h145q14 0 14 -17v-321q0 -14 -14 -14h-145v-146q0 -16 -17 -16h-479q-16 0 -16 16v146h-146q-14 0 -14 14v321zM268 0v-289h447v289h-447zM268 512h447v289h-447v-289z" />
<glyph unicode="h" d="M76 16v1282q0 15 14 15h162q16 0 16 -15v-305h463q17 0 17 -16v-143h145q14 0 14 -17v-801q0 -16 -14 -16h-162q-16 0 -16 16v785h-447v-785q0 -16 -16 -16h-162q-14 0 -14 16z" />
<glyph unicode="i" horiz-adv-x="409" d="M-12 817v160q0 16 16 16h320q16 0 16 -16v-961q0 -16 -16 -16h-160q-17 0 -17 16v785h-143q-16 0 -16 16zM147 1137v161q0 15 17 15h160q16 0 16 -15v-161q0 -17 -16 -17h-160q-17 0 -17 17z" />
<glyph unicode="j" horiz-adv-x="409" d="M-12 -305q0 16 16 16h143v1090h-143q-16 0 -16 16v160q0 16 16 16h320q16 0 16 -16v-1282q0 -14 -16 -14h-144v-146q0 -16 -16 -16h-160q-16 0 -16 16v160zM147 1137v161q0 15 17 15h160q16 0 16 -15v-161q0 -17 -16 -17h-160q-17 0 -17 17z" />
<glyph unicode="k" horiz-adv-x="819" d="M74 16v1282q0 15 16 15h160q16 0 16 -15v-626h127v145q0 17 17 17h143v143q0 16 16 16h160q16 0 16 -16v-160q0 -16 -16 -16h-143v-144q0 -16 -17 -16h-143v-129h143q17 0 17 -16v-144h143q16 0 16 -16v-320q0 -16 -16 -16h-160q-16 0 -16 16v303h-143q-17 0 -17 17v145 h-127v-465q0 -16 -16 -16h-160q-16 0 -16 16z" />
<glyph unicode="l" horiz-adv-x="409" d="M-12 1137v161q0 15 16 15h320q16 0 16 -15v-1282q0 -16 -16 -16h-160q-17 0 -17 16v1104h-143q-16 0 -16 17z" />
<glyph unicode="m" horiz-adv-x="1310" d="M78 16v961q0 16 16 16h481q17 0 17 -16v-143h127v143q0 16 16 16h322q14 0 14 -16v-143h146q16 0 16 -17v-801q0 -16 -16 -16h-160q-17 0 -17 16v785h-288v-785q0 -16 -17 -16h-160q-16 0 -16 16v785h-289v-785q0 -16 -16 -16h-160q-16 0 -16 16z" />
<glyph unicode="n" d="M76 16v961q0 16 14 16h641q17 0 17 -16v-143h145q14 0 14 -17v-801q0 -16 -14 -16h-162q-16 0 -16 16v785h-447v-785q0 -16 -16 -16h-162q-14 0 -14 16z" />
<glyph unicode="o" d="M76 176v641q0 17 14 17h146v143q0 16 16 16h479q17 0 17 -16v-143h145q14 0 14 -17v-641q0 -16 -14 -16h-145v-144q0 -16 -17 -16h-479q-16 0 -16 16v144h-146q-14 0 -14 16zM268 193h447v608h-447v-608z" />
<glyph unicode="p" d="M76 -465v1442q0 16 14 16h641q17 0 17 -16v-143h145q14 0 14 -17v-641q0 -16 -14 -16h-145v-144q0 -16 -17 -16h-463v-465q0 -16 -16 -16h-162q-14 0 -14 16zM268 193h447v608h-447v-608z" />
<glyph unicode="q" d="M76 176v641q0 17 14 17h146v143q0 16 16 16h641q14 0 14 -16v-1442q0 -16 -14 -16h-162q-16 0 -16 16v465h-463q-16 0 -16 16v144h-146q-14 0 -14 16zM268 193h447v608h-447v-608z" />
<glyph unicode="r" horiz-adv-x="737" d="M74 16v961q0 16 16 16h160q16 0 16 -16v-143h127v143q0 16 17 16h319q16 0 16 -16v-160q0 -16 -16 -16h-303v-144q0 -16 -16 -16h-144v-625q0 -16 -16 -16h-160q-16 0 -16 16z" />
<glyph unicode="s" d="M76 16v160q0 17 14 17h625v288h-463q-16 0 -16 15v145h-146q-14 0 -14 16v160q0 17 14 17h146v143q0 16 16 16h641q14 0 14 -16v-160q0 -16 -14 -16h-625v-129h463q17 0 17 -15v-145h145q14 0 14 -16v-320q0 -16 -14 -16h-145v-144q0 -16 -17 -16h-641q-14 0 -14 16z" />
<glyph unicode="t" horiz-adv-x="655" d="M72 817v160q0 16 16 16h143v305q0 15 17 15h160q16 0 16 -15v-305h143q17 0 17 -16v-160q0 -16 -17 -16h-143v-608h143q17 0 17 -17v-160q0 -16 -17 -16h-159q-17 0 -17 16v144h-143q-17 0 -17 16v625h-143q-16 0 -16 16z" />
<glyph unicode="u" d="M76 176v801q0 16 14 16h162q16 0 16 -16v-784h447v784q0 16 16 16h162q14 0 14 -16v-961q0 -16 -14 -16h-641q-16 0 -16 16v144h-146q-14 0 -14 16z" />
<glyph unicode="v" d="M76 657v320q0 16 14 16h162q16 0 16 -16v-305h144q16 0 16 -15v-305h127v305q0 15 16 15h144v305q0 16 16 16h162q14 0 14 -16v-320q0 -16 -14 -16h-145v-305q0 -17 -17 -17h-143v-303q0 -16 -17 -16h-159q-17 0 -17 16v303h-143q-16 0 -16 17v305h-146q-14 0 -14 16z " />
<glyph unicode="w" horiz-adv-x="1638" d="M82 657v320q0 16 16 16h160q16 0 16 -16v-305h144q16 0 16 -15v-305h129v305q0 15 17 15h143v305q0 16 16 16h160q16 0 16 -16v-305h144q16 0 16 -15v-305h129v305q0 15 17 15h143v305q0 16 16 16h160q16 0 16 -16v-320q0 -16 -16 -16h-143v-305q0 -17 -17 -17h-145v-303 q0 -16 -14 -16h-162q-17 0 -17 16v303h-143q-16 0 -16 17v305h-127v-305q0 -17 -17 -17h-143v-303q0 -16 -16 -16h-162q-15 0 -15 16v303h-145q-16 0 -16 17v305h-144q-16 0 -16 16z" />
<glyph unicode="x" d="M76 -2v338q0 16 14 16h146v144q0 16 16 16h143v129h-143q-16 0 -16 16v144h-146q-14 0 -14 16v160q0 16 14 16h162q16 0 16 -16v-143h144q16 0 16 -17v-145h127v145q0 17 16 17h144v143q0 16 16 16h162q14 0 14 -16v-160q0 -16 -14 -16h-145v-144q0 -16 -17 -16h-143 v-129h143q17 0 17 -16v-144h145q14 0 14 -16v-320q0 -16 -14 -16h-162q-16 0 -16 16v303h-144q-16 0 -16 17v145h-127v-145q0 -17 -16 -17h-144v-321q0 -16 -16 -16h-162q-14 0 -14 16z" />
<glyph unicode="y" d="M76 -305q0 16 14 16h146v305q0 17 16 17h143v286h-143q-16 0 -16 17v305h-146q-14 0 -14 16v320q0 16 14 16h162q16 0 16 -16v-305h144q16 0 16 -15v-305h127v305q0 15 16 15h144v305q0 16 16 16h162q14 0 14 -16v-320q0 -16 -14 -16h-145v-305q0 -17 -17 -17h-143v-303 q0 -16 -17 -16h-143v-305q0 -14 -16 -14h-144v-146q0 -16 -16 -16h-162q-14 0 -14 16v160z" />
<glyph unicode="z" d="M76 16v320q0 16 14 16h146v144q0 16 16 16h143v145q0 15 17 15h303v129h-625q-14 0 -14 16v160q0 16 14 16h803q14 0 14 -16v-320q0 -16 -14 -16h-145v-145q0 -15 -17 -15h-303v-145q0 -17 -16 -17h-144v-126h625q14 0 14 -17v-160q0 -16 -14 -16h-803q-14 0 -14 16z" />
<glyph unicode="{" horiz-adv-x="655" d="M72 496v321q0 17 16 17h143v624q0 17 17 17h319q17 0 17 -17v-160q0 -16 -17 -16h-143v-465q0 -16 -16 -16h-144v-289h144q16 0 16 -16v-463h143q17 0 17 -17v-159q0 -17 -17 -17h-319q-17 0 -17 17v624h-143q-16 0 -16 15z" />
<glyph unicode="|" horiz-adv-x="327" d="M68 -143v1601q0 17 16 17h160q16 0 16 -17v-1601q0 -17 -16 -17h-160q-16 0 -16 17z" />
<glyph unicode="}" horiz-adv-x="655" d="M72 16q0 17 16 17h143v463q0 16 17 16h143v289h-143q-17 0 -17 16v465h-143q-16 0 -16 16v160q0 17 16 17h320q16 0 16 -17v-624h143q17 0 17 -17v-321q0 -15 -17 -15h-143v-624q0 -17 -16 -17h-320q-16 0 -16 17v159z" />
<glyph unicode="~" horiz-adv-x="1146" d="M78 496v161q0 15 14 15h146v145q0 17 16 17h319q17 0 17 -17v-145h289v145q0 17 14 17h162q14 0 14 -17v-160q0 -16 -14 -16h-146v-145q0 -15 -16 -15h-320q-16 0 -16 15v145h-289v-145q0 -15 -14 -15h-162q-14 0 -14 15z" />
<glyph unicode="&#xa1;" horiz-adv-x="327" d="M68 16v961q0 16 16 16h160q16 0 16 -16v-961q0 -16 -16 -16h-160q-16 0 -16 16zM68 1137v161q0 15 16 15h160q16 0 16 -15v-161q0 -17 -16 -17h-160q-16 0 -16 17z" />
<glyph unicode="&#xa2;" horiz-adv-x="1024" />
<glyph unicode="&#xa3;" d="M76 639v160q0 16 14 16h146v322q0 16 16 16h143v145q0 15 17 15h481q14 0 14 -15v-161q0 -17 -14 -17h-465v-305h303q17 0 17 -16v-160q0 -16 -17 -16h-303v-430h465q14 0 14 -17v-160q0 -16 -14 -16h-641q-16 0 -16 16v607h-146q-14 0 -14 16z" />
<glyph unicode="&#xa4;" d="M76 176v1122q0 15 14 15h162q16 0 16 -15v-305h463q17 0 17 -16v-143h145q14 0 14 -17v-641q0 -16 -14 -16h-145v-144q0 -16 -17 -16h-479q-16 0 -16 16v144h-146q-14 0 -14 16z" />
<glyph unicode="&#xa5;" d="M76 817v481q0 15 14 15h162q16 0 16 -15v-464h144q16 0 16 -17v-145h127v145q0 17 16 17h144v464q0 15 16 15h162q14 0 14 -15v-481q0 -16 -14 -16h-145v-144q0 -16 -17 -16h-143v-156h211q16 0 16 -14v-162q0 -14 -16 -14h-211v-279q0 -16 -17 -16h-159q-17 0 -17 16 v279h-235q-17 0 -17 14v162q0 14 17 14h235v156h-143q-16 0 -16 16v144h-146q-14 0 -14 16z" />
<glyph unicode="&#xa6;" d="M76 176v641q0 17 14 17h146v143q0 16 16 16h463v305q0 15 16 15h162q14 0 14 -15v-1282q0 -16 -14 -16h-641q-16 0 -16 16v144h-146q-14 0 -14 16z" />
<glyph unicode="&#xa7;" d="M76 176v641q0 17 14 17h146v143q0 16 16 16h479q17 0 17 -16v-143h145q14 0 14 -17v-321q0 -15 -14 -15h-625v-288h463q17 0 17 -17v-160q0 -16 -17 -16h-479q-16 0 -16 16v144h-146q-14 0 -14 16z" />
<glyph unicode="&#xa8;" horiz-adv-x="819" d="M74 1137v161q0 15 16 15h160q16 0 16 -15v-161q0 -17 -16 -17h-160q-16 0 -16 17zM553 1137v161q0 15 16 15h160q16 0 16 -15v-161q0 -17 -16 -17h-160q-16 0 -16 17z" />
<glyph unicode="&#xa9;" horiz-adv-x="1298" d="M76 176v961q0 16 14 16h146v145q0 15 16 15h799q16 0 16 -15v-145h145q15 0 15 -16v-961q0 -16 -15 -16h-145v-144q0 -16 -16 -16h-799q-16 0 -16 16v144h-146q-14 0 -14 16zM268 193h766v927h-766v-927zM391 463v397q0 10 8 10h90v88q0 11 11 11h297q10 0 10 -11v-88h90 q8 0 8 -10v-98q0 -10 -8 -10h-100q-11 0 -11 10v88h-276v-377h276v88q0 10 11 10h100q8 0 8 -10v-98q0 -10 -8 -10h-90v-88q0 -11 -10 -11h-297q-11 0 -11 11v88h-90q-8 0 -8 10z" />
<glyph unicode="&#xaa;" d="M76 496v319q0 16 14 16h146v146q0 14 16 14h463v129h-463q-16 0 -16 17v159q0 17 16 17h479q17 0 17 -17v-143h145q14 0 14 -16v-801q0 -17 -14 -17h-641q-16 0 -16 17v143h-146q-14 0 -14 17zM268 512h447v289h-447v-289z" />
<glyph unicode="&#xab;" d="M76 496v161q0 15 14 15h146v145q0 17 16 17h160q16 0 16 -17v-160q0 -16 -16 -16h-144v-129h144q16 0 16 -16v-160q0 -17 -16 -17h-160q-16 0 -16 17v145h-146q-14 0 -14 15zM555 496v161q0 15 16 15h144v145q0 17 16 17h162q14 0 14 -17v-160q0 -16 -14 -16h-145v-129 h145q14 0 14 -16v-160q0 -17 -14 -17h-162q-16 0 -16 17v145h-144q-16 0 -16 15z" />
<glyph unicode="&#xac;" d="M76 16q0 17 14 17h146v143q0 17 16 17h143v126h-143q-16 0 -16 17v145h-146q-14 0 -14 15v321q0 17 14 17h146v143q0 16 16 16h463v144q0 16 16 16h162q14 0 14 -16v-160q0 -16 -14 -16h-145v-127h145q14 0 14 -17v-321q0 -15 -14 -15h-145v-145q0 -17 -17 -17h-143v-126 h143q17 0 17 -17v-143h145q14 0 14 -17v-321q0 -14 -14 -14h-145v-146q0 -16 -17 -16h-479q-16 0 -16 16v146h-146q-14 0 -14 14v321z" />
<glyph unicode="&#xad;" horiz-adv-x="819" d="M74 496v161q0 15 16 15h639q16 0 16 -15v-161q0 -15 -16 -15h-639q-16 0 -16 15z" />
<glyph unicode="&#xae;" horiz-adv-x="1298" d="M76 176v961q0 16 14 16h146v145q0 15 16 15h799q16 0 16 -15v-145h145q15 0 15 -16v-961q0 -16 -15 -16h-145v-144q0 -16 -16 -16h-799q-16 0 -16 16v144h-146q-14 0 -14 16zM268 193h766v927h-766v-927zM424 309v692q0 9 8 9h346q8 0 8 -9v-77h78q8 0 8 -9v-174 q0 -8 -8 -8h-78v-78q0 -8 -8 -8h-78v-69h78q8 0 8 -9v-77h78q8 0 8 -9v-174q0 -8 -8 -8h-86q-10 0 -10 8v164h-78q-8 0 -8 10v78h-78q-8 0 -8 8v78h-68v-338q0 -8 -10 -8h-86q-8 0 -8 8zM528 752h240v153h-240v-153z" />
<glyph unicode="&#xaf;" horiz-adv-x="1024" />
<glyph unicode="&#xb0;" d="M76 -465v1442q0 16 14 16h641q17 0 17 -16v-143h145q14 0 14 -17v-641q0 -16 -14 -16h-145v-144q0 -16 -17 -16h-463v-465q0 -16 -16 -16h-162q-14 0 -14 16z" />
<glyph unicode="&#xb1;" d="M76 176v641q0 17 14 17h146v143q0 16 16 16h641q14 0 14 -16v-1442q0 -16 -14 -16h-162q-16 0 -16 16v465h-463q-16 0 -16 16v144h-146q-14 0 -14 16z" />
<glyph unicode="&#xb2;" d="M76 176v320q0 16 14 16h146v145q0 15 16 15h463v129h-463q-16 0 -16 16v160q0 16 16 16h479q17 0 17 -16v-143h145q14 0 14 -17v-801q0 -16 -14 -16h-641q-16 0 -16 16v144h-146q-14 0 -14 16z" />
<glyph unicode="&#xb3;" horiz-adv-x="1024" />
<glyph unicode="&#xb4;" horiz-adv-x="491" d="M70 1137v161q0 15 16 15h143v145q0 17 17 17h160q16 0 16 -17v-160q0 -16 -16 -16h-144v-145q0 -17 -16 -17h-160q-16 0 -16 17z" />
<glyph unicode="&#xb5;" d="M76 -307v1282q0 16 14 16h162q16 0 16 -16v-785h447v785q0 16 16 16h162q14 0 14 -16v-801q0 -16 -14 -16h-145v-144q0 -16 -17 -16h-463v-305q0 -15 -16 -15h-162q-14 0 -14 15z" />
<glyph unicode="&#xb6;" horiz-adv-x="1024" />
<glyph unicode="&#xb7;" horiz-adv-x="1024" />
<glyph unicode="&#xb8;" horiz-adv-x="491" d="M70 -143q0 14 16 14h143v145q0 17 17 17h160q16 0 16 -17v-159q0 -17 -16 -17h-144v-145q0 -14 -16 -14h-160q-16 0 -16 14v162z" />
<glyph unicode="&#xb9;" horiz-adv-x="1024" />
<glyph unicode="&#xba;" d="M76 496v641q0 16 14 16h146v143q0 17 16 17h479q17 0 17 -17v-143h145q14 0 14 -16v-641q0 -17 -14 -17h-145v-143q0 -17 -17 -17h-479q-16 0 -16 17v143h-146q-14 0 -14 17zM268 512h447v608h-447v-608z" />
<glyph unicode="&#xbb;" d="M76 336v160q0 16 14 16h146v129h-146q-14 0 -14 16v160q0 17 14 17h162q16 0 16 -17v-145h144q16 0 16 -15v-161q0 -15 -16 -15h-144v-145q0 -17 -16 -17h-162q-14 0 -14 17zM555 336v160q0 16 16 16h144v129h-144q-16 0 -16 16v160q0 17 16 17h160q17 0 17 -17v-145h145 q14 0 14 -15v-161q0 -15 -14 -15h-145v-145q0 -17 -17 -17h-160q-16 0 -16 17z" />
<glyph unicode="&#xbc;" horiz-adv-x="1024" />
<glyph unicode="&#xbd;" horiz-adv-x="1024" />
<glyph unicode="&#xbe;" horiz-adv-x="1024" />
<glyph unicode="&#xbf;" d="M76 176v320q0 16 14 16h146v145q0 15 16 15h143v305q0 16 17 16h159q17 0 17 -16v-320q0 -16 -17 -16h-143v-145q0 -15 -16 -15h-144v-288h447v143q0 16 16 16h162q14 0 14 -16v-160q0 -16 -14 -16h-145v-144q0 -16 -17 -16h-479q-16 0 -16 16v144h-146q-14 0 -14 16z M395 1137v161q0 15 17 15h159q17 0 17 -15v-161q0 -17 -17 -17h-159q-17 0 -17 17z" />
<glyph unicode="&#xc0;" d="M76 16v1121q0 16 14 16h146v145q0 15 16 15h479q17 0 17 -15v-145h145q14 0 14 -16v-1121q0 -16 -14 -16h-162q-16 0 -16 16v465h-447v-465q0 -16 -16 -16h-162q-14 0 -14 16zM268 672h447v448h-447v-448zM315 1626v160q0 16 17 16h160q16 0 16 -16v-146h143q17 0 17 -14 v-162q0 -16 -17 -16h-159q-17 0 -17 16v146h-143q-17 0 -17 16z" />
<glyph unicode="&#xc1;" d="M76 16v1121q0 16 14 16h146v145q0 15 16 15h479q17 0 17 -15v-145h145q14 0 14 -16v-1121q0 -16 -14 -16h-162q-16 0 -16 16v465h-447v-465q0 -16 -16 -16h-162q-14 0 -14 16zM268 672h447v448h-447v-448zM315 1464v162q0 14 17 14h143v146q0 16 17 16h159q17 0 17 -16 v-160q0 -16 -17 -16h-143v-146q0 -16 -16 -16h-160q-17 0 -17 16z" />
<glyph unicode="&#xc2;" d="M76 16v1121q0 16 14 16h146v145q0 15 16 15h479q17 0 17 -15v-145h145q14 0 14 -16v-1121q0 -16 -14 -16h-162q-16 0 -16 16v465h-447v-465q0 -16 -16 -16h-162q-14 0 -14 16zM236 1464v162q0 14 16 14h143v146q0 16 17 16h159q17 0 17 -16v-146h143q17 0 17 -14v-162 q0 -16 -17 -16h-160q-16 0 -16 16v146h-127v-146q0 -16 -16 -16h-160q-16 0 -16 16zM268 672h447v448h-447v-448z" />
<glyph unicode="&#xc3;" d="M76 16v1121q0 16 14 16h146v145q0 15 16 15h479q17 0 17 -15v-145h145q14 0 14 -16v-1121q0 -16 -14 -16h-162q-16 0 -16 16v465h-447v-465q0 -16 -16 -16h-162q-14 0 -14 16zM236 1464v162q0 14 16 14h479q17 0 17 -14v-162q0 -16 -17 -16h-479q-16 0 -16 16zM268 672 h447v448h-447v-448z" />
<glyph unicode="&#xc4;" d="M76 16v1121q0 16 14 16h146v145q0 15 16 15h479q17 0 17 -15v-145h145q14 0 14 -16v-1121q0 -16 -14 -16h-162q-16 0 -16 16v465h-447v-465q0 -16 -16 -16h-162q-14 0 -14 16zM156 1464v162q0 14 16 14h160q16 0 16 -14v-162q0 -16 -16 -16h-160q-16 0 -16 16zM268 672 h447v448h-447v-448zM635 1464v162q0 14 16 14h160q16 0 16 -14v-162q0 -16 -16 -16h-160q-16 0 -16 16z" />
<glyph unicode="&#xc5;" d="M76 16v1121q0 16 14 16h146v145q0 15 16 15h479q17 0 17 -15v-145h145q14 0 14 -16v-1121q0 -16 -14 -16h-162q-16 0 -16 16v465h-447v-465q0 -16 -16 -16h-162q-14 0 -14 16zM268 672h447v448h-447v-448zM315 1464v322q0 16 17 16h319q17 0 17 -16v-322q0 -16 -17 -16 h-319q-17 0 -17 16z" />
<glyph unicode="&#xc6;" horiz-adv-x="1474" d="M80 16v320q0 16 16 16h146v305q0 15 14 15h145v305q0 16 17 16h143v305q0 15 17 15h800q17 0 17 -15v-161q0 -17 -17 -17h-465v-286h306q14 0 14 -17v-160q0 -16 -14 -16h-306v-448h465q17 0 17 -17v-160q0 -16 -17 -16h-641q-16 0 -16 16v303h-449v-303q0 -16 -16 -16 h-160q-16 0 -16 16zM432 512h289v449h-127v-304q0 -16 -16 -16h-146v-129z" />
<glyph unicode="&#xc7;" d="M76 176v961q0 16 14 16h146v145q0 15 16 15h479q17 0 17 -15v-145h145q14 0 14 -16v-160q0 -16 -14 -16h-162q-16 0 -16 16v143h-447v-927h447v143q0 16 16 16h162q14 0 14 -16v-160q0 -16 -14 -16h-145v-144q0 -16 -17 -16h-127q-16 0 -16 -16v-160q0 -17 -17 -17h-143 v-145q0 -14 -16 -14h-160q-16 0 -16 14v162q0 14 16 14h143v146q0 16 -16 16h-127q-16 0 -16 16v144h-146q-14 0 -14 16z" />
<glyph unicode="&#xc8;" d="M76 16v1282q0 15 14 15h803q14 0 14 -15v-161q0 -17 -14 -17h-625v-286h463q17 0 17 -17v-160q0 -16 -17 -16h-463v-448h625q14 0 14 -17v-160q0 -16 -14 -16h-803q-14 0 -14 16zM315 1626v160q0 16 17 16h160q16 0 16 -16v-146h143q17 0 17 -14v-162q0 -16 -17 -16h-159 q-17 0 -17 16v146h-143q-17 0 -17 16z" />
<glyph unicode="&#xc9;" d="M76 16v1282q0 15 14 15h803q14 0 14 -15v-161q0 -17 -14 -17h-625v-286h463q17 0 17 -17v-160q0 -16 -17 -16h-463v-448h625q14 0 14 -17v-160q0 -16 -14 -16h-803q-14 0 -14 16zM315 1464v162q0 14 17 14h143v146q0 16 17 16h159q17 0 17 -16v-160q0 -16 -17 -16h-143 v-146q0 -16 -16 -16h-160q-17 0 -17 16z" />
<glyph unicode="&#xca;" d="M76 16v1282q0 15 14 15h803q14 0 14 -15v-161q0 -17 -14 -17h-625v-286h463q17 0 17 -17v-160q0 -16 -17 -16h-463v-448h625q14 0 14 -17v-160q0 -16 -14 -16h-803q-14 0 -14 16zM236 1464v162q0 14 16 14h143v146q0 16 17 16h159q17 0 17 -16v-146h143q17 0 17 -14v-162 q0 -16 -17 -16h-160q-16 0 -16 16v146h-127v-146q0 -16 -16 -16h-160q-16 0 -16 16z" />
<glyph unicode="&#xcb;" d="M76 16v1282q0 15 14 15h803q14 0 14 -15v-161q0 -17 -14 -17h-625v-286h463q17 0 17 -17v-160q0 -16 -17 -16h-463v-448h625q14 0 14 -17v-160q0 -16 -14 -16h-803q-14 0 -14 16zM156 1464v162q0 14 16 14h160q16 0 16 -14v-162q0 -16 -16 -16h-160q-16 0 -16 16z M635 1464v162q0 14 16 14h160q16 0 16 -14v-162q0 -16 -16 -16h-160q-16 0 -16 16z" />
<glyph unicode="&#xcc;" horiz-adv-x="327" d="M-10 1626v160q0 16 16 16h160q16 0 16 -16v-146h144q16 0 16 -14v-162q0 -16 -16 -16h-160q-16 0 -16 16v146h-144q-16 0 -16 16zM68 16v1282q0 15 16 15h160q16 0 16 -15v-1282q0 -16 -16 -16h-160q-16 0 -16 16z" />
<glyph unicode="&#xcd;" horiz-adv-x="327" d="M-10 1464v162q0 14 16 14h144v146q0 16 16 16h160q16 0 16 -16v-160q0 -16 -16 -16h-144v-146q0 -16 -16 -16h-160q-16 0 -16 16zM68 16v1282q0 15 16 15h160q16 0 16 -15v-1282q0 -16 -16 -16h-160q-16 0 -16 16z" />
<glyph unicode="&#xce;" horiz-adv-x="327" d="M-90 1464v162q0 14 16 14h144v146q0 16 16 16h160q16 0 16 -16v-146h144q16 0 16 -14v-162q0 -16 -16 -16h-160q-17 0 -17 16v146h-127v-146q0 -16 -16 -16h-160q-16 0 -16 16zM68 16v1282q0 15 16 15h160q16 0 16 -15v-1282q0 -16 -16 -16h-160q-16 0 -16 16z" />
<glyph unicode="&#xcf;" horiz-adv-x="327" d="M-170 1464v162q0 14 16 14h160q17 0 17 -14v-162q0 -16 -17 -16h-160q-16 0 -16 16zM68 16v1282q0 15 16 15h160q16 0 16 -15v-1282q0 -16 -16 -16h-160q-16 0 -16 16zM309 1464v162q0 14 17 14h159q17 0 17 -14v-162q0 -16 -17 -16h-159q-17 0 -17 16z" />
<glyph unicode="&#xd0;" horiz-adv-x="1146" d="M78 657v160q0 17 14 17h146v464q0 15 16 15h639q16 0 16 -15v-145h146q14 0 14 -16v-961q0 -16 -14 -16h-146v-144q0 -16 -16 -16h-639q-16 0 -16 16v625h-146q-14 0 -14 16zM430 193h449v927h-449v-286h143q17 0 17 -17v-160q0 -16 -17 -16h-143v-448z" />
<glyph unicode="&#xd1;" horiz-adv-x="1146" d="M78 16v1282q0 15 14 15h162q14 0 14 -15v-145h146q16 0 16 -16v-144h143q17 0 17 -16v-305h143q17 0 17 -15v-305h129v946q0 15 14 15h162q14 0 14 -15v-1282q0 -16 -14 -16h-162q-14 0 -14 16v144h-146q-16 0 -16 16v143h-144q-16 0 -16 17v305h-143q-17 0 -17 16v304 h-129v-945q0 -16 -14 -16h-162q-14 0 -14 16zM317 1464v162q0 14 17 14h479q16 0 16 -14v-162q0 -16 -16 -16h-479q-17 0 -17 16z" />
<glyph unicode="&#xd2;" d="M76 176v961q0 16 14 16h146v145q0 15 16 15h479q17 0 17 -15v-145h145q14 0 14 -16v-961q0 -16 -14 -16h-145v-144q0 -16 -17 -16h-479q-16 0 -16 16v144h-146q-14 0 -14 16zM268 193h447v927h-447v-927zM315 1626v160q0 16 17 16h160q16 0 16 -16v-146h143q17 0 17 -14 v-162q0 -16 -17 -16h-159q-17 0 -17 16v146h-143q-17 0 -17 16z" />
<glyph unicode="&#xd3;" d="M76 176v961q0 16 14 16h146v145q0 15 16 15h479q17 0 17 -15v-145h145q14 0 14 -16v-961q0 -16 -14 -16h-145v-144q0 -16 -17 -16h-479q-16 0 -16 16v144h-146q-14 0 -14 16zM268 193h447v927h-447v-927zM315 1464v162q0 14 17 14h143v146q0 16 17 16h159q17 0 17 -16 v-160q0 -16 -17 -16h-143v-146q0 -16 -16 -16h-160q-17 0 -17 16z" />
<glyph unicode="&#xd4;" d="M76 176v961q0 16 14 16h146v145q0 15 16 15h479q17 0 17 -15v-145h145q14 0 14 -16v-961q0 -16 -14 -16h-145v-144q0 -16 -17 -16h-479q-16 0 -16 16v144h-146q-14 0 -14 16zM236 1464v162q0 14 16 14h143v146q0 16 17 16h159q17 0 17 -16v-146h143q17 0 17 -14v-162 q0 -16 -17 -16h-160q-16 0 -16 16v146h-127v-146q0 -16 -16 -16h-160q-16 0 -16 16zM268 193h447v927h-447v-927z" />
<glyph unicode="&#xd5;" d="M76 176v961q0 16 14 16h146v145q0 15 16 15h479q17 0 17 -15v-145h145q14 0 14 -16v-961q0 -16 -14 -16h-145v-144q0 -16 -17 -16h-479q-16 0 -16 16v144h-146q-14 0 -14 16zM236 1464v162q0 14 16 14h479q17 0 17 -14v-162q0 -16 -17 -16h-479q-16 0 -16 16zM268 193 h447v927h-447v-927z" />
<glyph unicode="&#xd6;" d="M76 176v961q0 16 14 16h146v145q0 15 16 15h479q17 0 17 -15v-145h145q14 0 14 -16v-961q0 -16 -14 -16h-145v-144q0 -16 -17 -16h-479q-16 0 -16 16v144h-146q-14 0 -14 16zM156 1464v162q0 14 16 14h160q16 0 16 -14v-162q0 -16 -16 -16h-160q-16 0 -16 16zM268 193 h447v927h-447v-927zM635 1464v162q0 14 16 14h160q16 0 16 -14v-162q0 -16 -16 -16h-160q-16 0 -16 16z" />
<glyph unicode="&#xd7;" horiz-adv-x="1024" />
<glyph unicode="&#xd8;" d="M76 176v961q0 16 14 16h146v145q0 15 16 15h479q17 0 17 -15v-145h145q14 0 14 -16v-961q0 -16 -14 -16h-145v-144q0 -16 -17 -16h-479q-16 0 -16 16v144h-146q-14 0 -14 16zM268 193h447v608h-127v-305q0 -15 -17 -15h-143v-145q0 -17 -16 -17h-144v-126zM268 512h127 v305q0 17 17 17h143v143q0 16 16 16h144v127h-447v-608z" />
<glyph unicode="&#xd9;" d="M76 176v1122q0 15 14 15h162q16 0 16 -15v-1105h447v1105q0 15 16 15h162q14 0 14 -15v-1122q0 -16 -14 -16h-145v-144q0 -16 -17 -16h-479q-16 0 -16 16v144h-146q-14 0 -14 16zM315 1626v160q0 16 17 16h160q16 0 16 -16v-146h143q17 0 17 -14v-162q0 -16 -17 -16h-159 q-17 0 -17 16v146h-143q-17 0 -17 16z" />
<glyph unicode="&#xda;" d="M76 176v1122q0 15 14 15h162q16 0 16 -15v-1105h447v1105q0 15 16 15h162q14 0 14 -15v-1122q0 -16 -14 -16h-145v-144q0 -16 -17 -16h-479q-16 0 -16 16v144h-146q-14 0 -14 16zM315 1464v162q0 14 17 14h143v146q0 16 17 16h159q17 0 17 -16v-160q0 -16 -17 -16h-143 v-146q0 -16 -16 -16h-160q-17 0 -17 16z" />
<glyph unicode="&#xdb;" d="M76 176v1122q0 15 14 15h162q16 0 16 -15v-1105h447v1105q0 15 16 15h162q14 0 14 -15v-1122q0 -16 -14 -16h-145v-144q0 -16 -17 -16h-479q-16 0 -16 16v144h-146q-14 0 -14 16zM236 1464v162q0 14 16 14h143v146q0 16 17 16h159q17 0 17 -16v-146h143q17 0 17 -14v-162 q0 -16 -17 -16h-160q-16 0 -16 16v146h-127v-146q0 -16 -16 -16h-160q-16 0 -16 16z" />
<glyph unicode="&#xdc;" d="M76 176v1122q0 15 14 15h162q16 0 16 -15v-1105h447v1105q0 15 16 15h162q14 0 14 -15v-1122q0 -16 -14 -16h-145v-144q0 -16 -17 -16h-479q-16 0 -16 16v144h-146q-14 0 -14 16zM156 1464v162q0 14 16 14h160q16 0 16 -14v-162q0 -16 -16 -16h-160q-16 0 -16 16z M635 1464v162q0 14 16 14h160q16 0 16 -14v-162q0 -16 -16 -16h-160q-16 0 -16 16z" />
<glyph unicode="&#xdd;" d="M76 817v481q0 15 14 15h162q16 0 16 -15v-464h144q16 0 16 -17v-145h127v145q0 17 16 17h144v464q0 15 16 15h162q14 0 14 -15v-481q0 -16 -14 -16h-145v-144q0 -16 -17 -16h-143v-625q0 -16 -17 -16h-159q-17 0 -17 16v625h-143q-16 0 -16 16v144h-146q-14 0 -14 16z M315 1464v162q0 14 17 14h143v146q0 16 17 16h159q17 0 17 -16v-160q0 -16 -17 -16h-143v-146q0 -16 -16 -16h-160q-17 0 -17 16z" />
<glyph unicode="&#xde;" d="M76 16v1282q0 15 14 15h162q16 0 16 -15v-145h463q17 0 17 -16v-144h145q14 0 14 -16v-481q0 -15 -14 -15h-145v-145q0 -17 -17 -17h-463v-303q0 -16 -16 -16h-162q-14 0 -14 16zM268 512h447v449h-447v-449z" />
<glyph unicode="&#xdf;" d="M76 16v1121q0 16 14 16h146v145q0 15 16 15h479q17 0 17 -15v-145h145q14 0 14 -16v-320q0 -16 -14 -16h-145v-129h145q14 0 14 -15v-481q0 -16 -14 -16h-123v-144q0 -16 -16 -16h-342q-17 0 -17 16v160q0 17 17 17h303v448h-303q-17 0 -17 16v160q0 17 17 17h303v286 h-447v-1104q0 -16 -16 -16h-162q-14 0 -14 16z" />
<glyph unicode="&#xe0;" d="M76 176v320q0 16 14 16h146v145q0 15 16 15h463v129h-463q-16 0 -16 16v160q0 16 16 16h479q17 0 17 -16v-143h145q14 0 14 -17v-801q0 -16 -14 -16h-641q-16 0 -16 16v144h-146q-14 0 -14 16zM268 193h447v288h-447v-288zM315 1298v160q0 17 17 17h160q16 0 16 -17v-145 h143q17 0 17 -15v-161q0 -17 -17 -17h-159q-17 0 -17 17v145h-143q-17 0 -17 16z" />
<glyph unicode="&#xe1;" d="M76 176v320q0 16 14 16h146v145q0 15 16 15h463v129h-463q-16 0 -16 16v160q0 16 16 16h479q17 0 17 -16v-143h145q14 0 14 -17v-801q0 -16 -14 -16h-641q-16 0 -16 16v144h-146q-14 0 -14 16zM268 193h447v288h-447v-288zM315 1137v161q0 15 17 15h143v145q0 17 17 17 h159q17 0 17 -17v-160q0 -16 -17 -16h-143v-145q0 -17 -16 -17h-160q-17 0 -17 17z" />
<glyph unicode="&#xe2;" d="M76 176v320q0 16 14 16h146v145q0 15 16 15h463v129h-463q-16 0 -16 16v160q0 16 16 16h479q17 0 17 -16v-143h145q14 0 14 -17v-801q0 -16 -14 -16h-641q-16 0 -16 16v144h-146q-14 0 -14 16zM236 1137v161q0 15 16 15h143v145q0 17 17 17h159q17 0 17 -17v-145h143 q17 0 17 -15v-161q0 -17 -17 -17h-160q-16 0 -16 17v145h-127v-145q0 -17 -16 -17h-160q-16 0 -16 17zM268 193h447v288h-447v-288z" />
<glyph unicode="&#xe3;" d="M76 176v320q0 16 14 16h146v145q0 15 16 15h463v129h-463q-16 0 -16 16v160q0 16 16 16h479q17 0 17 -16v-143h145q14 0 14 -17v-801q0 -16 -14 -16h-641q-16 0 -16 16v144h-146q-14 0 -14 16zM236 1137v161q0 15 16 15h479q17 0 17 -15v-161q0 -17 -17 -17h-479 q-16 0 -16 17zM268 193h447v288h-447v-288z" />
<glyph unicode="&#xe4;" d="M76 176v320q0 16 14 16h146v145q0 15 16 15h463v129h-463q-16 0 -16 16v160q0 16 16 16h479q17 0 17 -16v-143h145q14 0 14 -17v-801q0 -16 -14 -16h-641q-16 0 -16 16v144h-146q-14 0 -14 16zM156 1137v161q0 15 16 15h160q16 0 16 -15v-161q0 -17 -16 -17h-160 q-16 0 -16 17zM268 193h447v288h-447v-288zM635 1137v161q0 15 16 15h160q16 0 16 -15v-161q0 -17 -16 -17h-160q-16 0 -16 17z" />
<glyph unicode="&#xe5;" d="M76 176v320q0 16 14 16h146v145q0 15 16 15h463v129h-463q-16 0 -16 16v160q0 16 16 16h479q17 0 17 -16v-143h145q14 0 14 -17v-801q0 -16 -14 -16h-641q-16 0 -16 16v144h-146q-14 0 -14 16zM268 193h447v288h-447v-288zM315 1137v321q0 17 17 17h319q17 0 17 -17v-321 q0 -17 -17 -17h-319q-17 0 -17 17z" />
<glyph unicode="&#xe6;" horiz-adv-x="1310" d="M78 176v320q0 16 16 16h146v145q0 15 14 15h305v129h-465q-16 0 -16 16v160q0 16 16 16h481q17 0 17 -16v-143h127v143q0 16 16 16h322q14 0 14 -16v-143h146q16 0 16 -17v-481q0 -17 -16 -17h-465v-126h465q16 0 16 -17v-160q0 -16 -16 -16h-482q-16 0 -16 16v144h-127 v-144q0 -16 -17 -16h-321q-14 0 -14 16v144h-146q-16 0 -16 16zM270 193h289v288h-289v-288zM752 512h288v289h-288v-289z" />
<glyph unicode="&#xe7;" d="M76 176v641q0 17 14 17h146v143q0 16 16 16h479q17 0 17 -16v-143h145q14 0 14 -17v-160q0 -16 -14 -16h-162q-16 0 -16 16v144h-447v-608h447v143q0 16 16 16h162q14 0 14 -16v-160q0 -16 -14 -16h-145v-144q0 -16 -17 -16h-127q-16 0 -16 -16v-160q0 -17 -17 -17h-143 v-145q0 -14 -16 -14h-160q-16 0 -16 14v162q0 14 16 14h143v146q0 16 -14 16h-129q-16 0 -16 16v144h-146q-14 0 -14 16z" />
<glyph unicode="&#xe8;" d="M76 176v641q0 17 14 17h146v143q0 16 16 16h479q17 0 17 -16v-143h145q14 0 14 -17v-321q0 -15 -14 -15h-625v-288h463q17 0 17 -17v-160q0 -16 -17 -16h-479q-16 0 -16 16v144h-146q-14 0 -14 16zM268 672h447v129h-447v-129zM315 1298v160q0 17 17 17h160q16 0 16 -17 v-145h143q17 0 17 -15v-161q0 -17 -17 -17h-159q-17 0 -17 17v145h-143q-17 0 -17 16z" />
<glyph unicode="&#xe9;" d="M76 176v641q0 17 14 17h146v143q0 16 16 16h479q17 0 17 -16v-143h145q14 0 14 -17v-321q0 -15 -14 -15h-625v-288h463q17 0 17 -17v-160q0 -16 -17 -16h-479q-16 0 -16 16v144h-146q-14 0 -14 16zM268 672h447v129h-447v-129zM315 1137v161q0 15 17 15h143v145 q0 17 17 17h159q17 0 17 -17v-160q0 -16 -17 -16h-143v-145q0 -17 -16 -17h-160q-17 0 -17 17z" />
<glyph unicode="&#xea;" d="M76 176v641q0 17 14 17h146v143q0 16 16 16h479q17 0 17 -16v-143h145q14 0 14 -17v-321q0 -15 -14 -15h-625v-288h463q17 0 17 -17v-160q0 -16 -17 -16h-479q-16 0 -16 16v144h-146q-14 0 -14 16zM236 1137v161q0 15 16 15h143v145q0 17 17 17h159q17 0 17 -17v-145h143 q17 0 17 -15v-161q0 -17 -17 -17h-160q-16 0 -16 17v145h-127v-145q0 -17 -16 -17h-160q-16 0 -16 17zM268 672h447v129h-447v-129z" />
<glyph unicode="&#xeb;" d="M76 176v641q0 17 14 17h146v143q0 16 16 16h479q17 0 17 -16v-143h145q14 0 14 -17v-321q0 -15 -14 -15h-625v-288h463q17 0 17 -17v-160q0 -16 -17 -16h-479q-16 0 -16 16v144h-146q-14 0 -14 16zM156 1137v161q0 15 16 15h160q16 0 16 -15v-161q0 -17 -16 -17h-160 q-16 0 -16 17zM268 672h447v129h-447v-129zM635 1137v161q0 15 16 15h160q16 0 16 -15v-161q0 -17 -16 -17h-160q-16 0 -16 17z" />
<glyph unicode="&#xec;" horiz-adv-x="409" d="M-12 817v160q0 16 16 16h320q16 0 16 -16v-961q0 -16 -16 -16h-160q-17 0 -17 16v785h-143q-16 0 -16 16zM31 1298v160q0 17 16 17h160q16 0 16 -17v-145h144q16 0 16 -15v-161q0 -17 -16 -17h-160q-17 0 -17 17v145h-143q-16 0 -16 16z" />
<glyph unicode="&#xed;" horiz-adv-x="409" d="M-12 817v160q0 16 16 16h320q16 0 16 -16v-961q0 -16 -16 -16h-160q-17 0 -17 16v785h-143q-16 0 -16 16zM31 1137v161q0 15 16 15h143v145q0 17 17 17h160q16 0 16 -17v-160q0 -16 -16 -16h-144v-145q0 -17 -16 -17h-160q-16 0 -16 17z" />
<glyph unicode="&#xee;" horiz-adv-x="409" d="M-49 1137v161q0 15 16 15h144v145q0 17 16 17h160q16 0 16 -17v-145h143q17 0 17 -15v-161q0 -17 -17 -17h-159q-17 0 -17 17v145h-127v-145q0 -17 -16 -17h-160q-16 0 -16 17zM-12 817v160q0 16 16 16h320q16 0 16 -16v-961q0 -16 -16 -16h-160q-17 0 -17 16v785h-143 q-16 0 -16 16z" />
<glyph unicode="&#xef;" horiz-adv-x="409" d="M-129 1137v161q0 15 16 15h160q16 0 16 -15v-161q0 -17 -16 -17h-160q-16 0 -16 17zM-12 817v160q0 16 16 16h320q16 0 16 -16v-961q0 -16 -16 -16h-160q-17 0 -17 16v785h-143q-16 0 -16 16zM350 1137v161q0 15 17 15h159q17 0 17 -15v-161q0 -17 -17 -17h-159 q-17 0 -17 17z" />
<glyph unicode="&#xf0;" d="M76 176v641q0 17 14 17h146v143q0 16 16 16h463v127h-303q-17 0 -17 17v161q0 15 17 15h319q17 0 17 -15v-145h145q14 0 14 -16v-961q0 -16 -14 -16h-145v-144q0 -16 -17 -16h-479q-16 0 -16 16v144h-146q-14 0 -14 16zM268 193h447v608h-447v-608z" />
<glyph unicode="&#xf1;" d="M76 16v961q0 16 14 16h641q17 0 17 -16v-143h145q14 0 14 -17v-801q0 -16 -14 -16h-162q-16 0 -16 16v785h-447v-785q0 -16 -16 -16h-162q-14 0 -14 16zM236 1137v161q0 15 16 15h479q17 0 17 -15v-161q0 -17 -17 -17h-479q-16 0 -16 17z" />
<glyph unicode="&#xf2;" d="M76 176v641q0 17 14 17h146v143q0 16 16 16h479q17 0 17 -16v-143h145q14 0 14 -17v-641q0 -16 -14 -16h-145v-144q0 -16 -17 -16h-479q-16 0 -16 16v144h-146q-14 0 -14 16zM268 193h447v608h-447v-608zM315 1298v160q0 17 17 17h160q16 0 16 -17v-145h143q17 0 17 -15 v-161q0 -17 -17 -17h-159q-17 0 -17 17v145h-143q-17 0 -17 16z" />
<glyph unicode="&#xf3;" d="M76 176v641q0 17 14 17h146v143q0 16 16 16h479q17 0 17 -16v-143h145q14 0 14 -17v-641q0 -16 -14 -16h-145v-144q0 -16 -17 -16h-479q-16 0 -16 16v144h-146q-14 0 -14 16zM268 193h447v608h-447v-608zM315 1137v161q0 15 17 15h143v145q0 17 17 17h159q17 0 17 -17 v-160q0 -16 -17 -16h-143v-145q0 -17 -16 -17h-160q-17 0 -17 17z" />
<glyph unicode="&#xf4;" d="M76 176v641q0 17 14 17h146v143q0 16 16 16h479q17 0 17 -16v-143h145q14 0 14 -17v-641q0 -16 -14 -16h-145v-144q0 -16 -17 -16h-479q-16 0 -16 16v144h-146q-14 0 -14 16zM236 1137v161q0 15 16 15h143v145q0 17 17 17h159q17 0 17 -17v-145h143q17 0 17 -15v-161 q0 -17 -17 -17h-160q-16 0 -16 17v145h-127v-145q0 -17 -16 -17h-160q-16 0 -16 17zM268 193h447v608h-447v-608z" />
<glyph unicode="&#xf5;" d="M76 176v641q0 17 14 17h146v143q0 16 16 16h479q17 0 17 -16v-143h145q14 0 14 -17v-641q0 -16 -14 -16h-145v-144q0 -16 -17 -16h-479q-16 0 -16 16v144h-146q-14 0 -14 16zM236 1137v161q0 15 16 15h479q17 0 17 -15v-161q0 -17 -17 -17h-479q-16 0 -16 17zM268 193 h447v608h-447v-608z" />
<glyph unicode="&#xf6;" d="M76 176v641q0 17 14 17h146v143q0 16 16 16h479q17 0 17 -16v-143h145q14 0 14 -17v-641q0 -16 -14 -16h-145v-144q0 -16 -17 -16h-479q-16 0 -16 16v144h-146q-14 0 -14 16zM156 1137v161q0 15 16 15h160q16 0 16 -15v-161q0 -17 -16 -17h-160q-16 0 -16 17zM268 193 h447v608h-447v-608zM635 1137v161q0 15 16 15h160q16 0 16 -15v-161q0 -17 -16 -17h-160q-16 0 -16 17z" />
<glyph unicode="&#xf7;" horiz-adv-x="1024" />
<glyph unicode="&#xf8;" d="M76 176v641q0 17 14 17h146v143q0 16 16 16h479q17 0 17 -16v-143h145q14 0 14 -17v-641q0 -16 -14 -16h-145v-144q0 -16 -17 -16h-479q-16 0 -16 16v144h-146q-14 0 -14 16zM268 352h127v281q0 16 17 16h145q-2 2 -2 8v144h-287v-449zM428 193h287v448h-111q0 -1 1 -4 t1 -4v-297q0 -17 -16 -17h-162v-126z" />
<glyph unicode="&#xf9;" d="M76 176v801q0 16 14 16h162q16 0 16 -16v-784h447v784q0 16 16 16h162q14 0 14 -16v-961q0 -16 -14 -16h-641q-16 0 -16 16v144h-146q-14 0 -14 16zM315 1298v160q0 17 17 17h160q16 0 16 -17v-145h143q17 0 17 -15v-161q0 -17 -17 -17h-159q-17 0 -17 17v145h-143 q-17 0 -17 16z" />
<glyph unicode="&#xfa;" d="M76 176v801q0 16 14 16h162q16 0 16 -16v-784h447v784q0 16 16 16h162q14 0 14 -16v-961q0 -16 -14 -16h-641q-16 0 -16 16v144h-146q-14 0 -14 16zM315 1137v161q0 15 17 15h143v145q0 17 17 17h159q17 0 17 -17v-160q0 -16 -17 -16h-143v-145q0 -17 -16 -17h-160 q-17 0 -17 17z" />
<glyph unicode="&#xfb;" d="M76 176v801q0 16 14 16h162q16 0 16 -16v-784h447v784q0 16 16 16h162q14 0 14 -16v-961q0 -16 -14 -16h-641q-16 0 -16 16v144h-146q-14 0 -14 16zM236 1137v161q0 15 16 15h143v145q0 17 17 17h159q17 0 17 -17v-145h143q17 0 17 -15v-161q0 -17 -17 -17h-160 q-16 0 -16 17v145h-127v-145q0 -17 -16 -17h-160q-16 0 -16 17z" />
<glyph unicode="&#xfc;" d="M76 176v801q0 16 14 16h162q16 0 16 -16v-784h447v784q0 16 16 16h162q14 0 14 -16v-961q0 -16 -14 -16h-641q-16 0 -16 16v144h-146q-14 0 -14 16zM156 1137v161q0 15 16 15h160q16 0 16 -15v-161q0 -17 -16 -17h-160q-16 0 -16 17zM635 1137v161q0 15 16 15h160 q16 0 16 -15v-161q0 -17 -16 -17h-160q-16 0 -16 17z" />
<glyph unicode="&#xfd;" d="M76 -305q0 16 14 16h146v305q0 17 16 17h143v286h-143q-16 0 -16 17v305h-146q-14 0 -14 16v320q0 16 14 16h162q16 0 16 -16v-305h144q16 0 16 -15v-305h127v305q0 15 16 15h144v305q0 16 16 16h162q14 0 14 -16v-320q0 -16 -14 -16h-145v-305q0 -17 -17 -17h-143v-303 q0 -16 -17 -16h-143v-305q0 -14 -16 -14h-144v-146q0 -16 -16 -16h-162q-14 0 -14 16v160zM315 1137v161q0 15 17 15h143v145q0 17 17 17h159q17 0 17 -17v-160q0 -16 -17 -16h-143v-145q0 -17 -16 -17h-160q-17 0 -17 17z" />
<glyph unicode="&#xfe;" d="M76 -465v1763q0 15 14 15h162q16 0 16 -15v-305h463q17 0 17 -16v-143h145q14 0 14 -17v-641q0 -16 -14 -16h-145v-144q0 -16 -17 -16h-463v-465q0 -16 -16 -16h-162q-14 0 -14 16zM268 193h447v608h-447v-608z" />
<glyph unicode="&#xff;" d="M76 -305q0 16 14 16h146v305q0 17 16 17h143v286h-143q-16 0 -16 17v305h-146q-14 0 -14 16v320q0 16 14 16h162q16 0 16 -16v-305h144q16 0 16 -15v-305h127v305q0 15 16 15h144v305q0 16 16 16h162q14 0 14 -16v-320q0 -16 -14 -16h-145v-305q0 -17 -17 -17h-143v-303 q0 -16 -17 -16h-143v-305q0 -14 -16 -14h-144v-146q0 -16 -16 -16h-162q-14 0 -14 16v160zM156 1137v161q0 15 16 15h160q16 0 16 -15v-161q0 -17 -16 -17h-160q-16 0 -16 17zM635 1137v161q0 15 16 15h160q16 0 16 -15v-161q0 -17 -16 -17h-160q-16 0 -16 17z" />
<glyph unicode="&#x152;" horiz-adv-x="1310" d="M78 176v961q0 16 16 16h146v145q0 15 14 15h963q16 0 16 -15v-161q0 -17 -16 -17h-465v-286h305q14 0 14 -17v-160q0 -16 -14 -16h-305v-448h465q16 0 16 -17v-160q0 -16 -16 -16h-963q-14 0 -14 16v144h-146q-16 0 -16 16zM270 193h289v927h-289v-927z" />
<glyph unicode="&#x153;" horiz-adv-x="1310" d="M78 176v641q0 17 16 17h146v143q0 16 14 16h321q17 0 17 -16v-143h127v143q0 16 16 16h322q14 0 14 -16v-143h146q16 0 16 -17v-481q0 -17 -16 -17h-465v-126h465q16 0 16 -17v-160q0 -16 -16 -16h-482q-16 0 -16 16v144h-127v-144q0 -16 -17 -16h-321q-14 0 -14 16v144 h-146q-16 0 -16 16zM270 193h289v608h-289v-608zM752 512h288v289h-288v-289z" />
<glyph unicode="&#x178;" d="M76 817v481q0 15 14 15h162q16 0 16 -15v-464h144q16 0 16 -17v-145h127v145q0 17 16 17h144v464q0 15 16 15h162q14 0 14 -15v-481q0 -16 -14 -16h-145v-144q0 -16 -17 -16h-143v-625q0 -16 -17 -16h-159q-17 0 -17 16v625h-143q-16 0 -16 16v144h-146q-14 0 -14 16z M156 1464v162q0 14 16 14h160q16 0 16 -14v-162q0 -16 -16 -16h-160q-16 0 -16 16zM635 1464v162q0 14 16 14h160q16 0 16 -14v-162q0 -16 -16 -16h-160q-16 0 -16 16z" />
<glyph unicode="&#x2c6;" horiz-adv-x="655" d="M72 1137v161q0 15 16 15h143v145q0 17 17 17h160q16 0 16 -17v-145h143q17 0 17 -15v-161q0 -17 -17 -17h-159q-17 0 -17 17v145h-127v-145q0 -17 -16 -17h-160q-16 0 -16 17z" />
<glyph unicode="&#x2dc;" horiz-adv-x="1024" d="M-10 1137v161q0 15 16 15h479q17 0 17 -15v-161q0 -17 -17 -17h-479q-16 0 -16 17z" />
<glyph unicode="&#x2000;" horiz-adv-x="901" />
<glyph unicode="&#x2001;" horiz-adv-x="1802" />
<glyph unicode="&#x2002;" horiz-adv-x="901" />
<glyph unicode="&#x2003;" horiz-adv-x="1802" />
<glyph unicode="&#x2004;" horiz-adv-x="600" />
<glyph unicode="&#x2005;" horiz-adv-x="450" />
<glyph unicode="&#x2006;" horiz-adv-x="300" />
<glyph unicode="&#x2007;" horiz-adv-x="300" />
<glyph unicode="&#x2008;" horiz-adv-x="225" />
<glyph unicode="&#x2009;" horiz-adv-x="360" />
<glyph unicode="&#x200a;" horiz-adv-x="100" />
<glyph unicode="&#x2010;" horiz-adv-x="819" d="M74 496v161q0 15 16 15h639q16 0 16 -15v-161q0 -15 -16 -15h-639q-16 0 -16 15z" />
<glyph unicode="&#x2011;" horiz-adv-x="819" d="M74 496v161q0 15 16 15h639q16 0 16 -15v-161q0 -15 -16 -15h-639q-16 0 -16 15z" />
<glyph unicode="&#x2012;" horiz-adv-x="819" d="M74 496v161q0 15 16 15h639q16 0 16 -15v-161q0 -15 -16 -15h-639q-16 0 -16 15z" />
<glyph unicode="&#x2013;" horiz-adv-x="1146" d="M78 496v161q0 15 14 15h963q14 0 14 -15v-161q0 -15 -14 -15h-963q-14 0 -14 15z" />
<glyph unicode="&#x2014;" horiz-adv-x="1638" d="M82 496v161q0 15 16 15h1442q16 0 16 -15v-161q0 -15 -16 -15h-1442q-16 0 -16 15z" />
<glyph unicode="&#x2018;" horiz-adv-x="491" d="M70 1137v161q0 15 16 15h160q16 0 16 -15v-145h144q16 0 16 -16v-160q0 -16 -16 -16h-160q-17 0 -17 16v143h-143q-16 0 -16 17z" />
<glyph unicode="&#x2019;" horiz-adv-x="491" d="M70 977v160q0 16 16 16h143v145q0 15 17 15h160q16 0 16 -15v-161q0 -17 -16 -17h-144v-143q0 -16 -16 -16h-160q-16 0 -16 16z" />
<glyph unicode="&#x201a;" horiz-adv-x="491" d="M70 16q0 17 16 17h143v143q0 17 17 17h160q16 0 16 -17v-160q0 -16 -16 -16h-144v-143q0 -17 -16 -17h-160q-16 0 -16 17v159z" />
<glyph unicode="&#x201c;" d="M76 1137v161q0 15 14 15h162q16 0 16 -15v-145h144q16 0 16 -16v-160q0 -16 -16 -16h-160q-16 0 -16 16v143h-146q-14 0 -14 17zM555 1137v161q0 15 16 15h160q17 0 17 -15v-145h145q14 0 14 -16v-160q0 -16 -14 -16h-162q-16 0 -16 16v143h-144q-16 0 -16 17z" />
<glyph unicode="&#x201d;" d="M76 977v160q0 16 14 16h146v145q0 15 16 15h160q16 0 16 -15v-161q0 -17 -16 -17h-144v-143q0 -16 -16 -16h-162q-14 0 -14 16zM555 977v160q0 16 16 16h144v145q0 15 16 15h162q14 0 14 -15v-161q0 -17 -14 -17h-145v-143q0 -16 -17 -16h-160q-16 0 -16 16z" />
<glyph unicode="&#x201e;" d="M76 16q0 17 14 17h146v143q0 17 16 17h160q16 0 16 -17v-160q0 -16 -16 -16h-144v-143q0 -17 -16 -17h-162q-14 0 -14 17v159zM555 16q0 17 16 17h144v143q0 17 16 17h162q14 0 14 -17v-160q0 -16 -14 -16h-145v-143q0 -17 -17 -17h-160q-16 0 -16 17v159z" />
<glyph unicode="&#x2022;" horiz-adv-x="655" d="M72 336v481q0 17 16 17h479q17 0 17 -17v-481q0 -17 -17 -17h-479q-16 0 -16 17z" />
<glyph unicode="&#x2026;" horiz-adv-x="2949" d="M578 16v160q0 17 16 17h160q16 0 16 -17v-160q0 -16 -16 -16h-160q-16 0 -16 16zM1378 16v160q0 17 17 17h159q17 0 17 -17v-160q0 -16 -17 -16h-159q-17 0 -17 16zM2179 16v160q0 17 16 17h160q17 0 17 -17v-160q0 -16 -17 -16h-160q-16 0 -16 16z" />
<glyph unicode="&#x202f;" horiz-adv-x="360" />
<glyph unicode="&#x2039;" horiz-adv-x="491" d="M70 496v161q0 15 16 15h143v145q0 17 17 17h160q16 0 16 -17v-160q0 -16 -16 -16h-144v-129h144q16 0 16 -16v-160q0 -17 -16 -17h-160q-17 0 -17 17v145h-143q-16 0 -16 15z" />
<glyph unicode="&#x203a;" horiz-adv-x="491" d="M70 336v160q0 16 16 16h143v129h-143q-16 0 -16 16v160q0 17 16 17h160q16 0 16 -17v-145h144q16 0 16 -15v-161q0 -15 -16 -15h-144v-145q0 -17 -16 -17h-160q-16 0 -16 17z" />
<glyph unicode="&#x205f;" horiz-adv-x="450" />
<glyph unicode="&#x20ac;" d="M76 336v160q0 16 14 16h146v289h-146q-14 0 -14 16v160q0 16 14 16h146v144q0 16 16 16h143v145q0 15 17 15h481q14 0 14 -15v-161q0 -17 -14 -17h-465v-127h303q17 0 17 -16v-160q0 -16 -17 -16h-303v-289h143q17 0 17 -16v-160q0 -17 -17 -17h-143v-126h465 q14 0 14 -17v-160q0 -16 -14 -16h-481q-17 0 -17 16v144h-143q-16 0 -16 16v143h-146q-14 0 -14 17z" />
<glyph unicode="&#x2122;" horiz-adv-x="1638" d="M82 1137v161q0 15 16 15h482q16 0 16 -15v-161q0 -17 -16 -17h-146v-463q0 -16 -16 -16h-160q-16 0 -16 16v463h-144q-16 0 -16 17zM723 657v641q0 15 16 15h641q17 0 17 -15v-145h143q16 0 16 -16v-480q0 -16 -16 -16h-160q-16 0 -16 16v463h-129v-463q0 -16 -14 -16 h-162q-17 0 -17 16v463h-127v-463q0 -16 -16 -16h-160q-16 0 -16 16z" />
<glyph unicode="&#x25fc;" horiz-adv-x="993" d="M0 0v993h993v-993h-993z" />
<glyph unicode="&#xfb01;" horiz-adv-x="1064" d="M-8 657v160q0 17 16 17h144v303q0 16 16 16h143v145q0 15 17 15h319q17 0 17 -15v-161q0 -17 -17 -17h-303v-286h143q17 0 17 -17v-160q0 -16 -17 -16h-143v-625q0 -16 -16 -16h-160q-16 0 -16 16v625h-144q-16 0 -16 16zM643 817v160q0 16 16 16h320q16 0 16 -16v-961 q0 -16 -16 -16h-160q-16 0 -16 16v785h-144q-16 0 -16 16zM803 1137v161q0 15 16 15h160q16 0 16 -15v-161q0 -17 -16 -17h-160q-16 0 -16 17z" />
<glyph unicode="&#xfb02;" horiz-adv-x="1064" d="M-8 657v160q0 17 16 17h144v303q0 16 16 16h143v145q0 15 17 15h651q16 0 16 -15v-1282q0 -16 -16 -16h-160q-16 0 -16 16v1104h-459v-286h143q17 0 17 -17v-160q0 -16 -17 -16h-143v-625q0 -16 -16 -16h-160q-16 0 -16 16v625h-144q-16 0 -16 16z" />
</font>
</defs>
</svg>
